ISO-10303-21;
HEADER;
FILE_DESCRIPTION (( 'STEP AP214' ),
    '1' );
FILE_NAME ('Button^Shadowfang_Enclosure_V1.STEP',
    '2026-01-20T03:49:51',
    ( '' ),
    ( '' ),
    'SwSTEP 2.0',
    'SolidWorks 2026',
    '' );
FILE_SCHEMA (( 'AUTOMOTIVE_DESIGN' ));
ENDSEC;

DATA;
#1 = AXIS2_PLACEMENT_3D ( 'NONE', #204, #31, #69 ) ;
#2 = CARTESIAN_POINT ( 'NONE',  ( 0.000000000000000000, 0.000000000000000000, 0.000000000000000000 ) ) ;
#3 = EDGE_CURVE ( 'NONE', #90, #187, #18, .T. ) ;
#4 = DIRECTION ( 'NONE',  ( 0.4718585017421620953, 0.005237172241809743244, -0.8816587357705653050 ) ) ;
#5 = DIRECTION ( 'NONE',  ( -0.8816708270753319532, 0.000000000000000000, -0.4718649729364324807 ) ) ;
#6 = EDGE_LOOP ( 'NONE', ( #94, #164, #137, #174 ) ) ;
#7 = AXIS2_PLACEMENT_3D ( 'NONE', #58, #190, #36 ) ;
#8 = DIRECTION ( 'NONE',  ( 0.4718585017421621508, 0.005237172241809645232, -0.8816587357705653050 ) ) ;
#9 =( LENGTH_UNIT ( ) NAMED_UNIT ( * ) SI_UNIT ( .MILLI., .METRE. ) );
#10 = AXIS2_PLACEMENT_3D ( 'NONE', #106, #4, #5 ) ;
#11 = SURFACE_SIDE_STYLE ('',( #54 ) ) ;
#12 = EDGE_LOOP ( 'NONE', ( #21, #119 ) ) ;
#13 = VERTEX_POINT ( 'NONE', #203 ) ;
#14 = CARTESIAN_POINT ( 'NONE',  ( 1458.728298140135621, -606.9527325357717018, 791.6163597808839540 ) ) ;
#15 = MANIFOLD_SOLID_BREP ( 'Cut-Extrude1', #148 ) ;
#16 = FACE_OUTER_BOUND ( 'NONE', #130, .T. ) ;
#17 = CARTESIAN_POINT ( 'NONE',  ( 1463.528999403140915, -606.9385921707188345, 791.1233410860490949 ) ) ;
#18 = CIRCLE ( 'NONE', #88, 3.999999999999846789 ) ;
#19 = FACE_OUTER_BOUND ( 'NONE', #87, .T. ) ;
#20 = CIRCLE ( 'NONE', #177, 3.999999999999846789 ) ;
#21 = ORIENTED_EDGE ( 'NONE', *, *, #172, .T. ) ;
#22 = ORIENTED_EDGE ( 'NONE', *, *, #92, .F. ) ;
#23 = CARTESIAN_POINT ( 'NONE',  ( 1457.312722634909051, -606.9684440524969204, 794.2613359881959241 ) ) ;
#24 = CARTESIAN_POINT ( 'NONE',  ( 1458.728298140135394, -606.9527325357715881, 791.6163597808841814 ) ) ;
#25 = CARTESIAN_POINT ( 'NONE',  ( 1459.341714192401241, -606.9459242118574593, 790.4702034243825892 ) ) ;
#26 = DIRECTION ( 'NONE',  ( -0.8816708270753321752, 0.000000000000000000, -0.4718649729364323142 ) ) ;
#27 = AXIS2_PLACEMENT_3D ( 'NONE', #2, #281, #35 ) ;
#28 = ORIENTED_EDGE ( 'NONE', *, *, #102, .T. ) ;
#29 = DIRECTION ( 'NONE',  ( -0.8816708270753221832, 0.000000000000000000, -0.4718649729364506884 ) ) ;
#30 = AXIS2_PLACEMENT_3D ( 'NONE', #280, #215, #79 ) ;
#31 = DIRECTION ( 'NONE',  ( -0.4718585017421620953, -0.005237172241809743244, 0.8816587357705653050 ) ) ;
#32 = FILL_AREA_STYLE_COLOUR ( '', #57 ) ;
#33 = FILL_AREA_STYLE ('',( #32 ) ) ;
#34 = ORIENTED_EDGE ( 'NONE', *, *, #44, .T. ) ;
#35 = DIRECTION ( 'NONE',  ( 1.000000000000000000, 0.000000000000000000, 0.000000000000000000 ) ) ;
#36 = DIRECTION ( 'NONE',  ( -0.8816708270753221832, 0.000000000000000000, -0.4718649729364506884 ) ) ;
#37 = ADVANCED_FACE ( 'NONE', ( #230, #240 ), #146, .T. ) ;
#38 = DIRECTION ( 'NONE',  ( 0.4718585017421622063, 0.005237172241809646099, -0.8816587357705654160 ) ) ;
#39 = DIRECTION ( 'NONE',  ( -0.4718585017421621508, -0.005237172241809743244, 0.8816587357705654160 ) ) ;
#40 = AXIS2_PLACEMENT_3D ( 'NONE', #14, #236, #195 ) ;
#41 = MECHANICAL_DESIGN_GEOMETRIC_PRESENTATION_REPRESENTATION (  '', ( #216 ), #277 ) ;
#42 = CARTESIAN_POINT ( 'NONE',  ( 1457.312722634909051, -606.9684440524969204, 794.2613359881959241 ) ) ;
#43 = CARTESIAN_POINT ( 'NONE',  ( 1462.254981448436865, -606.9527325357717018, 793.5038196726295610 ) ) ;
#44 = EDGE_CURVE ( 'NONE', #266, #74, #46, .T. ) ;
#45 = DIRECTION ( 'NONE',  ( 0.8816708270753319532, 0.000000000000000000, 0.4718649729364324807 ) ) ;
#46 = CIRCLE ( 'NONE', #99, 1.541552392870866761 ) ;
#47 = CARTESIAN_POINT ( 'NONE',  ( 1458.728298140135394, -606.9527325357715881, 791.6163597808841814 ) ) ;
#48 = CARTESIAN_POINT ( 'NONE',  ( 1458.728298140135621, -606.9527325357717018, 791.6163597808839540 ) ) ;
#49 = CARTESIAN_POINT ( 'NONE',  ( 1457.982572419198732, -606.9459242118574593, 789.7427988462404755 ) ) ;
#50 =( NAMED_UNIT ( * ) PLANE_ANGLE_UNIT ( ) SI_UNIT ( $, .RADIAN. ) );
#51 = DIRECTION ( 'NONE',  ( 0.4718585017421620953, 0.005237172241809700743, -0.8816587357705654160 ) ) ;
#52 = EDGE_LOOP ( 'NONE', ( #244, #153, #189, #233 ) ) ;
#53 = VERTEX_POINT ( 'NONE', #81 ) ;
#54 = SURFACE_STYLE_FILL_AREA ( #33 ) ;
#55 = ADVANCED_FACE ( 'NONE', ( #126 ), #285, .T. ) ;
#56 = DIRECTION ( 'NONE',  ( 0.4718585017421620953, 0.005237172241809743244, -0.8816587357705653050 ) ) ;
#57 = COLOUR_RGB ( '',0.7921568627450980005, 0.8196078431372548767, 0.9333333333333333481 ) ;
#58 = CARTESIAN_POINT ( 'NONE',  ( 1459.341714192401241, -606.9459242118574593, 790.4702034243825892 ) ) ;
#59 = LINE ( 'NONE', #17, #188 ) ;
#60 = DIRECTION ( 'NONE',  ( 0.4718585017421620953, 0.005237172241809701610, -0.8816587357705654160 ) ) ;
#61 = ADVANCED_BREP_SHAPE_REPRESENTATION ( 'Button^Shadowfang_Enclosure_V1', ( #15, #27 ), #265 ) ;
#62 = CARTESIAN_POINT ( 'NONE',  ( 1460.002316094839671, -606.9385921707188345, 789.2358811943034880 ) ) ;
#63 = CIRCLE ( 'NONE', #152, 1.541552392870866761 ) ;
#64 = ORIENTED_EDGE ( 'NONE', *, *, #232, .T. ) ;
#65 = AXIS2_PLACEMENT_3D ( 'NONE', #213, #60, #192 ) ;
#66 = ADVANCED_FACE ( 'NONE', ( #211 ), #171, .T. ) ;
#67 = CARTESIAN_POINT ( 'NONE',  ( 1454.403208905560405, -606.9684440524969204, 792.7041815775056648 ) ) ;
#68 = CARTESIAN_POINT ( 'NONE',  ( 1454.403208905560405, -606.9684440524969204, 792.7041815775056648 ) ) ;
#69 = DIRECTION ( 'NONE',  ( 0.8816708270753319532, 0.000000000000000000, 0.4718649729364324807 ) ) ;
#70 = UNCERTAINTY_MEASURE_WITH_UNIT (LENGTH_MEASURE( 1.000000000000000082E-05 ), #227, 'distance_accuracy_value', 'NONE');
#71 = DIRECTION ( 'NONE',  ( 0.4718585017421620953, 0.005237172241809743244, -0.8816587357705653050 ) ) ;
#72 = ORIENTED_EDGE ( 'NONE', *, *, #84, .T. ) ;
#73 = APPLICATION_PROTOCOL_DEFINITION ( 'draft international standard', 'automotive_design', 1998, #175 ) ;
#74 = VERTEX_POINT ( 'NONE', #131 ) ;
#75 = CIRCLE ( 'NONE', #7, 1.541552392870866761 ) ;
#76 = EDGE_LOOP ( 'NONE', ( #28, #279, #207, #118 ) ) ;
#77 = PRODUCT_CONTEXT ( 'NONE', #175, 'mechanical' ) ;
#78 = VERTEX_POINT ( 'NONE', #218 ) ;
#79 = DIRECTION ( 'NONE',  ( -0.8816708270753321752, 0.000000000000000000, -0.4718649729364323142 ) ) ;
#80 = CIRCLE ( 'NONE', #65, 1.541552392870866761 ) ;
#81 = CARTESIAN_POINT ( 'NONE',  ( 1458.643174321637844, -606.9385921707188345, 788.5084766161616017 ) ) ;
#82 = DIRECTION ( 'NONE',  ( 0.4718585017421622063, 0.005237172241809646099, -0.8816587357705654160 ) ) ;
#83 = FACE_OUTER_BOUND ( 'NONE', #163, .T. ) ;
#84 = EDGE_CURVE ( 'NONE', #278, #187, #59, .T. ) ;
#85 = LINE ( 'NONE', #97, #254 ) ;
#86 = CIRCLE ( 'NONE', #107, 3.300000000000080647 ) ;
#87 = EDGE_LOOP ( 'NONE', ( #167, #34 ) ) ;
#88 = AXIS2_PLACEMENT_3D ( 'NONE', #48, #205, #110 ) ;
#89 = DIRECTION ( 'NONE',  ( -0.8816708270753319532, 0.000000000000000000, -0.4718649729364324807 ) ) ;
#90 = VERTEX_POINT ( 'NONE', #168 ) ;
#91 = SURFACE_STYLE_USAGE ( .BOTH. , #11 ) ;
#92 = EDGE_CURVE ( 'NONE', #278, #13, #20, .T. ) ;
#93 = ORIENTED_EDGE ( 'NONE', *, *, #258, .T. ) ;
#94 = ORIENTED_EDGE ( 'NONE', *, *, #235, .F. ) ;
#95 = CIRCLE ( 'NONE', #10, 3.999999999999846789 ) ;
#96 = EDGE_CURVE ( 'NONE', #53, #78, #80, .T. ) ;
#97 = CARTESIAN_POINT ( 'NONE',  ( 1456.475632786538426, -606.9385921707188345, 787.3484213025577674 ) ) ;
#98 = DIRECTION ( 'NONE',  ( 0.4718585017421621508, 0.005237172241809742376, -0.8816587357705654160 ) ) ;
#99 = AXIS2_PLACEMENT_3D ( 'NONE', #257, #121, #234 ) ;
#100 = DIRECTION ( 'NONE',  ( -0.8816708270753321752, 0.000000000000000000, -0.4718649729364323142 ) ) ;
#101 = CARTESIAN_POINT ( 'NONE',  ( 1459.341714192401241, -606.9459242118574593, 790.4702034243825892 ) ) ;
#102 = EDGE_CURVE ( 'NONE', #219, #160, #86, .T. ) ;
#103 = ORIENTED_EDGE ( 'NONE', *, *, #283, .F. ) ;
#104 = AXIS2_PLACEMENT_3D ( 'NONE', #220, #71, #89 ) ;
#105 = PLANE ( 'NONE',  #40 ) ;
#106 = CARTESIAN_POINT ( 'NONE',  ( 1460.002316094839671, -606.9385921707188345, 789.2358811943034880 ) ) ;
#107 = AXIS2_PLACEMENT_3D ( 'NONE', #23, #238, #100 ) ;
#108 = DIRECTION ( 'NONE',  ( -0.8816708270753221832, 0.000000000000000000, -0.4718649729364506884 ) ) ;
#109 = CARTESIAN_POINT ( 'NONE',  ( 1460.222236364257697, -606.9684440524969204, 795.8184903988861834 ) ) ;
#110 = DIRECTION ( 'NONE',  ( -0.8816708270753319532, 0.000000000000000000, -0.4718649729364324807 ) ) ;
#111 = DIRECTION ( 'NONE',  ( 0.4718585017421621508, 0.005237172241809646099, -0.8816587357705653050 ) ) ;
#112 = ORIENTED_EDGE ( 'NONE', *, *, #129, .T. ) ;
#113 = AXIS2_PLACEMENT_3D ( 'NONE', #47, #111, #221 ) ;
#114 = CARTESIAN_POINT ( 'NONE',  ( 1463.528999403140915, -606.9385921707188345, 791.1233410860490949 ) ) ;
#115 = ORIENTED_EDGE ( 'NONE', *, *, #44, .F. ) ;
#116 = ADVANCED_FACE ( 'NONE', ( #282, #16 ), #105, .F. ) ;
#117 = APPLICATION_PROTOCOL_DEFINITION ( 'draft international standard', 'automotive_design', 1998, #262 ) ;
#118 = ORIENTED_EDGE ( 'NONE', *, *, #209, .F. ) ;
#119 = ORIENTED_EDGE ( 'NONE', *, *, #263, .T. ) ;
#120 = PRODUCT_DEFINITION_SHAPE ( 'NONE', 'NONE',  #178 ) ;
#121 = DIRECTION ( 'NONE',  ( 0.4718585017421620953, 0.005237172241809701610, -0.8816587357705654160 ) ) ;
#122 = PRODUCT_DEFINITION_FORMATION_WITH_SPECIFIED_SOURCE ( 'Symmetric', '', #256, .NOT_KNOWN. ) ;
#123 = CARTESIAN_POINT ( 'NONE',  ( 1460.222236364257697, -606.9684440524969204, 795.8184903988861834 ) ) ;
#124 = DIRECTION ( 'NONE',  ( -0.4718585017421621508, -0.005237172241809743244, 0.8816587357705654160 ) ) ;
#125 = VECTOR ( 'NONE', #8, 1000.000000000000114 ) ;
#126 = FACE_OUTER_BOUND ( 'NONE', #6, .T. ) ;
#127 = PRODUCT_RELATED_PRODUCT_CATEGORY ( 'part', '', ( #256 ) ) ;
#128 = EDGE_LOOP ( 'NONE', ( #208, #166 ) ) ;
#129 = EDGE_CURVE ( 'NONE', #13, #90, #85, .T. ) ;
#130 = EDGE_LOOP ( 'NONE', ( #199, #274 ) ) ;
#131 = CARTESIAN_POINT ( 'NONE',  ( 1457.982572419198732, -606.9459242118574593, 789.7427988462404755 ) ) ;
#132 = EDGE_LOOP ( 'NONE', ( #103, #112, #272, #225 ) ) ;
#133 = CIRCLE ( 'NONE', #104, 3.999999999999846789 ) ;
#134 = DIRECTION ( 'NONE',  ( -0.8816708270753221832, 0.000000000000000000, -0.4718649729364506884 ) ) ;
#135 = AXIS2_PLACEMENT_3D ( 'NONE', #62, #98, #149 ) ;
#136 = CYLINDRICAL_SURFACE ( 'NONE', #1, 3.999999999999846789 ) ;
#137 = ORIENTED_EDGE ( 'NONE', *, *, #209, .T. ) ;
#138 = CARTESIAN_POINT ( 'NONE',  ( 1455.818784410786748, -606.9527325357715881, 790.0592053701939221 ) ) ;
#139 = EDGE_CURVE ( 'NONE', #74, #266, #75, .T. ) ;
#140 = EDGE_LOOP ( 'NONE', ( #142, #22, #72, #93 ) ) ;
#141 = CIRCLE ( 'NONE', #30, 3.300000000000080647 ) ;
#142 = ORIENTED_EDGE ( 'NONE', *, *, #129, .F. ) ;
#143 = VERTEX_POINT ( 'NONE', #144 ) ;
#144 = CARTESIAN_POINT ( 'NONE',  ( 1461.637811869484267, -606.9527325357715881, 793.1735141915744407 ) ) ;
#145 = DIRECTION ( 'NONE',  ( 0.4718585017421620953, 0.005237172241809702478, -0.8816587357705654160 ) ) ;
#146 = PLANE ( 'NONE',  #135 ) ;
#147 = DIRECTION ( 'NONE',  ( -0.8816708270753319532, 0.000000000000000000, -0.4718649729364324807 ) ) ;
#148 = CLOSED_SHELL ( 'NONE', ( #275, #243, #66, #55, #161, #202, #37, #116, #183, #156 ) ) ;
#149 = DIRECTION ( 'NONE',  ( -0.8816708270753356169, 0.000000000000000000, -0.4718649729364253198 ) ) ;
#150 = CIRCLE ( 'NONE', #224, 3.300000000000080647 ) ;
#151 = EDGE_CURVE ( 'NONE', #160, #219, #141, .T. ) ;
#152 = AXIS2_PLACEMENT_3D ( 'NONE', #268, #248, #134 ) ;
#153 = ORIENTED_EDGE ( 'NONE', *, *, #139, .F. ) ;
#154 = FACE_OUTER_BOUND ( 'NONE', #52, .T. ) ;
#155 =( NAMED_UNIT ( * ) SI_UNIT ( $, .STERADIAN. ) SOLID_ANGLE_UNIT ( ) );
#156 = ADVANCED_FACE ( 'NONE', ( #19 ), #284, .T. ) ;
#157 = DIRECTION ( 'NONE',  ( -0.4718585017421620953, -0.005237172241809743244, 0.8816587357705653050 ) ) ;
#158 = PRODUCT_DEFINITION_CONTEXT ( 'detailed design', #262, 'design' ) ;
#159 = DIRECTION ( 'NONE',  ( 0.4718585017421620953, 0.005237172241809700743, -0.8816587357705654160 ) ) ;
#160 = VERTEX_POINT ( 'NONE', #123 ) ;
#161 = ADVANCED_FACE ( 'NONE', ( #83 ), #173, .F. ) ;
#162 = LINE ( 'NONE', #246, #165 ) ;
#163 = EDGE_LOOP ( 'NONE', ( #210, #255 ) ) ;
#164 = ORIENTED_EDGE ( 'NONE', *, *, #151, .T. ) ;
#165 = VECTOR ( 'NONE', #159, 1000.000000000000000 ) ;
#166 = ORIENTED_EDGE ( 'NONE', *, *, #283, .T. ) ;
#167 = ORIENTED_EDGE ( 'NONE', *, *, #139, .T. ) ;
#168 = CARTESIAN_POINT ( 'NONE',  ( 1455.201614831834604, -606.9527325357717018, 789.7288998891384608 ) ) ;
#169 = PRESENTATION_LAYER_ASSIGNMENT (  '', '', ( #216 ) ) ;
#170 = SHAPE_DEFINITION_REPRESENTATION ( #120, #61 ) ;
#171 = CYLINDRICAL_SURFACE ( 'NONE', #214, 3.300000000000080647 ) ;
#172 = EDGE_CURVE ( 'NONE', #251, #143, #182, .T. ) ;
#173 = PLANE ( 'NONE',  #242 ) ;
#174 = ORIENTED_EDGE ( 'NONE', *, *, #263, .F. ) ;
#175 = APPLICATION_CONTEXT ( 'automotive_design' ) ;
#176 = DIRECTION ( 'NONE',  ( -0.8816708270753356169, 0.000000000000000000, -0.4718649729364253753 ) ) ;
#177 = AXIS2_PLACEMENT_3D ( 'NONE', #259, #56, #147 ) ;
#178 = PRODUCT_DEFINITION ( 'General', '', #122, #158 ) ;
#179 = ORIENTED_EDGE ( 'NONE', *, *, #196, .T. ) ;
#180 = FACE_OUTER_BOUND ( 'NONE', #132, .T. ) ;
#181 = CYLINDRICAL_SURFACE ( 'NONE', #267, 1.541552392870866761 ) ;
#182 = CIRCLE ( 'NONE', #113, 3.300000000000080647 ) ;
#183 = ADVANCED_FACE ( 'NONE', ( #154 ), #181, .F. ) ;
#184 = CARTESIAN_POINT ( 'NONE',  ( 1460.700855965603523, -606.9459242118574593, 791.1976080025247029 ) ) ;
#185 = EDGE_LOOP ( 'NONE', ( #186, #231 ) ) ;
#186 = ORIENTED_EDGE ( 'NONE', *, *, #96, .F. ) ;
#187 = VERTEX_POINT ( 'NONE', #43 ) ;
#188 = VECTOR ( 'NONE', #124, 1000.000000000000114 ) ;
#189 = ORIENTED_EDGE ( 'NONE', *, *, #241, .T. ) ;
#190 = DIRECTION ( 'NONE',  ( 0.4718585017421620953, 0.005237172241809701610, -0.8816587357705654160 ) ) ;
#191 = DIRECTION ( 'NONE',  ( -0.8816708270753321752, 0.000000000000000000, -0.4718649729364323142 ) ) ;
#192 = DIRECTION ( 'NONE',  ( -0.8816708270753221832, 0.000000000000000000, -0.4718649729364506884 ) ) ;
#193 = DIRECTION ( 'NONE',  ( -0.8816708270753357279, 0.000000000000000000, -0.4718649729364253198 ) ) ;
#194 = AXIS2_PLACEMENT_3D ( 'NONE', #201, #197, #29 ) ;
#195 = DIRECTION ( 'NONE',  ( -0.8816708270753356169, 0.000000000000000000, -0.4718649729364253198 ) ) ;
#196 = EDGE_CURVE ( 'NONE', #78, #53, #63, .T. ) ;
#197 = DIRECTION ( 'NONE',  ( 0.4718585017421620953, 0.005237172241809700743, -0.8816587357705654160 ) ) ;
#198 = VECTOR ( 'NONE', #252, 1000.000000000000114 ) ;
#199 = ORIENTED_EDGE ( 'NONE', *, *, #258, .F. ) ;
#200 = CYLINDRICAL_SURFACE ( 'NONE', #194, 1.541552392870866761 ) ;
#201 = CARTESIAN_POINT ( 'NONE',  ( 1459.341714192401241, -606.9459242118574593, 790.4702034243825892 ) ) ;
#202 = ADVANCED_FACE ( 'NONE', ( #271 ), #136, .T. ) ;
#203 = CARTESIAN_POINT ( 'NONE',  ( 1456.475632786538426, -606.9385921707188345, 787.3484213025577674 ) ) ;
#204 = CARTESIAN_POINT ( 'NONE',  ( 1460.002316094839671, -606.9385921707188345, 789.2358811943034880 ) ) ;
#205 = DIRECTION ( 'NONE',  ( 0.4718585017421620953, 0.005237172241809743244, -0.8816587357705653050 ) ) ;
#206 = CARTESIAN_POINT ( 'NONE',  ( 1460.002316094839671, -606.9385921707188345, 789.2358811943034880 ) ) ;
#207 = ORIENTED_EDGE ( 'NONE', *, *, #172, .F. ) ;
#208 = ORIENTED_EDGE ( 'NONE', *, *, #92, .T. ) ;
#209 = EDGE_CURVE ( 'NONE', #219, #251, #223, .T. ) ;
#210 = ORIENTED_EDGE ( 'NONE', *, *, #102, .F. ) ;
#211 = FACE_OUTER_BOUND ( 'NONE', #76, .T. ) ;
#212 = DIRECTION ( 'NONE',  ( 0.4718585017421621508, 0.005237172241809646966, -0.8816587357705653050 ) ) ;
#213 = CARTESIAN_POINT ( 'NONE',  ( 1460.002316094840353, -606.9385921707188345, 789.2358811943037153 ) ) ;
#214 = AXIS2_PLACEMENT_3D ( 'NONE', #237, #38, #261 ) ;
#215 = DIRECTION ( 'NONE',  ( 0.4718585017421621508, 0.005237172241809646099, -0.8816587357705653050 ) ) ;
#216 = STYLED_ITEM ( 'NONE', ( #276 ), #15 ) ;
#217 = EDGE_LOOP ( 'NONE', ( #115, #64, #179, #253 ) ) ;
#218 = CARTESIAN_POINT ( 'NONE',  ( 1461.361457868042635, -606.9385921707188345, 789.9632857724458290 ) ) ;
#219 = VERTEX_POINT ( 'NONE', #67 ) ;
#220 = CARTESIAN_POINT ( 'NONE',  ( 1458.728298140135621, -606.9527325357717018, 791.6163597808839540 ) ) ;
#221 = DIRECTION ( 'NONE',  ( -0.8816708270753321752, 0.000000000000000000, -0.4718649729364323142 ) ) ;
#222 = VECTOR ( 'NONE', #51, 1000.000000000000000 ) ;
#223 = LINE ( 'NONE', #68, #125 ) ;
#224 = AXIS2_PLACEMENT_3D ( 'NONE', #24, #247, #26 ) ;
#225 = ORIENTED_EDGE ( 'NONE', *, *, #84, .F. ) ;
#226 = LINE ( 'NONE', #109, #198 ) ;
#227 =( LENGTH_UNIT ( ) NAMED_UNIT ( * ) SI_UNIT ( .MILLI., .METRE. ) );
#228 = FACE_OUTER_BOUND ( 'NONE', #217, .T. ) ;
#229 = AXIS2_PLACEMENT_3D ( 'NONE', #101, #145, #193 ) ;
#230 = FACE_BOUND ( 'NONE', #185, .T. ) ;
#231 = ORIENTED_EDGE ( 'NONE', *, *, #196, .F. ) ;
#232 = EDGE_CURVE ( 'NONE', #266, #78, #162, .T. ) ;
#233 = ORIENTED_EDGE ( 'NONE', *, *, #96, .T. ) ;
#234 = DIRECTION ( 'NONE',  ( -0.8816708270753221832, 0.000000000000000000, -0.4718649729364506884 ) ) ;
#235 = EDGE_CURVE ( 'NONE', #160, #143, #226, .T. ) ;
#236 = DIRECTION ( 'NONE',  ( 0.4718585017421621508, 0.005237172241809742376, -0.8816587357705654160 ) ) ;
#237 = CARTESIAN_POINT ( 'NONE',  ( 1457.312722634909051, -606.9684440524969204, 794.2613359881959241 ) ) ;
#238 = DIRECTION ( 'NONE',  ( 0.4718585017421621508, 0.005237172241809646099, -0.8816587357705653050 ) ) ;
#239 = AXIS2_PLACEMENT_3D ( 'NONE', #42, #82, #191 ) ;
#240 = FACE_OUTER_BOUND ( 'NONE', #128, .T. ) ;
#241 = EDGE_CURVE ( 'NONE', #74, #53, #270, .T. ) ;
#242 = AXIS2_PLACEMENT_3D ( 'NONE', #264, #212, #176 ) ;
#243 = ADVANCED_FACE ( 'NONE', ( #180 ), #273, .T. ) ;
#244 = ORIENTED_EDGE ( 'NONE', *, *, #232, .F. ) ;
#245 = DIRECTION ( 'NONE',  ( 0.4718585017421620953, 0.005237172241809700743, -0.8816587357705654160 ) ) ;
#246 = CARTESIAN_POINT ( 'NONE',  ( 1460.700855965603523, -606.9459242118574593, 791.1976080025247029 ) ) ;
#247 = DIRECTION ( 'NONE',  ( 0.4718585017421621508, 0.005237172241809646099, -0.8816587357705653050 ) ) ;
#248 = DIRECTION ( 'NONE',  ( 0.4718585017421620953, 0.005237172241809701610, -0.8816587357705654160 ) ) ;
#249 = UNCERTAINTY_MEASURE_WITH_UNIT (LENGTH_MEASURE( 1.000000000000000082E-05 ), #9, 'distance_accuracy_value', 'NONE');
#250 = AXIS2_PLACEMENT_3D ( 'NONE', #206, #157, #45 ) ;
#251 = VERTEX_POINT ( 'NONE', #138 ) ;
#252 = DIRECTION ( 'NONE',  ( 0.4718585017421621508, 0.005237172241809645232, -0.8816587357705653050 ) ) ;
#253 = ORIENTED_EDGE ( 'NONE', *, *, #241, .F. ) ;
#254 = VECTOR ( 'NONE', #39, 1000.000000000000114 ) ;
#255 = ORIENTED_EDGE ( 'NONE', *, *, #151, .F. ) ;
#256 = PRODUCT ( 'Button^Shadowfang_Enclosure_V1', 'Button^Shadowfang_Enclosure_V1', '', ( #77 ) ) ;
#257 = CARTESIAN_POINT ( 'NONE',  ( 1459.341714192401241, -606.9459242118574593, 790.4702034243825892 ) ) ;
#258 = EDGE_CURVE ( 'NONE', #187, #90, #133, .T. ) ;
#259 = CARTESIAN_POINT ( 'NONE',  ( 1460.002316094839671, -606.9385921707188345, 789.2358811943034880 ) ) ;
#260 =( NAMED_UNIT ( * ) SI_UNIT ( $, .STERADIAN. ) SOLID_ANGLE_UNIT ( ) );
#261 = DIRECTION ( 'NONE',  ( -0.8816708270753321752, 0.000000000000000000, -0.4718649729364323142 ) ) ;
#262 = APPLICATION_CONTEXT ( 'automotive_design' ) ;
#263 = EDGE_CURVE ( 'NONE', #143, #251, #150, .T. ) ;
#264 = CARTESIAN_POINT ( 'NONE',  ( 1457.312722634909051, -606.9684440524969204, 794.2613359881959241 ) ) ;
#265 =( GEOMETRIC_REPRESENTATION_CONTEXT ( 3 ) GLOBAL_UNCERTAINTY_ASSIGNED_CONTEXT ( ( #249 ) ) GLOBAL_UNIT_ASSIGNED_CONTEXT ( ( #9, #269, #155 ) ) REPRESENTATION_CONTEXT ( 'NONE', 'WORKASPACE' ) );
#266 = VERTEX_POINT ( 'NONE', #184 ) ;
#267 = AXIS2_PLACEMENT_3D ( 'NONE', #25, #245, #108 ) ;
#268 = CARTESIAN_POINT ( 'NONE',  ( 1460.002316094840353, -606.9385921707188345, 789.2358811943037153 ) ) ;
#269 =( NAMED_UNIT ( * ) PLANE_ANGLE_UNIT ( ) SI_UNIT ( $, .RADIAN. ) );
#270 = LINE ( 'NONE', #49, #222 ) ;
#271 = FACE_OUTER_BOUND ( 'NONE', #140, .T. ) ;
#272 = ORIENTED_EDGE ( 'NONE', *, *, #3, .T. ) ;
#273 = CYLINDRICAL_SURFACE ( 'NONE', #250, 3.999999999999846789 ) ;
#274 = ORIENTED_EDGE ( 'NONE', *, *, #3, .F. ) ;
#275 = ADVANCED_FACE ( 'NONE', ( #228 ), #200, .F. ) ;
#276 = PRESENTATION_STYLE_ASSIGNMENT (( #91 ) ) ;
#277 =( GEOMETRIC_REPRESENTATION_CONTEXT ( 3 ) GLOBAL_UNCERTAINTY_ASSIGNED_CONTEXT ( ( #70 ) ) GLOBAL_UNIT_ASSIGNED_CONTEXT ( ( #227, #50, #260 ) ) REPRESENTATION_CONTEXT ( 'NONE', 'WORKASPACE' ) );
#278 = VERTEX_POINT ( 'NONE', #114 ) ;
#279 = ORIENTED_EDGE ( 'NONE', *, *, #235, .T. ) ;
#280 = CARTESIAN_POINT ( 'NONE',  ( 1457.312722634909051, -606.9684440524969204, 794.2613359881959241 ) ) ;
#281 = DIRECTION ( 'NONE',  ( 0.000000000000000000, 0.000000000000000000, 1.000000000000000000 ) ) ;
#282 = FACE_BOUND ( 'NONE', #12, .T. ) ;
#283 = EDGE_CURVE ( 'NONE', #13, #278, #95, .T. ) ;
#284 = PLANE ( 'NONE',  #229 ) ;
#285 = CYLINDRICAL_SURFACE ( 'NONE', #239, 3.300000000000080647 ) ;
ENDSEC;
END-ISO-10303-21;
