ISO-10303-21;
HEADER;
FILE_DESCRIPTION (( 'STEP AP214' ),
    '1' );
FILE_NAME ('Shadowfang_Enclosure_V1.STEP',
    '2026-01-20T03:49:51',
    ( '' ),
    ( '' ),
    'SwSTEP 2.0',
    'SolidWorks 2026',
    '' );
FILE_SCHEMA (( 'AUTOMOTIVE_DESIGN' ));
ENDSEC;

DATA;
#1 =( NAMED_UNIT ( * ) PLANE_ANGLE_UNIT ( ) SI_UNIT ( $, .RADIAN. ) );
#2 = ROLE_ASSOCIATION ( #35, #146 ) ;
#3 = AXIS2_PLACEMENT_3D ( 'NONE', #65, #13, #92 ) ;
#4 = PROPERTY_DEFINITION_REPRESENTATION ( #22, #52 ) ;
#5 = APPLIED_DOCUMENT_REFERENCE ( #112,'',( #40) ) ;
#6 = PRODUCT_DEFINITION_SHAPE ( 'NONE', 'NONE',  #49 ) ;
#7 = CARTESIAN_POINT ( 'NONE',  ( -1763.257297155162860, -51.17341324611262365, -4.300845773338954459 ) ) ;
#8 = IDENTIFICATION_ROLE ( 'external document id and location', $) ;
#9 = APPLIED_EXTERNAL_IDENTIFICATION_ASSIGNMENT ( 'Button^Shadowfang_Enclosure_V1.STEP' , #8, #107,( #51) ) ;
#10 = DIRECTION ( 'NONE',  ( 1.000000000000000000, 0.000000000000000000, 0.000000000000000000 ) ) ;
#11 = PRODUCT_DEFINITION_CONTEXT ( 'detailed design', #140, 'design' ) ;
#12 = SHAPE_REPRESENTATION ( 'Bottom_Enclosure', ( #46 ), #148 ) ;
#13 = DIRECTION ( 'NONE',  ( 0.000000000000000000, 0.000000000000000000, 1.000000000000000000 ) ) ;
#14 = EXTERNAL_SOURCE (IDENTIFIER('') ) ;
#15 = OBJECT_ROLE ('mandatory',$ ) ;
#16 = PRODUCT_CONTEXT ( 'NONE', #72, 'mechanical' ) ;
#17 = DOCUMENT_TYPE ( 'geometry' ) ;
#18 = APPLICATION_PROTOCOL_DEFINITION ( 'draft international standard', 'automotive_design', 1998, #140 ) ;
#19 = PRODUCT_DEFINITION_SHAPE ( 'NONE', 'NONE',  #137 ) ;
#20 = SHAPE_DEFINITION_REPRESENTATION ( #33, #85 ) ;
#21 = PRODUCT ( 'Shadowfang_Enclosure_V1', 'Shadowfang_Enclosure_V1', '', ( #91 ) ) ;
#22 = PROPERTY_DEFINITION ('external definition','', #51 ) ;
#23 = PRODUCT_RELATED_PRODUCT_CATEGORY ( 'part', '', ( #21 ) ) ;
#24 =( NAMED_UNIT ( * ) PLANE_ANGLE_UNIT ( ) SI_UNIT ( $, .RADIAN. ) );
#25 = PRODUCT_DEFINITION_CONTEXT ( 'detailed design', #47, 'design' ) ;
#26 = AXIS2_PLACEMENT_3D ( 'NONE', #89, #120, #68 ) ;
#27 = CARTESIAN_POINT ( 'NONE',  ( 0.000000000000000000, 0.000000000000000000, 0.000000000000000000 ) ) ;
#28 =( REPRESENTATION_RELATIONSHIP ('NONE','NONE', #85, #52 ) REPRESENTATION_RELATIONSHIP_WITH_TRANSFORMATION ( #39 )SHAPE_REPRESENTATION_RELATIONSHIP( ) );
#29 = DIRECTION ( 'NONE',  ( 1.000000000000000000, 0.000000000000000000, 0.000000000000000000 ) ) ;
#30 = DIRECTION ( 'NONE',  ( 0.4345356536814756199, 0.1840017372718565913, 0.8816587357705651939 ) ) ;
#31 = PRODUCT_RELATED_PRODUCT_CATEGORY ( 'part', '', ( #62 ) ) ;
#32 = PROPERTY_DEFINITION_REPRESENTATION ( #111, #70 ) ;
#33 = PRODUCT_DEFINITION_SHAPE ( 'NONE', 'NONE',  #63 ) ;
#34 = PROPERTY_DEFINITION_REPRESENTATION ( #145, #12 ) ;
#35 = OBJECT_ROLE ('mandatory',$ ) ;
#36 = DIRECTION ( 'NONE',  ( 1.000000000000000000, 0.000000000000000000, 0.000000000000000000 ) ) ;
#37 = DIRECTION ( 'NONE',  ( 0.000000000000000000, 0.000000000000000000, 1.000000000000000000 ) ) ;
#38 = UNCERTAINTY_MEASURE_WITH_UNIT (LENGTH_MEASURE( 1.000000000000000082E-05 ), #56, 'distance_accuracy_value', 'NONE');
#39 = ITEM_DEFINED_TRANSFORMATION ( 'NONE', 'NONE', #138,  #3 ) ;
#40 = PRODUCT_DEFINITION ( 'General', '', #60, #11 ) ;
#41 = PRODUCT ( 'Button^Shadowfang_Enclosure_V1', 'Button^Shadowfang_Enclosure_V1', '', ( #16 ) ) ;
#42 = APPLICATION_CONTEXT ( 'automotive_design' ) ;
#43 = APPLICATION_PROTOCOL_DEFINITION ( 'draft international standard', 'automotive_design', 1998, #42 ) ;
#44 =( NAMED_UNIT ( * ) SI_UNIT ( $, .STERADIAN. ) SOLID_ANGLE_UNIT ( ) );
#45 = APPLICATION_PROTOCOL_DEFINITION ( 'draft international standard', 'automotive_design', 1998, #128 ) ;
#46 = AXIS2_PLACEMENT_3D ( 'NONE', #66, #103, #10 ) ;
#47 = APPLICATION_CONTEXT ( 'automotive_design' ) ;
#48 = PROPERTY_DEFINITION_REPRESENTATION ( #147, #52 ) ;
#49 = PRODUCT_DEFINITION ( 'General', '', #126, #64 ) ;
#50 = PRODUCT_DEFINITION_SHAPE ( 'NONE', 'NONE',  #151 ) ;
#51 = DOCUMENT_FILE ( 'Button^Shadowfang_Enclosure_V1.STEP' , '', '', #17, '' ,$ ) ;
#52 = SHAPE_REPRESENTATION ( 'Button^Shadowfang_Enclosure_V1', ( #3 ), #135 ) ;
#53 =( LENGTH_UNIT ( ) NAMED_UNIT ( * ) SI_UNIT ( .MILLI., .METRE. ) );
#54 = DOCUMENT_TYPE ( 'geometry' ) ;
#55 =( LENGTH_UNIT ( ) NAMED_UNIT ( * ) SI_UNIT ( .MILLI., .METRE. ) );
#56 =( LENGTH_UNIT ( ) NAMED_UNIT ( * ) SI_UNIT ( .MILLI., .METRE. ) );
#57 =( LENGTH_UNIT ( ) NAMED_UNIT ( * ) SI_UNIT ( .MILLI., .METRE. ) );
#58 = ITEM_DEFINED_TRANSFORMATION ( 'NONE', 'NONE', #143,  #100 ) ;
#59 = ITEM_DEFINED_TRANSFORMATION ( 'NONE', 'NONE', #67,  #46 ) ;
#60 = PRODUCT_DEFINITION_FORMATION_WITH_SPECIFIED_SOURCE ( 'Symmetric', '', #134, .NOT_KNOWN. ) ;
#61 = APPLICATION_PROTOCOL_DEFINITION ( 'draft international standard', 'automotive_design', 1998, #72 ) ;
#62 = PRODUCT ( 'Bottom_Enclosure', 'Bottom_Enclosure', '', ( #71 ) ) ;
#63 = PRODUCT_DEFINITION ( 'General', '', #123, #125 ) ;
#64 = PRODUCT_DEFINITION_CONTEXT ( 'detailed design', #128, 'design' ) ;
#65 = CARTESIAN_POINT ( 'NONE',  ( 0.000000000000000000, 0.000000000000000000, 0.000000000000000000 ) ) ;
#66 = CARTESIAN_POINT ( 'NONE',  ( 0.000000000000000000, 0.000000000000000000, 0.000000000000000000 ) ) ;
#67 = AXIS2_PLACEMENT_3D ( 'NONE', #27, #77, #124 ) ;
#68 = DIRECTION ( 'NONE',  ( 1.000000000000000000, 0.000000000000000000, 0.000000000000000000 ) ) ;
#69 = DOCUMENT_TYPE ( 'geometry' ) ;
#70 = SHAPE_REPRESENTATION ( 'Top_Enclosure', ( #100 ), #76 ) ;
#71 = PRODUCT_CONTEXT ( 'NONE', #119, 'mechanical' ) ;
#72 = APPLICATION_CONTEXT ( 'automotive_design' ) ;
#73 =( NAMED_UNIT ( * ) SI_UNIT ( $, .STERADIAN. ) SOLID_ANGLE_UNIT ( ) );
#74 = PROPERTY_DEFINITION ('external definition','', #112 ) ;
#75 = APPLICATION_CONTEXT ( 'automotive_design' ) ;
#76 =( GEOMETRIC_REPRESENTATION_CONTEXT ( 3 ) GLOBAL_UNCERTAINTY_ASSIGNED_CONTEXT ( ( #38 ) ) GLOBAL_UNIT_ASSIGNED_CONTEXT ( ( #56, #90, #114 ) ) REPRESENTATION_CONTEXT ( 'NONE', 'WORKASPACE' ) );
#77 = DIRECTION ( 'NONE',  ( 0.000000000000000000, 0.000000000000000000, 1.000000000000000000 ) ) ;
#78 = UNCERTAINTY_MEASURE_WITH_UNIT (LENGTH_MEASURE( 1.000000000000000082E-05 ), #57, 'distance_accuracy_value', 'NONE');
#79 = APPLICATION_PROTOCOL_DEFINITION ( 'draft international standard', 'automotive_design', 1998, #113 ) ;
#80 = CONTEXT_DEPENDENT_SHAPE_REPRESENTATION ( #106, #83 ) ;
#81 =( GEOMETRIC_REPRESENTATION_CONTEXT ( 3 ) GLOBAL_UNCERTAINTY_ASSIGNED_CONTEXT ( ( #78 ) ) GLOBAL_UNIT_ASSIGNED_CONTEXT ( ( #57, #1, #73 ) ) REPRESENTATION_CONTEXT ( 'NONE', 'WORKASPACE' ) );
#82 = PRODUCT_RELATED_PRODUCT_CATEGORY ( 'part', '', ( #134 ) ) ;
#83 = PRODUCT_DEFINITION_SHAPE ( 'NONE', 'NONE',  #149 ) ;
#84 = APPLICATION_PROTOCOL_DEFINITION ( 'draft international standard', 'automotive_design', 1998, #119 ) ;
#85 = SHAPE_REPRESENTATION ( 'Shadowfang_Enclosure_V1', ( #26, #143, #67, #138 ), #81 ) ;
#86 = IDENTIFICATION_ROLE ( 'external document id and location', $) ;
#87 = OBJECT_ROLE ('mandatory',$ ) ;
#88 = PROPERTY_DEFINITION ('external definition','', #133 ) ;
#89 = CARTESIAN_POINT ( 'NONE',  ( 0.000000000000000000, 0.000000000000000000, 0.000000000000000000 ) ) ;
#90 =( NAMED_UNIT ( * ) PLANE_ANGLE_UNIT ( ) SI_UNIT ( $, .RADIAN. ) );
#91 = PRODUCT_CONTEXT ( 'NONE', #42, 'mechanical' ) ;
#92 = DIRECTION ( 'NONE',  ( 1.000000000000000000, 0.000000000000000000, 0.000000000000000000 ) ) ;
#93 = APPLIED_EXTERNAL_IDENTIFICATION_ASSIGNMENT ( 'Top_Enclosure.STEP' , #86, #14,( #112) ) ;
#94 = CARTESIAN_POINT ( 'NONE',  ( 0.000000000000000000, 0.000000000000000000, 0.000000000000000000 ) ) ;
#95 = APPLICATION_PROTOCOL_DEFINITION ( 'draft international standard', 'automotive_design', 1998, #47 ) ;
#96 = SHAPE_DEFINITION_REPRESENTATION ( #6, #12 ) ;
#97 = PRODUCT_DEFINITION_SHAPE ( 'NONE', 'NONE',  #150 ) ;
#98 = PROPERTY_DEFINITION_REPRESENTATION ( #88, #12 ) ;
#99 = APPLIED_DOCUMENT_REFERENCE ( #51,'',( #137) ) ;
#100 = AXIS2_PLACEMENT_3D ( 'NONE', #94, #37, #29 ) ;
#101 = UNCERTAINTY_MEASURE_WITH_UNIT (LENGTH_MEASURE( 1.000000000000000082E-05 ), #53, 'distance_accuracy_value', 'NONE');
#102 =( NAMED_UNIT ( * ) PLANE_ANGLE_UNIT ( ) SI_UNIT ( $, .RADIAN. ) );
#103 = DIRECTION ( 'NONE',  ( 0.000000000000000000, 0.000000000000000000, 1.000000000000000000 ) ) ;
#104 = PRODUCT_RELATED_PRODUCT_CATEGORY ( 'part', '', ( #41 ) ) ;
#105 = DIRECTION ( 'NONE',  ( 0.8161492352700258079, 0.3335415717744854569, -0.4718585017421622618 ) ) ;
#106 =( REPRESENTATION_RELATIONSHIP ('NONE','NONE', #85, #70 ) REPRESENTATION_RELATIONSHIP_WITH_TRANSFORMATION ( #58 )SHAPE_REPRESENTATION_RELATIONSHIP( ) );
#107 = EXTERNAL_SOURCE (IDENTIFIER('') ) ;
#108 = ROLE_ASSOCIATION ( #15, #99 ) ;
#109 = PRODUCT_DEFINITION_FORMATION_WITH_SPECIFIED_SOURCE ( 'Symmetric', '', #41, .NOT_KNOWN. ) ;
#110 = SHAPE_DEFINITION_REPRESENTATION ( #19, #52 ) ;
#111 = PROPERTY_DEFINITION ('document property','', #112 ) ;
#112 = DOCUMENT_FILE ( 'Top_Enclosure.STEP' , '', '', #54, '' ,$ ) ;
#113 = APPLICATION_CONTEXT ( 'automotive_design' ) ;
#114 =( NAMED_UNIT ( * ) SI_UNIT ( $, .STERADIAN. ) SOLID_ANGLE_UNIT ( ) );
#115 =( NAMED_UNIT ( * ) SI_UNIT ( $, .STERADIAN. ) SOLID_ANGLE_UNIT ( ) );
#116 = PRODUCT_CONTEXT ( 'NONE', #75, 'mechanical' ) ;
#117 = CONTEXT_DEPENDENT_SHAPE_REPRESENTATION ( #136, #97 ) ;
#118 = APPLICATION_PROTOCOL_DEFINITION ( 'draft international standard', 'automotive_design', 1998, #75 ) ;
#119 = APPLICATION_CONTEXT ( 'automotive_design' ) ;
#120 = DIRECTION ( 'NONE',  ( 0.000000000000000000, 0.000000000000000000, 1.000000000000000000 ) ) ;
#121 = PRODUCT_DEFINITION_SHAPE ( 'NONE', 'NONE',  #40 ) ;
#122 = IDENTIFICATION_ROLE ( 'external document id and location', $) ;
#123 = PRODUCT_DEFINITION_FORMATION_WITH_SPECIFIED_SOURCE ( 'Symmetric', '', #21, .NOT_KNOWN. ) ;
#124 = DIRECTION ( 'NONE',  ( 1.000000000000000000, 0.000000000000000000, 0.000000000000000000 ) ) ;
#125 = PRODUCT_DEFINITION_CONTEXT ( 'detailed design', #113, 'design' ) ;
#126 = PRODUCT_DEFINITION_FORMATION_WITH_SPECIFIED_SOURCE ( 'Symmetric', '', #62, .NOT_KNOWN. ) ;
#127 = CARTESIAN_POINT ( 'NONE',  ( 0.000000000000000000, 0.000000000000000000, 0.000000000000000000 ) ) ;
#128 = APPLICATION_CONTEXT ( 'automotive_design' ) ;
#129 = UNCERTAINTY_MEASURE_WITH_UNIT (LENGTH_MEASURE( 1.000000000000000082E-05 ), #55, 'distance_accuracy_value', 'NONE');
#130 = ROLE_ASSOCIATION ( #87, #5 ) ;
#131 = CONTEXT_DEPENDENT_SHAPE_REPRESENTATION ( #28, #50 ) ;
#132 = EXTERNAL_SOURCE (IDENTIFIER('') ) ;
#133 = DOCUMENT_FILE ( 'Bottom_Enclosure.STEP' , '', '', #69, '' ,$ ) ;
#134 = PRODUCT ( 'Top_Enclosure', 'Top_Enclosure', '', ( #116 ) ) ;
#135 =( GEOMETRIC_REPRESENTATION_CONTEXT ( 3 ) GLOBAL_UNCERTAINTY_ASSIGNED_CONTEXT ( ( #101 ) ) GLOBAL_UNIT_ASSIGNED_CONTEXT ( ( #53, #102, #44 ) ) REPRESENTATION_CONTEXT ( 'NONE', 'WORKASPACE' ) );
#136 =( REPRESENTATION_RELATIONSHIP ('NONE','NONE', #85, #12 ) REPRESENTATION_RELATIONSHIP_WITH_TRANSFORMATION ( #59 )SHAPE_REPRESENTATION_RELATIONSHIP( ) );
#137 = PRODUCT_DEFINITION ( 'General', '', #109, #25 ) ;
#138 = AXIS2_PLACEMENT_3D ( 'NONE', #7, #30, #105 ) ;
#139 = DIRECTION ( 'NONE',  ( 0.000000000000000000, 0.000000000000000000, 1.000000000000000000 ) ) ;
#140 = APPLICATION_CONTEXT ( 'automotive_design' ) ;
#141 = APPLIED_EXTERNAL_IDENTIFICATION_ASSIGNMENT ( 'Bottom_Enclosure.STEP' , #122, #132,( #133) ) ;
#142 = SHAPE_DEFINITION_REPRESENTATION ( #121, #70 ) ;
#143 = AXIS2_PLACEMENT_3D ( 'NONE', #127, #139, #36 ) ;
#144 = PROPERTY_DEFINITION_REPRESENTATION ( #74, #70 ) ;
#145 = PROPERTY_DEFINITION ('document property','', #133 ) ;
#146 = APPLIED_DOCUMENT_REFERENCE ( #133,'',( #49) ) ;
#147 = PROPERTY_DEFINITION ('document property','', #51 ) ;
#148 =( GEOMETRIC_REPRESENTATION_CONTEXT ( 3 ) GLOBAL_UNCERTAINTY_ASSIGNED_CONTEXT ( ( #129 ) ) GLOBAL_UNIT_ASSIGNED_CONTEXT ( ( #55, #24, #115 ) ) REPRESENTATION_CONTEXT ( 'NONE', 'WORKASPACE' ) );
#149 = NEXT_ASSEMBLY_USAGE_OCCURRENCE ( 'NAUO1', ' ', ' ', #63, #40, $ ) ;
#150 = NEXT_ASSEMBLY_USAGE_OCCURRENCE ( 'NAUO2', ' ', ' ', #63, #49, $ ) ;
#151 = NEXT_ASSEMBLY_USAGE_OCCURRENCE ( 'NAUO3', ' ', ' ', #63, #137, $ ) ;
ENDSEC;
END-ISO-10303-21;
