%TF.GenerationSoftware,Altium Limited,Altium Designer,25.8.1 (18)*%
G04 Layer_Color=0*
%FSLAX45Y45*%
%MOMM*%
%TF.SameCoordinates,2F9F4403-5F6B-477A-BA1C-BDAF6AABD9DE*%
%TF.FilePolarity,Positive*%
%TF.FileFunction,Plated,1,2,PTH,Drill*%
%TF.Part,Single*%
G01*
G75*
%TA.AperFunction,ComponentDrill*%
%ADD54C,1.02000*%
%ADD55O,0.60000X1.80000*%
%ADD56O,0.60000X1.40000*%
%TA.AperFunction,ViaDrill,NotFilled*%
%ADD57C,0.30480*%
%ADD58C,2.48920*%
%ADD59C,0.40640*%
D54*
X165100Y4000500D02*
D03*
Y3746500D02*
D03*
Y1460500D02*
D03*
Y1714500D02*
D03*
Y1968500D02*
D03*
Y2222500D02*
D03*
Y2476500D02*
D03*
Y2730500D02*
D03*
Y2984500D02*
D03*
Y3238500D02*
D03*
Y3492500D02*
D03*
Y698500D02*
D03*
Y952500D02*
D03*
Y1206500D02*
D03*
X2400300Y952500D02*
D03*
Y1206500D02*
D03*
Y1460500D02*
D03*
Y1968500D02*
D03*
Y2222500D02*
D03*
Y2476500D02*
D03*
Y2984500D02*
D03*
Y3238500D02*
D03*
Y3746500D02*
D03*
Y3492500D02*
D03*
Y2730500D02*
D03*
Y1714500D02*
D03*
Y4000500D02*
D03*
Y698500D02*
D03*
D55*
X850700Y227900D02*
D03*
X1714700D02*
D03*
D56*
X850700Y627900D02*
D03*
X1714700D02*
D03*
D57*
X1155700Y3873500D02*
D03*
X520700Y4635500D02*
D03*
X914400Y4343400D02*
D03*
X647700Y4546600D02*
D03*
X2081539Y4344661D02*
D03*
X1498600Y4343400D02*
D03*
X2286000D02*
D03*
X1778000D02*
D03*
X1257300Y3670300D02*
D03*
X1155700Y3771900D02*
D03*
X1892300Y2298700D02*
D03*
X1320800Y1905000D02*
D03*
X736600Y1968500D02*
D03*
X914400Y3251200D02*
D03*
X406400Y1333500D02*
D03*
Y1041400D02*
D03*
X1536700Y2552700D02*
D03*
X1447800Y2743200D02*
D03*
X1379220Y3187700D02*
D03*
X1384300Y3848100D02*
D03*
X2044700Y3314700D02*
D03*
X2019300Y3784600D02*
D03*
X1892300D02*
D03*
X1079500Y2095500D02*
D03*
X2044700Y2590800D02*
D03*
X1384300Y4051300D02*
D03*
X711200Y2387600D02*
D03*
X1219200Y1092200D02*
D03*
X1231900Y2832100D02*
D03*
X1117600Y2908300D02*
D03*
X1370964Y1091611D02*
D03*
D58*
X2349500Y5346700D02*
D03*
X215900D02*
D03*
X2349500Y215900D02*
D03*
X215900D02*
D03*
D59*
X444500Y4178300D02*
D03*
X2032000Y2806700D02*
D03*
X1600200Y3225800D02*
D03*
Y533400D02*
D03*
X1206500Y2489200D02*
D03*
X993140Y2590800D02*
D03*
X1016000Y3187700D02*
D03*
X965200Y558800D02*
D03*
X406400Y3365500D02*
D03*
X1765300Y1828800D02*
D03*
Y1676400D02*
D03*
X990600Y1511300D02*
D03*
X546100Y2095500D02*
D03*
X749300Y1320800D02*
D03*
X901700Y1828800D02*
D03*
%TF.MD5,549e375eb2463812bd179c99489de2bd*%
M02*
