%TF.GenerationSoftware,Altium Limited,Altium Designer,25.8.1 (18)*%
G04 Layer_Color=8421504*
%FSLAX45Y45*%
%MOMM*%
%TF.SameCoordinates,2F9F4403-5F6B-477A-BA1C-BDAF6AABD9DE*%
%TF.FilePolarity,Positive*%
%TF.FileFunction,Paste,Top*%
%TF.Part,Single*%
G01*
G75*
%TA.AperFunction,SMDPad,CuDef*%
%ADD10R,0.80000X0.80000*%
%ADD11R,0.75000X0.80000*%
%ADD12O,0.60000X2.05000*%
%ADD13R,1.00000X1.55000*%
%ADD14R,0.90000X0.85000*%
G04:AMPARAMS|DCode=15|XSize=1.55748mm|YSize=0.74248mm|CornerRadius=0.37124mm|HoleSize=0mm|Usage=FLASHONLY|Rotation=0.000|XOffset=0mm|YOffset=0mm|HoleType=Round|Shape=RoundedRectangle|*
%AMROUNDEDRECTD15*
21,1,1.55748,0.00000,0,0,0.0*
21,1,0.81501,0.74248,0,0,0.0*
1,1,0.74247,0.40750,0.00000*
1,1,0.74247,-0.40750,0.00000*
1,1,0.74247,-0.40750,0.00000*
1,1,0.74247,0.40750,0.00000*
%
%ADD15ROUNDEDRECTD15*%
%ADD16R,1.55748X0.74248*%
%ADD17R,0.80000X0.80000*%
%ADD18R,1.50000X1.00000*%
G04:AMPARAMS|DCode=19|XSize=0.8mm|YSize=1mm|CornerRadius=0.1mm|HoleSize=0mm|Usage=FLASHONLY|Rotation=90.000|XOffset=0mm|YOffset=0mm|HoleType=Round|Shape=RoundedRectangle|*
%AMROUNDEDRECTD19*
21,1,0.80000,0.80000,0,0,90.0*
21,1,0.60000,1.00000,0,0,90.0*
1,1,0.20000,0.40000,0.30000*
1,1,0.20000,0.40000,-0.30000*
1,1,0.20000,-0.40000,-0.30000*
1,1,0.20000,-0.40000,0.30000*
%
%ADD19ROUNDEDRECTD19*%
%ADD20R,0.80000X0.75000*%
G04:AMPARAMS|DCode=21|XSize=0.8mm|YSize=1mm|CornerRadius=0.1mm|HoleSize=0mm|Usage=FLASHONLY|Rotation=180.000|XOffset=0mm|YOffset=0mm|HoleType=Round|Shape=RoundedRectangle|*
%AMROUNDEDRECTD21*
21,1,0.80000,0.80000,0,0,180.0*
21,1,0.60000,1.00000,0,0,180.0*
1,1,0.20000,-0.30000,0.40000*
1,1,0.20000,0.30000,0.40000*
1,1,0.20000,0.30000,-0.40000*
1,1,0.20000,-0.30000,-0.40000*
%
%ADD21ROUNDEDRECTD21*%
%ADD22R,1.00000X0.66000*%
%TA.AperFunction,ConnectorPad*%
%ADD23R,0.30000X1.15000*%
%ADD24R,0.60000X1.15000*%
%TA.AperFunction,SMDPad,CuDef*%
%ADD25R,1.30000X1.05000*%
%ADD26O,2.05000X0.60000*%
%ADD27R,0.85000X0.90000*%
D10*
X392500Y4546600D02*
D03*
X242500D02*
D03*
X392500Y4864100D02*
D03*
X242500D02*
D03*
X1002100Y1968500D02*
D03*
X852100D02*
D03*
D11*
X255000Y4394200D02*
D03*
X380000D02*
D03*
X255000Y4711700D02*
D03*
X380000D02*
D03*
D12*
X1202700Y3478300D02*
D03*
X1122700D02*
D03*
X1042700Y2338300D02*
D03*
X1122700D02*
D03*
X1042700Y3478300D02*
D03*
X962700D02*
D03*
Y2338300D02*
D03*
X1362700D02*
D03*
X882700D02*
D03*
X1522700Y3478300D02*
D03*
X1442700D02*
D03*
X1602700Y2338300D02*
D03*
X1362700Y3478300D02*
D03*
X1682700Y2338300D02*
D03*
X1522700D02*
D03*
X1602700Y3478300D02*
D03*
X1442700Y2338300D02*
D03*
X1282700Y3478300D02*
D03*
Y2338300D02*
D03*
X882700Y3478300D02*
D03*
X1202700Y2338300D02*
D03*
X1682700Y3478300D02*
D03*
D13*
X2293635Y5025000D02*
D03*
X1973635D02*
D03*
Y4500000D02*
D03*
X2293635D02*
D03*
X1709400Y5025000D02*
D03*
X1389400D02*
D03*
Y4500000D02*
D03*
X1709400D02*
D03*
X1125200Y5025000D02*
D03*
X805200D02*
D03*
Y4500000D02*
D03*
X1125200D02*
D03*
D14*
X1320800Y1624100D02*
D03*
Y1754100D02*
D03*
X1473200Y1624100D02*
D03*
Y1754100D02*
D03*
X1625600Y1624100D02*
D03*
Y1754100D02*
D03*
X558800Y2376400D02*
D03*
Y2246400D02*
D03*
X1473200Y2008100D02*
D03*
Y1878100D02*
D03*
X1264046Y4185715D02*
D03*
Y4055715D02*
D03*
X590946Y4055715D02*
D03*
Y4185715D02*
D03*
X1625600Y2008100D02*
D03*
Y1878100D02*
D03*
D15*
X1084437Y1181100D02*
D03*
D16*
X744363D02*
D03*
D17*
X1549400Y3887400D02*
D03*
Y4037400D02*
D03*
X1739900Y3887400D02*
D03*
Y4037400D02*
D03*
D18*
X1549400Y893300D02*
D03*
Y1113300D02*
D03*
D19*
X1358900Y1322000D02*
D03*
Y1472000D02*
D03*
D20*
X1117600Y1954800D02*
D03*
Y1829800D02*
D03*
X2019300Y3912600D02*
D03*
Y4037600D02*
D03*
Y2248900D02*
D03*
Y2373900D02*
D03*
X1371600Y851900D02*
D03*
Y976900D02*
D03*
X1892300Y4037600D02*
D03*
Y3912600D02*
D03*
X1219200Y851900D02*
D03*
Y976900D02*
D03*
D21*
X598100Y3517900D02*
D03*
X748100D02*
D03*
D22*
X1120600Y1416300D02*
D03*
Y1606300D02*
D03*
X860600Y1416300D02*
D03*
Y1606300D02*
D03*
Y1511300D02*
D03*
D23*
X1457700Y685400D02*
D03*
X1407700D02*
D03*
X1357700D02*
D03*
X1307700D02*
D03*
X1257700D02*
D03*
X1207700D02*
D03*
X1157700D02*
D03*
X1107700D02*
D03*
D24*
X1042700D02*
D03*
X1522700D02*
D03*
X962700D02*
D03*
X1602700D02*
D03*
D25*
X786700Y3925700D02*
D03*
X1016700Y4100700D02*
D03*
X786700D02*
D03*
X1016700Y3925700D02*
D03*
D26*
X712700Y2988300D02*
D03*
Y2908300D02*
D03*
Y2748300D02*
D03*
Y2668300D02*
D03*
Y3068300D02*
D03*
Y2828300D02*
D03*
Y3148300D02*
D03*
X1852700Y3228300D02*
D03*
Y2988300D02*
D03*
Y3068300D02*
D03*
Y2508300D02*
D03*
Y3148300D02*
D03*
Y2908300D02*
D03*
X712700Y2508300D02*
D03*
Y3308300D02*
D03*
X1852700Y2668300D02*
D03*
Y2828300D02*
D03*
Y3308300D02*
D03*
Y2588300D02*
D03*
X712700D02*
D03*
Y3228300D02*
D03*
X1852700Y2748300D02*
D03*
D27*
X661900Y1612900D02*
D03*
X531900D02*
D03*
%TF.MD5,7e39ac2ec63b591b9bcfed31085a6e56*%
M02*
