%TF.GenerationSoftware,Altium Limited,Altium Designer,25.8.1 (18)*%
G04 Layer_Physical_Order=2*
G04 Layer_Color=16711680*
%FSLAX45Y45*%
%MOMM*%
%TF.SameCoordinates,2F9F4403-5F6B-477A-BA1C-BDAF6AABD9DE*%
%TF.FilePolarity,Positive*%
%TF.FileFunction,Copper,L2,Bot,Signal*%
%TF.Part,Single*%
G01*
G75*
%TA.AperFunction,Conductor*%
%ADD28C,0.25400*%
%TA.AperFunction,ComponentPad*%
%ADD30C,1.57000*%
%ADD31R,1.57000X1.57000*%
G04:AMPARAMS|DCode=32|XSize=1mm|YSize=2.2mm|CornerRadius=0.5mm|HoleSize=0mm|Usage=FLASHONLY|Rotation=0.000|XOffset=0mm|YOffset=0mm|HoleType=Round|Shape=RoundedRectangle|*
%AMROUNDEDRECTD32*
21,1,1.00000,1.20000,0,0,0.0*
21,1,0.00000,2.20000,0,0,0.0*
1,1,1.00000,0.00000,-0.60000*
1,1,1.00000,0.00000,-0.60000*
1,1,1.00000,0.00000,0.60000*
1,1,1.00000,0.00000,0.60000*
%
%ADD32ROUNDEDRECTD32*%
G04:AMPARAMS|DCode=33|XSize=1mm|YSize=1.8mm|CornerRadius=0.5mm|HoleSize=0mm|Usage=FLASHONLY|Rotation=0.000|XOffset=0mm|YOffset=0mm|HoleType=Round|Shape=RoundedRectangle|*
%AMROUNDEDRECTD33*
21,1,1.00000,0.80000,0,0,0.0*
21,1,0.00000,1.80000,0,0,0.0*
1,1,1.00000,0.00000,-0.40000*
1,1,1.00000,0.00000,-0.40000*
1,1,1.00000,0.00000,0.40000*
1,1,1.00000,0.00000,0.40000*
%
%ADD33ROUNDEDRECTD33*%
%TA.AperFunction,ViaPad*%
%ADD34C,0.60960*%
%ADD35C,4.06400*%
%ADD36C,0.81280*%
G36*
X2204946Y5525047D02*
X2203776Y5524265D01*
X2171935Y5492424D01*
X2146917Y5454983D01*
X2129685Y5413380D01*
X2120900Y5369215D01*
Y5324185D01*
X2129685Y5280020D01*
X2146917Y5238417D01*
X2171935Y5200976D01*
X2203776Y5169135D01*
X2241217Y5144117D01*
X2282820Y5126885D01*
X2326985Y5118100D01*
X2372015D01*
X2416180Y5126885D01*
X2457783Y5144117D01*
X2495224Y5169135D01*
X2527065Y5200976D01*
X2527847Y5202146D01*
X2540000Y5198459D01*
Y364141D01*
X2527847Y360454D01*
X2527065Y361624D01*
X2495224Y393465D01*
X2457783Y418483D01*
X2416180Y435715D01*
X2372015Y444500D01*
X2326985D01*
X2282820Y435715D01*
X2241217Y418483D01*
X2203776Y393465D01*
X2171935Y361624D01*
X2146917Y324183D01*
X2129685Y282580D01*
X2120900Y238415D01*
Y193385D01*
X2129685Y149220D01*
X2146917Y107617D01*
X2171935Y70176D01*
X2203776Y38335D01*
X2204946Y37553D01*
X2201259Y25400D01*
X364141D01*
X360454Y37553D01*
X361624Y38335D01*
X393465Y70176D01*
X418483Y107617D01*
X435715Y149220D01*
X444500Y193385D01*
Y238415D01*
X435715Y282580D01*
X418483Y324183D01*
X393465Y361624D01*
X361624Y393465D01*
X324183Y418483D01*
X282580Y435715D01*
X238415Y444500D01*
X193385D01*
X149220Y435715D01*
X107617Y418483D01*
X70176Y393465D01*
X38335Y361624D01*
X37553Y360454D01*
X25400Y364141D01*
Y5198459D01*
X37553Y5202146D01*
X38335Y5200976D01*
X70176Y5169135D01*
X107617Y5144117D01*
X149220Y5126885D01*
X193385Y5118100D01*
X238415D01*
X282580Y5126885D01*
X324183Y5144117D01*
X361624Y5169135D01*
X393465Y5200976D01*
X418483Y5238417D01*
X435715Y5280020D01*
X444500Y5324185D01*
Y5369215D01*
X435715Y5413380D01*
X418483Y5454983D01*
X393465Y5492424D01*
X361624Y5524265D01*
X360454Y5525047D01*
X364141Y5537200D01*
X2201259D01*
X2204946Y5525047D01*
D02*
G37*
%LPC*%
G36*
X2094239Y4399884D02*
Y4357361D01*
X2136763D01*
X2128912Y4376314D01*
X2113193Y4392033D01*
X2094239Y4399884D01*
D02*
G37*
G36*
X2068839D02*
X2049886Y4392033D01*
X2034167Y4376314D01*
X2026316Y4357361D01*
X2068839D01*
Y4399884D01*
D02*
G37*
G36*
X1511300Y4398624D02*
Y4356100D01*
X1553824D01*
X1545973Y4375053D01*
X1530253Y4390773D01*
X1511300Y4398624D01*
D02*
G37*
G36*
X1485900D02*
X1466947Y4390773D01*
X1451227Y4375053D01*
X1443376Y4356100D01*
X1485900D01*
Y4398624D01*
D02*
G37*
G36*
X927100D02*
Y4356100D01*
X969624D01*
X961773Y4375053D01*
X946053Y4390773D01*
X927100Y4398624D01*
D02*
G37*
G36*
X2136763Y4331961D02*
X2094239D01*
Y4289437D01*
X2113193Y4297288D01*
X2128912Y4313007D01*
X2136763Y4331961D01*
D02*
G37*
G36*
X2068839D02*
X2026316D01*
X2034167Y4313007D01*
X2049886Y4297288D01*
X2068839Y4289437D01*
Y4331961D01*
D02*
G37*
G36*
X1553824Y4330700D02*
X1511300D01*
Y4288176D01*
X1530253Y4296027D01*
X1545973Y4311747D01*
X1553824Y4330700D01*
D02*
G37*
G36*
X1485900D02*
X1443376D01*
X1451227Y4311747D01*
X1466947Y4296027D01*
X1485900Y4288176D01*
Y4330700D01*
D02*
G37*
G36*
X531815Y4691380D02*
X509585D01*
X489047Y4682873D01*
X473327Y4667153D01*
X464820Y4646615D01*
Y4624385D01*
X473327Y4603847D01*
X481853Y4595320D01*
Y4376688D01*
X484811Y4361823D01*
X493231Y4349220D01*
X494553Y4347898D01*
Y4238034D01*
X481853Y4232991D01*
X469990Y4239840D01*
X457200Y4243267D01*
Y4178300D01*
Y4113333D01*
X459707Y4114005D01*
X466281Y4102618D01*
X206331Y3842668D01*
X205204Y3843319D01*
X178779Y3850400D01*
X151421D01*
X124996Y3843319D01*
X101304Y3829641D01*
X81959Y3810296D01*
X68281Y3786604D01*
X61200Y3760179D01*
Y3732821D01*
X68281Y3706396D01*
X81959Y3682704D01*
X101304Y3663359D01*
X124996Y3649681D01*
X151421Y3642600D01*
X178779D01*
X205204Y3649681D01*
X228896Y3663359D01*
X248241Y3682704D01*
X261919Y3706396D01*
X269000Y3732821D01*
Y3760179D01*
X261919Y3786604D01*
X261268Y3787731D01*
X560869Y4087331D01*
X569289Y4099934D01*
X572247Y4114800D01*
Y4363988D01*
X569289Y4378854D01*
X560869Y4391457D01*
X559547Y4392779D01*
Y4595320D01*
X568073Y4603847D01*
X576580Y4624385D01*
Y4646615D01*
X568073Y4667153D01*
X552353Y4682873D01*
X531815Y4691380D01*
D02*
G37*
G36*
X431800Y4243267D02*
X419010Y4239840D01*
X403950Y4231145D01*
X391655Y4218850D01*
X382960Y4203790D01*
X379533Y4191000D01*
X431800D01*
Y4243267D01*
D02*
G37*
G36*
Y4165600D02*
X379533D01*
X382960Y4152810D01*
X391655Y4137750D01*
X403950Y4125455D01*
X419010Y4116760D01*
X431800Y4113333D01*
Y4165600D01*
D02*
G37*
G36*
X1397000Y4106524D02*
Y4064000D01*
X1439524D01*
X1431673Y4082953D01*
X1415953Y4098673D01*
X1397000Y4106524D01*
D02*
G37*
G36*
X1371600D02*
X1352647Y4098673D01*
X1336927Y4082953D01*
X1329076Y4064000D01*
X1371600D01*
Y4106524D01*
D02*
G37*
G36*
X2297115Y4399280D02*
X2274885D01*
X2254347Y4390773D01*
X2238627Y4375053D01*
X2230120Y4354515D01*
Y4332285D01*
X2238627Y4311747D01*
X2247153Y4303220D01*
Y4023874D01*
X2245967Y4011830D01*
X2232740Y4007097D01*
X1875772Y4364065D01*
X1863170Y4372486D01*
X1848304Y4375443D01*
X1824984D01*
X1809653Y4390773D01*
X1789115Y4399280D01*
X1766885D01*
X1746347Y4390773D01*
X1730627Y4375053D01*
X1722120Y4354515D01*
Y4332285D01*
X1730627Y4311747D01*
X1746347Y4296027D01*
X1766885Y4287520D01*
X1789115D01*
X1809653Y4296027D01*
X1811376Y4297750D01*
X1832213D01*
X2170953Y3959009D01*
Y3683000D01*
X2173911Y3668134D01*
X2182331Y3655531D01*
X2304132Y3533731D01*
X2303481Y3532604D01*
X2296400Y3506179D01*
Y3478821D01*
X2303481Y3452396D01*
X2317159Y3428704D01*
X2336504Y3409359D01*
X2360196Y3395681D01*
X2386621Y3388600D01*
X2413979D01*
X2440404Y3395681D01*
X2464096Y3409359D01*
X2483441Y3428704D01*
X2497119Y3452396D01*
X2504200Y3478821D01*
Y3506179D01*
X2497119Y3532604D01*
X2483441Y3556296D01*
X2464096Y3575641D01*
X2440404Y3589319D01*
X2413979Y3596400D01*
X2386621D01*
X2360196Y3589319D01*
X2359069Y3588668D01*
X2248647Y3699091D01*
Y3825826D01*
X2250233Y3827031D01*
X2261347Y3830516D01*
X2265970Y3825893D01*
X2265970Y3825893D01*
X2265971Y3825892D01*
X2304132Y3787731D01*
X2303481Y3786604D01*
X2296400Y3760179D01*
Y3732821D01*
X2303481Y3706396D01*
X2317159Y3682704D01*
X2336504Y3663359D01*
X2360196Y3649681D01*
X2386621Y3642600D01*
X2413979D01*
X2440404Y3649681D01*
X2464096Y3663359D01*
X2483441Y3682704D01*
X2497119Y3706396D01*
X2504200Y3732821D01*
Y3760179D01*
X2497119Y3786604D01*
X2483441Y3810296D01*
X2464096Y3829641D01*
X2440404Y3843319D01*
X2413979Y3850400D01*
X2386621D01*
X2360196Y3843319D01*
X2359069Y3842668D01*
X2324581Y3877156D01*
X2323983Y3913230D01*
X2335676Y3918187D01*
X2336504Y3917359D01*
X2360196Y3903681D01*
X2386621Y3896600D01*
X2413979D01*
X2440404Y3903681D01*
X2464096Y3917359D01*
X2483441Y3936704D01*
X2497119Y3960396D01*
X2504200Y3986821D01*
Y4014179D01*
X2497119Y4040604D01*
X2483441Y4064296D01*
X2464096Y4083641D01*
X2440404Y4097319D01*
X2413979Y4104400D01*
X2386621D01*
X2360196Y4097319D01*
X2337547Y4084243D01*
X2330173Y4086263D01*
X2324847Y4088470D01*
Y4303220D01*
X2333373Y4311747D01*
X2341880Y4332285D01*
Y4354515D01*
X2333373Y4375053D01*
X2317653Y4390773D01*
X2297115Y4399280D01*
D02*
G37*
G36*
X1439524Y4038600D02*
X1397000D01*
Y3996076D01*
X1415953Y4003927D01*
X1431673Y4019647D01*
X1439524Y4038600D01*
D02*
G37*
G36*
X1371600D02*
X1329076D01*
X1336927Y4019647D01*
X1352647Y4003927D01*
X1371600Y3996076D01*
Y4038600D01*
D02*
G37*
G36*
X178779Y4104400D02*
X151421D01*
X124996Y4097319D01*
X101304Y4083641D01*
X81959Y4064296D01*
X68281Y4040604D01*
X61200Y4014179D01*
Y3986821D01*
X68281Y3960396D01*
X81959Y3936704D01*
X101304Y3917359D01*
X124996Y3903681D01*
X151421Y3896600D01*
X178779D01*
X205204Y3903681D01*
X228896Y3917359D01*
X248241Y3936704D01*
X261919Y3960396D01*
X269000Y3986821D01*
Y4014179D01*
X261919Y4040604D01*
X248241Y4064296D01*
X228896Y4083641D01*
X205204Y4097319D01*
X178779Y4104400D01*
D02*
G37*
G36*
Y3596400D02*
X151421D01*
X124996Y3589319D01*
X101304Y3575641D01*
X81959Y3556296D01*
X68281Y3532604D01*
X61200Y3506179D01*
Y3478821D01*
X68281Y3452396D01*
X81959Y3428704D01*
X101304Y3409359D01*
X124996Y3395681D01*
X151421Y3388600D01*
X178779D01*
X205204Y3395681D01*
X228896Y3409359D01*
X248241Y3428704D01*
X261919Y3452396D01*
X269000Y3478821D01*
Y3506179D01*
X261919Y3532604D01*
X248241Y3556296D01*
X228896Y3575641D01*
X205204Y3589319D01*
X178779Y3596400D01*
D02*
G37*
G36*
X419100Y3430467D02*
Y3378200D01*
X471367D01*
X467940Y3390990D01*
X459245Y3406050D01*
X446950Y3418345D01*
X431890Y3427040D01*
X419100Y3430467D01*
D02*
G37*
G36*
X393700D02*
X380910Y3427040D01*
X365850Y3418345D01*
X353555Y3406050D01*
X344860Y3390990D01*
X341433Y3378200D01*
X393700D01*
Y3430467D01*
D02*
G37*
G36*
X471367Y3352800D02*
X419100D01*
Y3300533D01*
X431890Y3303960D01*
X446950Y3312655D01*
X459245Y3324950D01*
X467940Y3340010D01*
X471367Y3352800D01*
D02*
G37*
G36*
X393700D02*
X341433D01*
X344860Y3340010D01*
X353555Y3324950D01*
X365850Y3312655D01*
X380910Y3303960D01*
X393700Y3300533D01*
Y3352800D01*
D02*
G37*
G36*
X2030415Y3840480D02*
X2008185D01*
X1987647Y3831973D01*
X1971927Y3816253D01*
X1963420Y3795715D01*
Y3773485D01*
X1971927Y3752947D01*
X1980453Y3744420D01*
Y3721100D01*
X1983411Y3706234D01*
X1991831Y3693631D01*
X2005853Y3679609D01*
Y3354880D01*
X1997327Y3346353D01*
X1988820Y3325815D01*
Y3303585D01*
X1997327Y3283047D01*
X2013047Y3267327D01*
X2033585Y3258820D01*
X2055815D01*
X2076353Y3267327D01*
X2092073Y3283047D01*
X2100580Y3303585D01*
Y3325815D01*
X2092073Y3346353D01*
X2083547Y3354880D01*
Y3695700D01*
X2080589Y3710566D01*
X2072169Y3723169D01*
X2062015Y3733322D01*
Y3748288D01*
X2066673Y3752947D01*
X2075180Y3773485D01*
Y3795715D01*
X2066673Y3816253D01*
X2050953Y3831973D01*
X2030415Y3840480D01*
D02*
G37*
G36*
X1612900Y3290767D02*
Y3238500D01*
X1665167D01*
X1661740Y3251290D01*
X1653045Y3266350D01*
X1640750Y3278645D01*
X1625690Y3287340D01*
X1612900Y3290767D01*
D02*
G37*
G36*
X1587500D02*
X1574710Y3287340D01*
X1559650Y3278645D01*
X1547355Y3266350D01*
X1538660Y3251290D01*
X1535233Y3238500D01*
X1587500D01*
Y3290767D01*
D02*
G37*
G36*
X1665167Y3213100D02*
X1612900D01*
Y3160833D01*
X1625690Y3164260D01*
X1640750Y3172955D01*
X1653045Y3185250D01*
X1661740Y3200310D01*
X1665167Y3213100D01*
D02*
G37*
G36*
X1587500D02*
X1535233D01*
X1538660Y3200310D01*
X1547355Y3185250D01*
X1559650Y3172955D01*
X1574710Y3164260D01*
X1587500Y3160833D01*
Y3213100D01*
D02*
G37*
G36*
X2413979Y3342400D02*
X2386621D01*
X2360196Y3335319D01*
X2336504Y3321641D01*
X2317159Y3302296D01*
X2303481Y3278604D01*
X2296400Y3252179D01*
Y3224821D01*
X2303481Y3198396D01*
X2317159Y3174704D01*
X2336504Y3155359D01*
X2360196Y3141681D01*
X2386621Y3134600D01*
X2413979D01*
X2440404Y3141681D01*
X2464096Y3155359D01*
X2483441Y3174704D01*
X2497119Y3198396D01*
X2504200Y3224821D01*
Y3252179D01*
X2497119Y3278604D01*
X2483441Y3302296D01*
X2464096Y3321641D01*
X2440404Y3335319D01*
X2413979Y3342400D01*
D02*
G37*
G36*
X178779D02*
X151421D01*
X124996Y3335319D01*
X101304Y3321641D01*
X81959Y3302296D01*
X68281Y3278604D01*
X61200Y3252179D01*
Y3224821D01*
X68281Y3198396D01*
X81959Y3174704D01*
X101304Y3155359D01*
X124996Y3141681D01*
X151421Y3134600D01*
X178779D01*
X205204Y3141681D01*
X228896Y3155359D01*
X248241Y3174704D01*
X261919Y3198396D01*
X269000Y3224821D01*
Y3252179D01*
X261919Y3278604D01*
X248241Y3302296D01*
X228896Y3321641D01*
X205204Y3335319D01*
X178779Y3342400D01*
D02*
G37*
G36*
X658815Y4602480D02*
X636585D01*
X616047Y4593973D01*
X600327Y4578253D01*
X591820Y4557715D01*
Y4535485D01*
X600327Y4514947D01*
X609320Y4505954D01*
Y4478020D01*
X612277Y4463154D01*
X620698Y4450551D01*
X1134583Y3936667D01*
X1132105Y3924211D01*
X1124047Y3920873D01*
X1108327Y3905153D01*
X1100476Y3886200D01*
X1155700D01*
Y3860800D01*
X1100476D01*
X1108327Y3841847D01*
X1119177Y3830997D01*
X1122623Y3822700D01*
X1119177Y3814403D01*
X1108327Y3803553D01*
X1099820Y3783015D01*
Y3760785D01*
X1108327Y3740247D01*
X1111462Y3737112D01*
X1090131Y3715781D01*
X1081711Y3703179D01*
X1078753Y3688313D01*
Y3235436D01*
X1077676Y3234654D01*
X1066053Y3231041D01*
X1056550Y3240545D01*
X1041490Y3249240D01*
X1028700Y3252667D01*
Y3187700D01*
Y3122733D01*
X1041490Y3126160D01*
X1056550Y3134855D01*
X1066053Y3144359D01*
X1077676Y3140746D01*
X1078753Y3139964D01*
Y2948480D01*
X1070227Y2939953D01*
X1061720Y2919415D01*
Y2897185D01*
X1070227Y2876647D01*
X1085947Y2860927D01*
X1106485Y2852420D01*
X1128715D01*
X1149253Y2860927D01*
X1164973Y2876647D01*
X1173480Y2897185D01*
Y2919415D01*
X1164973Y2939953D01*
X1156447Y2948480D01*
Y3672222D01*
X1182819Y3698595D01*
X1191240Y3711197D01*
X1194197Y3726063D01*
Y3731371D01*
X1203073Y3740247D01*
X1211580Y3760785D01*
Y3783015D01*
X1203073Y3803553D01*
X1192223Y3814403D01*
X1188777Y3822700D01*
X1192223Y3830997D01*
X1203073Y3841847D01*
X1206411Y3849905D01*
X1218867Y3852383D01*
X1250618Y3820631D01*
X1263221Y3812211D01*
X1278087Y3809253D01*
X1342913D01*
Y3230420D01*
X1331847Y3219353D01*
X1323340Y3198815D01*
Y3176585D01*
X1331847Y3156047D01*
X1340373Y3147520D01*
Y2710180D01*
X1343331Y2695314D01*
X1351751Y2682711D01*
X1387311Y2647151D01*
X1399914Y2638731D01*
X1414780Y2635773D01*
X1462189D01*
X1493716Y2604247D01*
X1488456Y2591547D01*
X1438491D01*
X1424469Y2605569D01*
X1411866Y2613989D01*
X1397000Y2616947D01*
X1117600D01*
X1102734Y2613989D01*
X1090131Y2605569D01*
X1071880Y2587317D01*
X1059180Y2592578D01*
Y2599494D01*
X1054680Y2616290D01*
X1045985Y2631350D01*
X1033690Y2643645D01*
X1018630Y2652340D01*
X1005840Y2655767D01*
Y2590800D01*
X980440D01*
Y2655767D01*
X967650Y2652340D01*
X953247Y2644024D01*
X946532Y2645716D01*
X940547Y2648195D01*
Y3165068D01*
X953247Y3166740D01*
X954460Y3162210D01*
X963155Y3147150D01*
X975450Y3134855D01*
X990510Y3126160D01*
X1003300Y3122733D01*
Y3187700D01*
Y3252667D01*
X990510Y3249240D01*
X982980Y3244892D01*
X970280Y3252225D01*
Y3262315D01*
X961773Y3282853D01*
X946053Y3298573D01*
X925515Y3307080D01*
X903285D01*
X882747Y3298573D01*
X867027Y3282853D01*
X858520Y3262315D01*
Y3240085D01*
X862954Y3229381D01*
X862853Y3228877D01*
Y2156445D01*
X850153Y2151184D01*
X750047Y2251291D01*
Y2347420D01*
X758573Y2355947D01*
X767080Y2376485D01*
Y2398715D01*
X758573Y2419253D01*
X742853Y2434973D01*
X722315Y2443480D01*
X700085D01*
X679547Y2434973D01*
X663827Y2419253D01*
X655320Y2398715D01*
Y2376485D01*
X663827Y2355947D01*
X672353Y2347420D01*
Y2235200D01*
X675311Y2220334D01*
X683731Y2207731D01*
X789427Y2102036D01*
Y2012660D01*
X776727Y2007400D01*
X768253Y2015873D01*
X749300Y2023724D01*
Y1968500D01*
Y1913276D01*
X768253Y1921127D01*
X776727Y1929600D01*
X789427Y1924340D01*
Y1876827D01*
X792384Y1861961D01*
X800805Y1849358D01*
X837711Y1812452D01*
X840160Y1803310D01*
X848855Y1788250D01*
X861150Y1775955D01*
X876210Y1767260D01*
X893006Y1762760D01*
X910394D01*
X927190Y1767260D01*
X942250Y1775955D01*
X954545Y1788250D01*
X963240Y1803310D01*
X965689Y1812452D01*
X992669Y1839431D01*
X1001089Y1852034D01*
X1004047Y1866900D01*
Y2409609D01*
X1133691Y2539253D01*
X1146766D01*
X1151809Y2526553D01*
X1144960Y2514690D01*
X1141533Y2501900D01*
X1271467D01*
X1268040Y2514690D01*
X1261191Y2526553D01*
X1266234Y2539253D01*
X1380909D01*
X1394931Y2525231D01*
X1407534Y2516811D01*
X1422400Y2513853D01*
X1496520D01*
X1505047Y2505327D01*
X1525585Y2496820D01*
X1547815D01*
X1568353Y2505327D01*
X1576880Y2513853D01*
X1622209D01*
X1836420Y2299643D01*
Y2287585D01*
X1844927Y2267047D01*
X1860647Y2251327D01*
X1881185Y2242820D01*
X1903415D01*
X1923953Y2251327D01*
X1939673Y2267047D01*
X1948180Y2287585D01*
Y2309815D01*
X1939673Y2330353D01*
X1923953Y2346073D01*
X1903415Y2354580D01*
X1891357D01*
X1665769Y2580169D01*
X1653166Y2588589D01*
X1638300Y2591547D01*
X1576880D01*
X1575547Y2592880D01*
Y2616200D01*
X1572589Y2631066D01*
X1564169Y2643669D01*
X1505749Y2702089D01*
X1495425Y2708986D01*
X1495173Y2711547D01*
X1503680Y2732085D01*
Y2754315D01*
X1495173Y2774853D01*
X1486647Y2783380D01*
Y3311309D01*
X1904511Y3729174D01*
X1923953Y3737227D01*
X1939673Y3752947D01*
X1948180Y3773485D01*
Y3795715D01*
X1939673Y3816253D01*
X1923953Y3831973D01*
X1903415Y3840480D01*
X1881185D01*
X1860647Y3831973D01*
X1844927Y3816253D01*
X1836420Y3795715D01*
Y3773485D01*
X1837160Y3771698D01*
X1432340Y3366877D01*
X1420607Y3371737D01*
Y3805380D01*
X1431673Y3816447D01*
X1440180Y3836985D01*
Y3859215D01*
X1431673Y3879753D01*
X1415953Y3895473D01*
X1395415Y3903980D01*
X1373185D01*
X1352647Y3895473D01*
X1344120Y3886947D01*
X1294177D01*
X906304Y4274820D01*
X911564Y4287520D01*
X925515D01*
X946053Y4296027D01*
X961773Y4311747D01*
X969624Y4330700D01*
X914400D01*
Y4343400D01*
X901700D01*
Y4398624D01*
X882747Y4390773D01*
X867027Y4375053D01*
X858520Y4354515D01*
Y4340564D01*
X845820Y4335304D01*
X687013Y4494111D01*
Y4506887D01*
X695073Y4514947D01*
X703580Y4535485D01*
Y4557715D01*
X695073Y4578253D01*
X679353Y4593973D01*
X658815Y4602480D01*
D02*
G37*
G36*
X2413979Y3088400D02*
X2386621D01*
X2360196Y3081319D01*
X2336504Y3067641D01*
X2317159Y3048296D01*
X2303481Y3024604D01*
X2296400Y2998179D01*
Y2970821D01*
X2303481Y2944396D01*
X2317159Y2920704D01*
X2336504Y2901359D01*
X2360196Y2887681D01*
X2386621Y2880600D01*
X2413979D01*
X2440404Y2887681D01*
X2464096Y2901359D01*
X2483441Y2920704D01*
X2497119Y2944396D01*
X2504200Y2970821D01*
Y2998179D01*
X2497119Y3024604D01*
X2483441Y3048296D01*
X2464096Y3067641D01*
X2440404Y3081319D01*
X2413979Y3088400D01*
D02*
G37*
G36*
X178779D02*
X151421D01*
X124996Y3081319D01*
X101304Y3067641D01*
X81959Y3048296D01*
X68281Y3024604D01*
X61200Y2998179D01*
Y2970821D01*
X68281Y2944396D01*
X81959Y2920704D01*
X101304Y2901359D01*
X124996Y2887681D01*
X151421Y2880600D01*
X178779D01*
X205204Y2887681D01*
X228896Y2901359D01*
X248241Y2920704D01*
X261919Y2944396D01*
X269000Y2970821D01*
Y2998179D01*
X261919Y3024604D01*
X248241Y3048296D01*
X228896Y3067641D01*
X205204Y3081319D01*
X178779Y3088400D01*
D02*
G37*
G36*
X2044700Y2871667D02*
Y2819400D01*
X2096967D01*
X2093540Y2832190D01*
X2084845Y2847250D01*
X2072550Y2859545D01*
X2057490Y2868240D01*
X2044700Y2871667D01*
D02*
G37*
G36*
X2019300D02*
X2006510Y2868240D01*
X1991450Y2859545D01*
X1979155Y2847250D01*
X1970460Y2832190D01*
X1967033Y2819400D01*
X2019300D01*
Y2871667D01*
D02*
G37*
G36*
X1268415Y3726180D02*
X1246185D01*
X1225647Y3717673D01*
X1209927Y3701953D01*
X1201420Y3681415D01*
Y3660603D01*
X1196011Y3652507D01*
X1193053Y3637641D01*
Y2872280D01*
X1184527Y2863753D01*
X1176020Y2843215D01*
Y2820985D01*
X1184527Y2800447D01*
X1200247Y2784727D01*
X1220785Y2776220D01*
X1243015D01*
X1263553Y2784727D01*
X1279273Y2800447D01*
X1287780Y2820985D01*
Y2843215D01*
X1279273Y2863753D01*
X1270747Y2872280D01*
Y3615386D01*
X1288953Y3622927D01*
X1304673Y3638647D01*
X1313180Y3659185D01*
Y3681415D01*
X1304673Y3701953D01*
X1288953Y3717673D01*
X1268415Y3726180D01*
D02*
G37*
G36*
X2096967Y2794000D02*
X2044700D01*
Y2741733D01*
X2057490Y2745160D01*
X2072550Y2753855D01*
X2084845Y2766150D01*
X2093540Y2781210D01*
X2096967Y2794000D01*
D02*
G37*
G36*
X2019300D02*
X1967033D01*
X1970460Y2781210D01*
X1979155Y2766150D01*
X1991450Y2753855D01*
X2006510Y2745160D01*
X2019300Y2741733D01*
Y2794000D01*
D02*
G37*
G36*
X2413979Y2834400D02*
X2386621D01*
X2360196Y2827319D01*
X2336504Y2813641D01*
X2317159Y2794296D01*
X2303481Y2770604D01*
X2296400Y2744179D01*
Y2716821D01*
X2303481Y2690396D01*
X2317159Y2666704D01*
X2336504Y2647359D01*
X2360196Y2633681D01*
X2386621Y2626600D01*
X2413979D01*
X2440404Y2633681D01*
X2464096Y2647359D01*
X2483441Y2666704D01*
X2497119Y2690396D01*
X2504200Y2716821D01*
Y2744179D01*
X2497119Y2770604D01*
X2483441Y2794296D01*
X2464096Y2813641D01*
X2440404Y2827319D01*
X2413979Y2834400D01*
D02*
G37*
G36*
X178779D02*
X151421D01*
X124996Y2827319D01*
X101304Y2813641D01*
X81959Y2794296D01*
X68281Y2770604D01*
X61200Y2744179D01*
Y2716821D01*
X68281Y2690396D01*
X81959Y2666704D01*
X101304Y2647359D01*
X124996Y2633681D01*
X151421Y2626600D01*
X178779D01*
X205204Y2633681D01*
X228896Y2647359D01*
X248241Y2666704D01*
X261919Y2690396D01*
X269000Y2716821D01*
Y2744179D01*
X261919Y2770604D01*
X248241Y2794296D01*
X228896Y2813641D01*
X205204Y2827319D01*
X178779Y2834400D01*
D02*
G37*
G36*
X1271467Y2476500D02*
X1219200D01*
Y2424233D01*
X1231990Y2427660D01*
X1247050Y2436355D01*
X1259345Y2448650D01*
X1268040Y2463710D01*
X1271467Y2476500D01*
D02*
G37*
G36*
X1193800D02*
X1141533D01*
X1144960Y2463710D01*
X1153655Y2448650D01*
X1165950Y2436355D01*
X1181010Y2427660D01*
X1193800Y2424233D01*
Y2476500D01*
D02*
G37*
G36*
X2413979Y2580400D02*
X2386621D01*
X2360196Y2573319D01*
X2336504Y2559641D01*
X2317159Y2540296D01*
X2303481Y2516604D01*
X2296400Y2490179D01*
Y2462821D01*
X2303481Y2436396D01*
X2317159Y2412704D01*
X2336504Y2393359D01*
X2360196Y2379681D01*
X2386621Y2372600D01*
X2413979D01*
X2440404Y2379681D01*
X2464096Y2393359D01*
X2483441Y2412704D01*
X2497119Y2436396D01*
X2504200Y2462821D01*
Y2490179D01*
X2497119Y2516604D01*
X2483441Y2540296D01*
X2464096Y2559641D01*
X2440404Y2573319D01*
X2413979Y2580400D01*
D02*
G37*
G36*
X178779D02*
X151421D01*
X124996Y2573319D01*
X101304Y2559641D01*
X81959Y2540296D01*
X68281Y2516604D01*
X61200Y2490179D01*
Y2462821D01*
X68281Y2436396D01*
X81959Y2412704D01*
X101304Y2393359D01*
X124996Y2379681D01*
X151421Y2372600D01*
X178779D01*
X205204Y2379681D01*
X228896Y2393359D01*
X248241Y2412704D01*
X261919Y2436396D01*
X269000Y2462821D01*
Y2490179D01*
X261919Y2516604D01*
X248241Y2540296D01*
X228896Y2559641D01*
X205204Y2573319D01*
X178779Y2580400D01*
D02*
G37*
G36*
X2055815Y2646680D02*
X2033585D01*
X2013047Y2638173D01*
X1997327Y2622453D01*
X1988820Y2601915D01*
Y2579685D01*
X1997327Y2559147D01*
X2013047Y2543427D01*
X2033585Y2534920D01*
X2045643D01*
X2209053Y2371509D01*
Y1866900D01*
X2212011Y1852034D01*
X2220431Y1839431D01*
X2304132Y1755731D01*
X2303481Y1754604D01*
X2296400Y1728179D01*
Y1700821D01*
X2303481Y1674396D01*
X2317159Y1650704D01*
X2336504Y1631359D01*
X2360196Y1617681D01*
X2386621Y1610600D01*
X2413979D01*
X2440404Y1617681D01*
X2464096Y1631359D01*
X2483441Y1650704D01*
X2497119Y1674396D01*
X2504200Y1700821D01*
Y1728179D01*
X2497119Y1754604D01*
X2483441Y1778296D01*
X2464096Y1797641D01*
X2440404Y1811319D01*
X2413979Y1818400D01*
X2386621D01*
X2360196Y1811319D01*
X2359069Y1810668D01*
X2286747Y1882991D01*
Y1941779D01*
X2299447Y1943452D01*
X2303481Y1928396D01*
X2317159Y1904704D01*
X2336504Y1885359D01*
X2360196Y1871681D01*
X2386621Y1864600D01*
X2413979D01*
X2440404Y1871681D01*
X2464096Y1885359D01*
X2483441Y1904704D01*
X2497119Y1928396D01*
X2504200Y1954821D01*
Y1982179D01*
X2497119Y2008604D01*
X2483441Y2032296D01*
X2464096Y2051641D01*
X2440404Y2065319D01*
X2413979Y2072400D01*
X2386621D01*
X2360196Y2065319D01*
X2336504Y2051641D01*
X2317159Y2032296D01*
X2303481Y2008604D01*
X2299447Y1993548D01*
X2286747Y1995221D01*
Y2195779D01*
X2299447Y2197452D01*
X2303481Y2182396D01*
X2317159Y2158704D01*
X2336504Y2139359D01*
X2360196Y2125681D01*
X2386621Y2118600D01*
X2413979D01*
X2440404Y2125681D01*
X2464096Y2139359D01*
X2483441Y2158704D01*
X2497119Y2182396D01*
X2504200Y2208821D01*
Y2236179D01*
X2497119Y2262604D01*
X2483441Y2286296D01*
X2464096Y2305641D01*
X2440404Y2319319D01*
X2413979Y2326400D01*
X2386621D01*
X2360196Y2319319D01*
X2336504Y2305641D01*
X2317159Y2286296D01*
X2303481Y2262604D01*
X2299447Y2247548D01*
X2286747Y2249221D01*
Y2387600D01*
X2283789Y2402466D01*
X2275369Y2415069D01*
X2100580Y2589857D01*
Y2601915D01*
X2092073Y2622453D01*
X2076353Y2638173D01*
X2055815Y2646680D01*
D02*
G37*
G36*
X178779Y2326400D02*
X151421D01*
X124996Y2319319D01*
X101304Y2305641D01*
X81959Y2286296D01*
X68281Y2262604D01*
X61200Y2236179D01*
Y2208821D01*
X68281Y2182396D01*
X81959Y2158704D01*
X101304Y2139359D01*
X124996Y2125681D01*
X151421Y2118600D01*
X178779D01*
X205204Y2125681D01*
X228896Y2139359D01*
X248241Y2158704D01*
X261919Y2182396D01*
X269000Y2208821D01*
Y2236179D01*
X261919Y2262604D01*
X248241Y2286296D01*
X228896Y2305641D01*
X205204Y2319319D01*
X178779Y2326400D01*
D02*
G37*
G36*
X558800Y2160467D02*
Y2108200D01*
X611067D01*
X607640Y2120990D01*
X598945Y2136050D01*
X586650Y2148345D01*
X571590Y2157040D01*
X558800Y2160467D01*
D02*
G37*
G36*
X533400D02*
X520610Y2157040D01*
X505550Y2148345D01*
X493255Y2136050D01*
X484560Y2120990D01*
X481133Y2108200D01*
X533400D01*
Y2160467D01*
D02*
G37*
G36*
X611067Y2082800D02*
X558800D01*
Y2030533D01*
X571590Y2033960D01*
X586650Y2042655D01*
X598945Y2054950D01*
X607640Y2070010D01*
X611067Y2082800D01*
D02*
G37*
G36*
X533400D02*
X481133D01*
X484560Y2070010D01*
X493255Y2054950D01*
X505550Y2042655D01*
X520610Y2033960D01*
X533400Y2030533D01*
Y2082800D01*
D02*
G37*
G36*
X723900Y2023724D02*
X704947Y2015873D01*
X689227Y2000153D01*
X681376Y1981200D01*
X723900D01*
Y2023724D01*
D02*
G37*
G36*
Y1955800D02*
X681376D01*
X689227Y1936847D01*
X704947Y1921127D01*
X723900Y1913276D01*
Y1955800D01*
D02*
G37*
G36*
X178779Y2072400D02*
X151421D01*
X124996Y2065319D01*
X101304Y2051641D01*
X81959Y2032296D01*
X68281Y2008604D01*
X61200Y1982179D01*
Y1954821D01*
X68281Y1928396D01*
X81959Y1904704D01*
X101304Y1885359D01*
X124996Y1871681D01*
X151421Y1864600D01*
X178779D01*
X205204Y1871681D01*
X228896Y1885359D01*
X248241Y1904704D01*
X261919Y1928396D01*
X269000Y1954821D01*
Y1982179D01*
X261919Y2008604D01*
X248241Y2032296D01*
X228896Y2051641D01*
X205204Y2065319D01*
X178779Y2072400D01*
D02*
G37*
G36*
X1778000Y1893767D02*
Y1841500D01*
X1830267D01*
X1826840Y1854290D01*
X1818145Y1869350D01*
X1805850Y1881645D01*
X1790790Y1890340D01*
X1778000Y1893767D01*
D02*
G37*
G36*
X1752600D02*
X1739810Y1890340D01*
X1724750Y1881645D01*
X1712455Y1869350D01*
X1703760Y1854290D01*
X1700333Y1841500D01*
X1752600D01*
Y1893767D01*
D02*
G37*
G36*
X1830267Y1816100D02*
X1778000D01*
Y1763833D01*
X1790790Y1767260D01*
X1805850Y1775955D01*
X1818145Y1788250D01*
X1826840Y1803310D01*
X1830267Y1816100D01*
D02*
G37*
G36*
X1752600D02*
X1700333D01*
X1703760Y1803310D01*
X1712455Y1788250D01*
X1724750Y1775955D01*
X1739810Y1767260D01*
X1752600Y1763833D01*
Y1816100D01*
D02*
G37*
G36*
X1778000Y1741367D02*
Y1689100D01*
X1830267D01*
X1826840Y1701890D01*
X1818145Y1716950D01*
X1805850Y1729245D01*
X1790790Y1737940D01*
X1778000Y1741367D01*
D02*
G37*
G36*
X1752600D02*
X1739810Y1737940D01*
X1724750Y1729245D01*
X1712455Y1716950D01*
X1703760Y1701890D01*
X1700333Y1689100D01*
X1752600D01*
Y1741367D01*
D02*
G37*
G36*
X1830267Y1663700D02*
X1778000D01*
Y1611433D01*
X1790790Y1614860D01*
X1805850Y1623555D01*
X1818145Y1635850D01*
X1826840Y1650910D01*
X1830267Y1663700D01*
D02*
G37*
G36*
X1752600D02*
X1700333D01*
X1703760Y1650910D01*
X1712455Y1635850D01*
X1724750Y1623555D01*
X1739810Y1614860D01*
X1752600Y1611433D01*
Y1663700D01*
D02*
G37*
G36*
X178779Y1818400D02*
X151421D01*
X124996Y1811319D01*
X101304Y1797641D01*
X81959Y1778296D01*
X68281Y1754604D01*
X61200Y1728179D01*
Y1700821D01*
X68281Y1674396D01*
X81959Y1650704D01*
X101304Y1631359D01*
X124996Y1617681D01*
X151421Y1610600D01*
X178779D01*
X205204Y1617681D01*
X228896Y1631359D01*
X248241Y1650704D01*
X261919Y1674396D01*
X269000Y1700821D01*
Y1728179D01*
X261919Y1754604D01*
X248241Y1778296D01*
X228896Y1797641D01*
X205204Y1811319D01*
X178779Y1818400D01*
D02*
G37*
G36*
X1003300Y1576267D02*
Y1524000D01*
X1055567D01*
X1052140Y1536790D01*
X1043445Y1551850D01*
X1031150Y1564145D01*
X1016090Y1572840D01*
X1003300Y1576267D01*
D02*
G37*
G36*
X977900D02*
X965110Y1572840D01*
X950050Y1564145D01*
X937755Y1551850D01*
X929060Y1536790D01*
X925633Y1524000D01*
X977900D01*
Y1576267D01*
D02*
G37*
G36*
X1055567Y1498600D02*
X1003300D01*
Y1446333D01*
X1016090Y1449760D01*
X1031150Y1458455D01*
X1043445Y1470750D01*
X1052140Y1485810D01*
X1055567Y1498600D01*
D02*
G37*
G36*
X977900D02*
X925633D01*
X929060Y1485810D01*
X937755Y1470750D01*
X950050Y1458455D01*
X965110Y1449760D01*
X977900Y1446333D01*
Y1498600D01*
D02*
G37*
G36*
X2413979Y1564400D02*
X2386621D01*
X2360196Y1557319D01*
X2336504Y1543641D01*
X2317159Y1524296D01*
X2303481Y1500604D01*
X2296400Y1474179D01*
Y1446821D01*
X2303481Y1420396D01*
X2317159Y1396704D01*
X2336504Y1377359D01*
X2360196Y1363681D01*
X2386621Y1356600D01*
X2413979D01*
X2440404Y1363681D01*
X2464096Y1377359D01*
X2483441Y1396704D01*
X2497119Y1420396D01*
X2504200Y1446821D01*
Y1474179D01*
X2497119Y1500604D01*
X2483441Y1524296D01*
X2464096Y1543641D01*
X2440404Y1557319D01*
X2413979Y1564400D01*
D02*
G37*
G36*
X178779D02*
X151421D01*
X124996Y1557319D01*
X101304Y1543641D01*
X81959Y1524296D01*
X68281Y1500604D01*
X61200Y1474179D01*
Y1446821D01*
X68281Y1420396D01*
X81959Y1396704D01*
X101304Y1377359D01*
X124996Y1363681D01*
X151421Y1356600D01*
X178779D01*
X205204Y1363681D01*
X228896Y1377359D01*
X248241Y1396704D01*
X261919Y1420396D01*
X269000Y1446821D01*
Y1474179D01*
X261919Y1500604D01*
X248241Y1524296D01*
X228896Y1543641D01*
X205204Y1557319D01*
X178779Y1564400D01*
D02*
G37*
G36*
X419100Y1388724D02*
Y1346200D01*
X461624D01*
X453773Y1365153D01*
X438053Y1380873D01*
X419100Y1388724D01*
D02*
G37*
G36*
X393700D02*
X374747Y1380873D01*
X359027Y1365153D01*
X351176Y1346200D01*
X393700D01*
Y1388724D01*
D02*
G37*
G36*
X461624Y1320800D02*
X419100D01*
Y1278276D01*
X438053Y1286127D01*
X453773Y1301847D01*
X461624Y1320800D01*
D02*
G37*
G36*
X393700D02*
X351176D01*
X359027Y1301847D01*
X374747Y1286127D01*
X393700Y1278276D01*
Y1320800D01*
D02*
G37*
G36*
X757994Y1386840D02*
X740606D01*
X723810Y1382340D01*
X708750Y1373645D01*
X696455Y1361350D01*
X687760Y1346290D01*
X683260Y1329494D01*
Y1312106D01*
X687760Y1295310D01*
X696455Y1280250D01*
X708750Y1267955D01*
X723810Y1259260D01*
X740606Y1254760D01*
X757994D01*
X774790Y1259260D01*
X789850Y1267955D01*
X802145Y1280250D01*
X810840Y1295310D01*
X815340Y1312106D01*
Y1329494D01*
X810840Y1346290D01*
X802145Y1361350D01*
X789850Y1373645D01*
X774790Y1382340D01*
X757994Y1386840D01*
D02*
G37*
G36*
X178779Y1310400D02*
X177800D01*
Y1219200D01*
X269000D01*
Y1220179D01*
X261919Y1246604D01*
X248241Y1270296D01*
X228896Y1289641D01*
X205204Y1303319D01*
X178779Y1310400D01*
D02*
G37*
G36*
X152400D02*
X151421D01*
X124996Y1303319D01*
X101304Y1289641D01*
X81959Y1270296D01*
X68281Y1246604D01*
X61200Y1220179D01*
Y1219200D01*
X152400D01*
Y1310400D01*
D02*
G37*
G36*
X2413979D02*
X2386621D01*
X2360196Y1303319D01*
X2336504Y1289641D01*
X2317159Y1270296D01*
X2303481Y1246604D01*
X2296400Y1220179D01*
Y1192821D01*
X2303481Y1166396D01*
X2317159Y1142704D01*
X2336504Y1123359D01*
X2360196Y1109681D01*
X2386621Y1102600D01*
X2413979D01*
X2440404Y1109681D01*
X2464096Y1123359D01*
X2483441Y1142704D01*
X2497119Y1166396D01*
X2504200Y1192821D01*
Y1220179D01*
X2497119Y1246604D01*
X2483441Y1270296D01*
X2464096Y1289641D01*
X2440404Y1303319D01*
X2413979Y1310400D01*
D02*
G37*
G36*
X269000Y1193800D02*
X177800D01*
Y1102600D01*
X178779D01*
X205204Y1109681D01*
X228896Y1123359D01*
X248241Y1142704D01*
X261919Y1166396D01*
X269000Y1192821D01*
Y1193800D01*
D02*
G37*
G36*
X152400D02*
X61200D01*
Y1192821D01*
X68281Y1166396D01*
X81959Y1142704D01*
X101304Y1123359D01*
X124996Y1109681D01*
X151421Y1102600D01*
X152400D01*
Y1193800D01*
D02*
G37*
G36*
X419100Y1096624D02*
Y1054100D01*
X461624D01*
X453773Y1073053D01*
X438053Y1088773D01*
X419100Y1096624D01*
D02*
G37*
G36*
X393700D02*
X374747Y1088773D01*
X359027Y1073053D01*
X351176Y1054100D01*
X393700D01*
Y1096624D01*
D02*
G37*
G36*
X1090615Y2151380D02*
X1068385D01*
X1047847Y2142873D01*
X1032127Y2127153D01*
X1023620Y2106615D01*
Y2084385D01*
X1032127Y2063847D01*
X1047847Y2048127D01*
X1068385Y2039620D01*
X1080443D01*
X1180353Y1939709D01*
Y1132380D01*
X1171827Y1123853D01*
X1163320Y1103315D01*
Y1081085D01*
X1171827Y1060547D01*
X1187547Y1044827D01*
X1208085Y1036320D01*
X1230315D01*
X1250853Y1044827D01*
X1266573Y1060547D01*
X1275080Y1081085D01*
Y1103315D01*
X1266573Y1123853D01*
X1258047Y1132380D01*
Y1868088D01*
X1270747Y1873214D01*
X1275150Y1868649D01*
Y1148579D01*
X1278107Y1133713D01*
X1286528Y1121110D01*
X1315084Y1092554D01*
Y1080495D01*
X1323591Y1059957D01*
X1339311Y1044238D01*
X1359849Y1035731D01*
X1382079D01*
X1402617Y1044238D01*
X1418337Y1059957D01*
X1426844Y1080495D01*
Y1102726D01*
X1418337Y1123264D01*
X1402617Y1138983D01*
X1382079Y1147491D01*
X1370021D01*
X1352843Y1164669D01*
Y1858016D01*
X1368173Y1873347D01*
X1376680Y1893885D01*
Y1916115D01*
X1368173Y1936653D01*
X1352453Y1952373D01*
X1331915Y1960880D01*
X1309685D01*
X1289147Y1952373D01*
X1273427Y1936653D01*
X1270747Y1930182D01*
X1258047Y1932708D01*
Y1955800D01*
X1255089Y1970666D01*
X1246669Y1983269D01*
X1135380Y2094557D01*
Y2106615D01*
X1126873Y2127153D01*
X1111153Y2142873D01*
X1090615Y2151380D01*
D02*
G37*
G36*
X461624Y1028700D02*
X419100D01*
Y986176D01*
X438053Y994027D01*
X453773Y1009747D01*
X461624Y1028700D01*
D02*
G37*
G36*
X393700D02*
X351176D01*
X359027Y1009747D01*
X374747Y994027D01*
X393700Y986176D01*
Y1028700D01*
D02*
G37*
G36*
X178779Y1056400D02*
X177800D01*
Y965200D01*
X269000D01*
Y966179D01*
X261919Y992604D01*
X248241Y1016296D01*
X228896Y1035641D01*
X205204Y1049319D01*
X178779Y1056400D01*
D02*
G37*
G36*
X152400D02*
X151421D01*
X124996Y1049319D01*
X101304Y1035641D01*
X81959Y1016296D01*
X68281Y992604D01*
X61200Y966179D01*
Y965200D01*
X152400D01*
Y1056400D01*
D02*
G37*
G36*
X2413979D02*
X2386621D01*
X2360196Y1049319D01*
X2336504Y1035641D01*
X2317159Y1016296D01*
X2303481Y992604D01*
X2296400Y966179D01*
Y938821D01*
X2303481Y912396D01*
X2317159Y888704D01*
X2336504Y869359D01*
X2360196Y855681D01*
X2386621Y848600D01*
X2413979D01*
X2440404Y855681D01*
X2464096Y869359D01*
X2483441Y888704D01*
X2497119Y912396D01*
X2504200Y938821D01*
Y966179D01*
X2497119Y992604D01*
X2483441Y1016296D01*
X2464096Y1035641D01*
X2440404Y1049319D01*
X2413979Y1056400D01*
D02*
G37*
G36*
X269000Y939800D02*
X177800D01*
Y848600D01*
X178779D01*
X205204Y855681D01*
X228896Y869359D01*
X248241Y888704D01*
X261919Y912396D01*
X269000Y938821D01*
Y939800D01*
D02*
G37*
G36*
X152400D02*
X61200D01*
Y938821D01*
X68281Y912396D01*
X81959Y888704D01*
X101304Y869359D01*
X124996Y855681D01*
X151421Y848600D01*
X152400D01*
Y939800D01*
D02*
G37*
G36*
X2504200Y802400D02*
X2413000D01*
Y711200D01*
X2504200D01*
Y802400D01*
D02*
G37*
G36*
X2387600D02*
X2296400D01*
Y711200D01*
X2387600D01*
Y802400D01*
D02*
G37*
G36*
X1714700Y743951D02*
X1695016Y741359D01*
X1676675Y733762D01*
X1660924Y721676D01*
X1648838Y705925D01*
X1641241Y687583D01*
X1638649Y667900D01*
Y602123D01*
X1625949Y594790D01*
X1625690Y594940D01*
X1612900Y598367D01*
Y533400D01*
Y468433D01*
X1625690Y471860D01*
X1640750Y480555D01*
X1653045Y492850D01*
X1661740Y507910D01*
X1663869Y515856D01*
X1674190Y520839D01*
X1678474Y521293D01*
X1695016Y514441D01*
X1714700Y511849D01*
X1734383Y514441D01*
X1752725Y522038D01*
X1768476Y534124D01*
X1780562Y549875D01*
X1788159Y568217D01*
X1790751Y587900D01*
Y667900D01*
X1788159Y687583D01*
X1780562Y705925D01*
X1768476Y721676D01*
X1752725Y733762D01*
X1734383Y741359D01*
X1714700Y743951D01*
D02*
G37*
G36*
X2504200Y685800D02*
X2413000D01*
Y594600D01*
X2504200D01*
Y685800D01*
D02*
G37*
G36*
X2387600D02*
X2296400D01*
Y594600D01*
X2387600D01*
Y685800D01*
D02*
G37*
G36*
X269000Y802400D02*
X61200D01*
Y594600D01*
X269000D01*
Y802400D01*
D02*
G37*
G36*
X977900Y623767D02*
Y571500D01*
X1030167D01*
X1026740Y584290D01*
X1018045Y599350D01*
X1005750Y611645D01*
X990690Y620340D01*
X977900Y623767D01*
D02*
G37*
G36*
X1587500Y598367D02*
X1574710Y594940D01*
X1559650Y586245D01*
X1547355Y573950D01*
X1538660Y558890D01*
X1535233Y546100D01*
X1587500D01*
Y598367D01*
D02*
G37*
G36*
X1030167Y546100D02*
X977900D01*
Y493833D01*
X990690Y497260D01*
X1005750Y505955D01*
X1018045Y518250D01*
X1026740Y533310D01*
X1030167Y546100D01*
D02*
G37*
G36*
X850700Y743951D02*
X831017Y741359D01*
X812675Y733762D01*
X796924Y721676D01*
X784838Y705925D01*
X777241Y687583D01*
X774649Y667900D01*
Y587900D01*
X777241Y568217D01*
X784838Y549875D01*
X796924Y534124D01*
X812675Y522038D01*
X831017Y514441D01*
X850700Y511849D01*
X870384Y514441D01*
X888725Y522038D01*
X893422Y525642D01*
X909990Y522347D01*
X912355Y518250D01*
X924650Y505955D01*
X939710Y497260D01*
X952500Y493833D01*
Y558800D01*
Y623767D01*
X939710Y620340D01*
X937749Y619208D01*
X926751Y625558D01*
Y667900D01*
X924159Y687583D01*
X916562Y705925D01*
X904476Y721676D01*
X888725Y733762D01*
X870384Y741359D01*
X850700Y743951D01*
D02*
G37*
G36*
X1587500Y520700D02*
X1535233D01*
X1538660Y507910D01*
X1547355Y492850D01*
X1559650Y480555D01*
X1574710Y471860D01*
X1587500Y468433D01*
Y520700D01*
D02*
G37*
G36*
X1714700Y363951D02*
X1695016Y361359D01*
X1676675Y353762D01*
X1660924Y341676D01*
X1648838Y325925D01*
X1641241Y307584D01*
X1638649Y287900D01*
Y167900D01*
X1641241Y148216D01*
X1648838Y129875D01*
X1660924Y114124D01*
X1676675Y102038D01*
X1695016Y94441D01*
X1714700Y91849D01*
X1734383Y94441D01*
X1752725Y102038D01*
X1768476Y114124D01*
X1780562Y129875D01*
X1788159Y148216D01*
X1790751Y167900D01*
Y287900D01*
X1788159Y307584D01*
X1780562Y325925D01*
X1768476Y341676D01*
X1752725Y353762D01*
X1734383Y361359D01*
X1714700Y363951D01*
D02*
G37*
G36*
X850700D02*
X831017Y361359D01*
X812675Y353762D01*
X796924Y341676D01*
X784838Y325925D01*
X777241Y307584D01*
X774649Y287900D01*
Y167900D01*
X777241Y148216D01*
X784838Y129875D01*
X796924Y114124D01*
X812675Y102038D01*
X831017Y94441D01*
X850700Y91849D01*
X870384Y94441D01*
X888725Y102038D01*
X904476Y114124D01*
X916562Y129875D01*
X924159Y148216D01*
X926751Y167900D01*
Y287900D01*
X924159Y307584D01*
X916562Y325925D01*
X904476Y341676D01*
X888725Y353762D01*
X870384Y361359D01*
X850700Y363951D01*
D02*
G37*
%LPD*%
D28*
X2286000Y4023545D02*
G03*
X2283717Y3998522I114300J-23045D01*
G01*
X648167Y4478020D02*
Y4546133D01*
Y4478020D02*
X1278087Y3848100D01*
X901700Y1839492D02*
Y3228877D01*
X1278087Y3848100D02*
X1384300D01*
X647700Y4546600D02*
X648167Y4546133D01*
X901700Y1828800D02*
X912392Y1839492D01*
X533400Y4114800D02*
Y4363988D01*
X520700Y4376688D02*
Y4635500D01*
Y4376688D02*
X533400Y4363988D01*
X165100Y3746500D02*
X533400Y4114800D01*
X1848304Y4336596D02*
X2209800Y3975100D01*
X1784804Y4336596D02*
X1848304D01*
X2209800Y3683000D02*
Y3975100D01*
X1778000Y4343400D02*
X1784804Y4336596D01*
X2286000Y4023545D02*
Y4343400D01*
X2283717Y3998522D02*
X2286000Y3860800D01*
X2293439Y3853360D02*
X2400300Y3746500D01*
X2286000Y3860800D02*
X2293439Y3853360D01*
X2209800Y3683000D02*
X2400300Y3492500D01*
X2019300Y3721100D02*
X2044700Y3695700D01*
Y3314700D02*
Y3695700D01*
X2019300Y3721100D02*
Y3784600D01*
X1231900Y2832100D02*
Y3637641D01*
X1257300Y3663041D01*
Y3670300D01*
X1117600Y3688313D02*
X1155350Y3726063D01*
Y3771550D02*
X1155700Y3771900D01*
X1155350Y3726063D02*
Y3771550D01*
X1117600Y2908300D02*
Y3688313D01*
X1536700Y2552700D02*
X1638300D01*
X1892300Y2298700D01*
X1313996Y1148579D02*
Y1898196D01*
X1320800Y1905000D01*
X1313996Y1148579D02*
X1370964Y1091611D01*
X965200Y2425700D02*
X1117600Y2578100D01*
X891008Y1839492D02*
X901700Y1828800D01*
X1397000Y2578100D02*
X1422400Y2552700D01*
X1117600Y2578100D02*
X1397000D01*
X865608Y1839492D02*
X891008D01*
X828273Y1876827D02*
X865608Y1839492D01*
X828273Y1876827D02*
Y2118127D01*
X914400Y3241577D02*
Y3251200D01*
X901700Y3228877D02*
X914400Y3241577D01*
X912392Y1839492D02*
X937792D01*
X965200Y1866900D01*
Y2425700D01*
X711200Y2235200D02*
X828273Y2118127D01*
X1422400Y2552700D02*
X1536700D01*
X1414780Y2674620D02*
X1478280D01*
X1536700Y2616200D01*
Y2552700D02*
Y2616200D01*
X1379220Y2710180D02*
X1414780Y2674620D01*
X1379220Y2710180D02*
Y3187700D01*
X1447800Y2743200D02*
Y3327400D01*
X1379220Y3187700D02*
X1381760Y3190240D01*
X1889223Y3771900D02*
X1892300D01*
X1885496Y3765096D02*
Y3768174D01*
X1381760Y3190240D02*
Y3845560D01*
X1447800Y3327400D02*
X1885496Y3765096D01*
Y3768174D02*
X1889223Y3771900D01*
X1381760Y3845560D02*
X1384300Y3848100D01*
X1079500Y2095500D02*
X1219200Y1955800D01*
X2247900Y1866900D02*
X2400300Y1714500D01*
X2247900Y1866900D02*
Y2387600D01*
X2044700Y2590800D02*
X2247900Y2387600D01*
X711200Y2235200D02*
Y2387600D01*
X1219200Y1092200D02*
Y1955800D01*
D30*
X165100Y4000500D02*
D03*
Y3746500D02*
D03*
Y1460500D02*
D03*
Y1714500D02*
D03*
Y1968500D02*
D03*
Y2222500D02*
D03*
Y2476500D02*
D03*
Y2730500D02*
D03*
Y2984500D02*
D03*
Y3238500D02*
D03*
Y3492500D02*
D03*
Y952500D02*
D03*
Y1206500D02*
D03*
X2400300Y952500D02*
D03*
Y1206500D02*
D03*
Y1460500D02*
D03*
Y1968500D02*
D03*
Y2222500D02*
D03*
Y2476500D02*
D03*
Y2984500D02*
D03*
Y3238500D02*
D03*
Y3746500D02*
D03*
Y3492500D02*
D03*
Y2730500D02*
D03*
Y1714500D02*
D03*
Y4000500D02*
D03*
D31*
X165100Y698500D02*
D03*
X2400300D02*
D03*
D32*
X850700Y227900D02*
D03*
X1714700D02*
D03*
D33*
X850700Y627900D02*
D03*
X1714700D02*
D03*
D34*
X1155700Y3873500D02*
D03*
X520700Y4635500D02*
D03*
X914400Y4343400D02*
D03*
X647700Y4546600D02*
D03*
X2081539Y4344661D02*
D03*
X1498600Y4343400D02*
D03*
X2286000D02*
D03*
X1778000D02*
D03*
X1257300Y3670300D02*
D03*
X1155700Y3771900D02*
D03*
X1892300Y2298700D02*
D03*
X1320800Y1905000D02*
D03*
X736600Y1968500D02*
D03*
X914400Y3251200D02*
D03*
X406400Y1333500D02*
D03*
Y1041400D02*
D03*
X1536700Y2552700D02*
D03*
X1447800Y2743200D02*
D03*
X1379220Y3187700D02*
D03*
X1384300Y3848100D02*
D03*
X2044700Y3314700D02*
D03*
X2019300Y3784600D02*
D03*
X1892300D02*
D03*
X1079500Y2095500D02*
D03*
X2044700Y2590800D02*
D03*
X1384300Y4051300D02*
D03*
X711200Y2387600D02*
D03*
X1219200Y1092200D02*
D03*
X1231900Y2832100D02*
D03*
X1117600Y2908300D02*
D03*
X1370964Y1091611D02*
D03*
D35*
X2349500Y5346700D02*
D03*
X215900D02*
D03*
X2349500Y215900D02*
D03*
X215900D02*
D03*
D36*
X444500Y4178300D02*
D03*
X2032000Y2806700D02*
D03*
X1600200Y3225800D02*
D03*
Y533400D02*
D03*
X1206500Y2489200D02*
D03*
X993140Y2590800D02*
D03*
X1016000Y3187700D02*
D03*
X965200Y558800D02*
D03*
X406400Y3365500D02*
D03*
X1765300Y1828800D02*
D03*
Y1676400D02*
D03*
X990600Y1511300D02*
D03*
X546100Y2095500D02*
D03*
X749300Y1320800D02*
D03*
X901700Y1828800D02*
D03*
%TF.MD5,847e7879bfc8b21fd2555d88f51a2399*%
M02*
