ISO-10303-21;
HEADER;
FILE_DESCRIPTION (( 'STEP AP214' ),
    '1' );
FILE_NAME ('Button.STEP',
    '2025-11-24T03:04:55',
    ( '' ),
    ( '' ),
    'SwSTEP 2.0',
    'SolidWorks 2025',
    '' );
FILE_SCHEMA (( 'AUTOMOTIVE_DESIGN' ));
ENDSEC;

DATA;
#1 = ADVANCED_FACE ( 'NONE', ( #62 ), #151, .F. ) ;
#2 = LINE ( 'NONE', #68, #85 ) ;
#3 = DIRECTION ( 'NONE',  ( 0.4718544115683060425, 0.005240157101006308847, -0.8816609070595590181 ) ) ;
#4 = EDGE_LOOP ( 'NONE', ( #199, #124 ) ) ;
#5 = APPLICATION_CONTEXT ( 'automotive_design' ) ;
#6 = DIRECTION ( 'NONE',  ( 0.4718544115683060980, 0.005240157101006308847, -0.8816609070595590181 ) ) ;
#7 = ORIENTED_EDGE ( 'NONE', *, *, #156, .T. ) ;
#8 = DIRECTION ( 'NONE',  ( -0.8816730121809255305, 0.000000000000000000, -0.4718608900850055354 ) ) ;
#9 = EDGE_CURVE ( 'NONE', #251, #143, #19, .T. ) ;
#10 = VERTEX_POINT ( 'NONE', #40 ) ;
#11 = CIRCLE ( 'NONE', #121, 2.499999999999996447 ) ;
#12 = PRESENTATION_LAYER_ASSIGNMENT (  '', '', ( #283 ) ) ;
#13 = CARTESIAN_POINT ( 'NONE',  ( 0.000000000000000000, 0.000000000000000000, 0.000000000000000000 ) ) ;
#14 = ORIENTED_EDGE ( 'NONE', *, *, #193, .F. ) ;
#15 = PRODUCT_RELATED_PRODUCT_CATEGORY ( 'part', '', ( #238 ) ) ;
#16 = VERTEX_POINT ( 'NONE', #83 ) ;
#17 = PRODUCT_DEFINITION_CONTEXT ( 'detailed design', #93, 'design' ) ;
#18 = ORIENTED_EDGE ( 'NONE', *, *, #95, .T. ) ;
#19 = LINE ( 'NONE', #63, #219 ) ;
#20 = CYLINDRICAL_SURFACE ( 'NONE', #179, 2.499999999999996447 ) ;
#21 = CIRCLE ( 'NONE', #233, 1.249999999999949152 ) ;
#22 = AXIS2_PLACEMENT_3D ( 'NONE', #66, #279, #258 ) ;
#23 = DIRECTION ( 'NONE',  ( 0.4718544115683060980, 0.005240157101006308847, -0.8816609070595590181 ) ) ;
#24 = ADVANCED_FACE ( 'NONE', ( #239 ), #171, .T. ) ;
#25 = CARTESIAN_POINT ( 'NONE',  ( 839.8468533352869372, -322.1680788176563510, 398.0922214751435035 ) ) ;
#26 = CARTESIAN_POINT ( 'NONE',  ( 843.7540122994134890, -322.1397819693109454, 394.0586508612350940 ) ) ;
#27 = COLOUR_RGB ( '',0.7921568627450980005, 0.8196078431372548767, 0.9333333333333333481 ) ;
#28 = CIRCLE ( 'NONE', #46, 1.249999999999949152 ) ;
#29 = DIRECTION ( 'NONE',  ( 0.4718544115683061535, 0.005240157101006293235, -0.8816609070595589071 ) ) ;
#30 = FACE_OUTER_BOUND ( 'NONE', #278, .T. ) ;
#31 = VERTEX_POINT ( 'NONE', #106 ) ;
#32 = DIRECTION ( 'NONE',  ( 0.4718544115683062090, 0.005240157101006294969, -0.8816609070595590181 ) ) ;
#33 = EDGE_LOOP ( 'NONE', ( #181, #126, #79, #164 ) ) ;
#34 = LINE ( 'NONE', #98, #246 ) ;
#35 = CARTESIAN_POINT ( 'NONE',  ( 843.1498342162656172, -322.1313977179493122, 391.9205951257270613 ) ) ;
#36 = UNCERTAINTY_MEASURE_WITH_UNIT (LENGTH_MEASURE( 1.000000000000000082E-05 ), #101, 'distance_accuracy_value', 'NONE');
#37 = ADVANCED_BREP_SHAPE_REPRESENTATION ( 'Button', ( #118, #82 ), #146 ) ;
#38 = CIRCLE ( 'NONE', #170, 1.249999999999949152 ) ;
#39 = FACE_OUTER_BOUND ( 'NONE', #33, .T. ) ;
#40 = CARTESIAN_POINT ( 'NONE',  ( 842.8363622467862797, -322.1471181892523532, 395.1554039595115455 ) ) ;
#41 = DIRECTION ( 'NONE',  ( -0.4718544115683060980, -0.005240157101006307980, 0.8816609070595590181 ) ) ;
#42 = DIRECTION ( 'NONE',  ( -0.8816730121809083220, 0.000000000000000000, -0.4718608900850377319 ) ) ;
#43 = ADVANCED_FACE ( 'NONE', ( #81 ), #235, .T. ) ;
#44 = ORIENTED_EDGE ( 'NONE', *, *, #9, .F. ) ;
#45 = FACE_BOUND ( 'NONE', #4, .T. ) ;
#46 = AXIS2_PLACEMENT_3D ( 'NONE', #266, #194, #94 ) ;
#47 = PRESENTATION_STYLE_ASSIGNMENT (( #114 ) ) ;
#48 = ADVANCED_FACE ( 'NONE', ( #210, #260 ), #128, .F. ) ;
#49 = DIRECTION ( 'NONE',  ( 0.4718544115683062090, 0.005240157101006294969, -0.8816609070595590181 ) ) ;
#50 = LINE ( 'NONE', #26, #87 ) ;
#51 = AXIS2_PLACEMENT_3D ( 'NONE', #134, #131, #265 ) ;
#52 = DIRECTION ( 'NONE',  ( 0.4718544115683062090, 0.005240157101006294969, -0.8816609070595590181 ) ) ;
#53 = DIRECTION ( 'NONE',  ( -0.8816730121809207565, 0.000000000000000000, -0.4718608900850141397 ) ) ;
#54 = DIRECTION ( 'NONE',  ( -0.8816730121809180920, 0.000000000000000000, -0.4718608900850191912 ) ) ;
#55 = EDGE_LOOP ( 'NONE', ( #272, #161 ) ) ;
#56 = ADVANCED_FACE ( 'NONE', ( #263 ), #107, .T. ) ;
#57 = CARTESIAN_POINT ( 'NONE',  ( 843.1498342162653898, -322.1313977179493122, 391.9205951257267770 ) ) ;
#58 = DIRECTION ( 'NONE',  ( 0.4718544115683060980, 0.005240157101006308847, -0.8816609070595590181 ) ) ;
#59 = ORIENTED_EDGE ( 'NONE', *, *, #149, .T. ) ;
#60 = AXIS2_PLACEMENT_3D ( 'NONE', #222, #157, #243 ) ;
#61 = CARTESIAN_POINT ( 'NONE',  ( 841.7342709815604849, -322.1471181892522964, 394.5655778469055122 ) ) ;
#62 = FACE_OUTER_BOUND ( 'NONE', #225, .T. ) ;
#63 = CARTESIAN_POINT ( 'NONE',  ( 840.9456516858131181, -322.1313977179493122, 390.7409429005142556 ) ) ;
#64 = ADVANCED_FACE ( 'NONE', ( #215 ), #20, .T. ) ;
#65 = CIRCLE ( 'NONE', #247, 2.499999999999996447 ) ;
#66 = CARTESIAN_POINT ( 'NONE',  ( 843.1498342162653898, -322.1313977179493122, 391.9205951257267770 ) ) ;
#67 = CARTESIAN_POINT ( 'NONE',  ( 841.7906890746085082, -322.1313977179493122, 391.1931968415144070 ) ) ;
#68 = CARTESIAN_POINT ( 'NONE',  ( 841.0357220160992711, -322.1397819693109454, 392.6038542928096717 ) ) ;
#69 = DIRECTION ( 'NONE',  ( -0.4718544115683060980, -0.005240157101006307980, 0.8816609070595590181 ) ) ;
#70 = PLANE ( 'NONE',  #236 ) ;
#71 = AXIS2_PLACEMENT_3D ( 'NONE', #221, #285, #155 ) ;
#72 = AXIS2_PLACEMENT_3D ( 'NONE', #168, #187, #105 ) ;
#73 = ORIENTED_EDGE ( 'NONE', *, *, #189, .F. ) ;
#74 = ADVANCED_FACE ( 'NONE', ( #39 ), #123, .F. ) ;
#75 = ORIENTED_EDGE ( 'NONE', *, *, #189, .T. ) ;
#76 =( GEOMETRIC_REPRESENTATION_CONTEXT ( 3 ) GLOBAL_UNCERTAINTY_ASSIGNED_CONTEXT ( ( #144 ) ) GLOBAL_UNIT_ASSIGNED_CONTEXT ( ( #158, #110, #136 ) ) REPRESENTATION_CONTEXT ( 'NONE', 'WORKASPACE' ) );
#77 = CARTESIAN_POINT ( 'NONE',  ( 840.9456516858131181, -322.1313977179493122, 390.7409429005142556 ) ) ;
#78 = MECHANICAL_DESIGN_GEOMETRIC_PRESENTATION_REPRESENTATION (  '', ( #283 ), #76 ) ;
#79 = ORIENTED_EDGE ( 'NONE', *, *, #228, .T. ) ;
#80 = ORIENTED_EDGE ( 'NONE', *, *, #198, .F. ) ;
#81 = FACE_OUTER_BOUND ( 'NONE', #232, .T. ) ;
#82 = AXIS2_PLACEMENT_3D ( 'NONE', #13, #177, #268 ) ;
#83 = CARTESIAN_POINT ( 'NONE',  ( 840.6321797163341216, -322.1471181892523532, 393.9757517342990241 ) ) ;
#84 = ORIENTED_EDGE ( 'NONE', *, *, #125, .T. ) ;
#85 = VECTOR ( 'NONE', #29, 1000.000000000000227 ) ;
#86 = EDGE_LOOP ( 'NONE', ( #14, #147 ) ) ;
#87 = VECTOR ( 'NONE', #201, 1000.000000000000227 ) ;
#88 = AXIS2_PLACEMENT_3D ( 'NONE', #241, #152, #169 ) ;
#89 = AXIS2_PLACEMENT_3D ( 'NONE', #103, #186, #166 ) ;
#90 = ORIENTED_EDGE ( 'NONE', *, *, #244, .T. ) ;
#91 = DIRECTION ( 'NONE',  ( -0.8816730121809255305, 0.000000000000000000, -0.4718608900850055354 ) ) ;
#92 = LINE ( 'NONE', #175, #217 ) ;
#93 = APPLICATION_CONTEXT ( 'automotive_design' ) ;
#94 = DIRECTION ( 'NONE',  ( -0.8816730121809083220, 0.000000000000000000, -0.4718608900850377319 ) ) ;
#95 = EDGE_CURVE ( 'NONE', #259, #143, #65, .T. ) ;
#96 = FILL_AREA_STYLE_COLOUR ( '', #27 ) ;
#97 = CIRCLE ( 'NONE', #60, 1.249999999999949152 ) ;
#98 = CARTESIAN_POINT ( 'NONE',  ( 838.7447620700609150, -322.1680788176563510, 397.5023953625372428 ) ) ;
#99 = ORIENTED_EDGE ( 'NONE', *, *, #165, .T. ) ;
#100 = VERTEX_POINT ( 'NONE', #216 ) ;
#101 =( LENGTH_UNIT ( ) NAMED_UNIT ( * ) SI_UNIT ( .MILLI., .METRE. ) );
#102 = VERTEX_POINT ( 'NONE', #220 ) ;
#103 = CARTESIAN_POINT ( 'NONE',  ( 842.3948671577563800, -322.1397819693109454, 393.3312525770223829 ) ) ;
#104 = CIRCLE ( 'NONE', #212, 1.541552392870828125 ) ;
#105 = DIRECTION ( 'NONE',  ( -0.8816730121809083220, 0.000000000000000000, -0.4718608900850377319 ) ) ;
#106 = CARTESIAN_POINT ( 'NONE',  ( 840.9489446005130731, -322.1680788176563510, 398.6820475877497074 ) ) ;
#107 = CYLINDRICAL_SURFACE ( 'NONE', #22, 2.499999999999996447 ) ;
#108 = DIRECTION ( 'NONE',  ( -0.4718544115683061535, -0.005240157101006307980, 0.8816609070595591291 ) ) ;
#109 = CIRCLE ( 'NONE', #207, 1.541552392870828125 ) ;
#110 =( NAMED_UNIT ( * ) PLANE_ANGLE_UNIT ( ) SI_UNIT ( $, .RADIAN. ) );
#111 = CARTESIAN_POINT ( 'NONE',  ( 842.3948671577563800, -322.1397819693109454, 393.3312525770223829 ) ) ;
#112 = EDGE_CURVE ( 'NONE', #31, #10, #264, .T. ) ;
#113 = SURFACE_SIDE_STYLE ('',( #176 ) ) ;
#114 = SURFACE_STYLE_USAGE ( .BOTH. , #113 ) ;
#115 = APPLICATION_PROTOCOL_DEFINITION ( 'draft international standard', 'automotive_design', 1998, #93 ) ;
#116 = ORIENTED_EDGE ( 'NONE', *, *, #218, .F. ) ;
#117 = ADVANCED_FACE ( 'NONE', ( #45, #284 ), #70, .T. ) ;
#118 = MANIFOLD_SOLID_BREP ( 'Cut-Extrude1', #208 ) ;
#119 = ORIENTED_EDGE ( 'NONE', *, *, #250, .T. ) ;
#120 = CARTESIAN_POINT ( 'NONE',  ( 842.3948671577563800, -322.1397819693109454, 393.3312525770223829 ) ) ;
#121 = AXIS2_PLACEMENT_3D ( 'NONE', #142, #6, #248 ) ;
#122 = AXIS2_PLACEMENT_3D ( 'NONE', #127, #211, #214 ) ;
#123 = CYLINDRICAL_SURFACE ( 'NONE', #89, 1.541552392870828125 ) ;
#124 = ORIENTED_EDGE ( 'NONE', *, *, #228, .F. ) ;
#125 = EDGE_CURVE ( 'NONE', #281, #102, #104, .T. ) ;
#126 = ORIENTED_EDGE ( 'NONE', *, *, #198, .T. ) ;
#127 = CARTESIAN_POINT ( 'NONE',  ( 841.7342709815604849, -322.1471181892522964, 394.5655778469055122 ) ) ;
#128 = PLANE ( 'NONE',  #122 ) ;
#129 = CARTESIAN_POINT ( 'NONE',  ( 843.1498342162656172, -322.1313977179493122, 391.9205951257270613 ) ) ;
#130 = AXIS2_PLACEMENT_3D ( 'NONE', #57, #58, #54 ) ;
#131 = DIRECTION ( 'NONE',  ( 0.4718544115683060980, 0.005240157101006309714, -0.8816609070595591291 ) ) ;
#132 = CARTESIAN_POINT ( 'NONE',  ( 840.9489446005130731, -322.1680788176563510, 398.6820475877497643 ) ) ;
#133 = EDGE_CURVE ( 'NONE', #180, #230, #261, .T. ) ;
#134 = CARTESIAN_POINT ( 'NONE',  ( 839.8468533352869372, -322.1680788176563510, 398.0922214751435035 ) ) ;
#135 = AXIS2_PLACEMENT_3D ( 'NONE', #205, #203, #53 ) ;
#136 =( NAMED_UNIT ( * ) SI_UNIT ( $, .STERADIAN. ) SOLID_ANGLE_UNIT ( ) );
#137 = ORIENTED_EDGE ( 'NONE', *, *, #183, .T. ) ;
#138 = CARTESIAN_POINT ( 'NONE',  ( 841.7342709815601438, -322.1471181892523532, 394.5655778469052848 ) ) ;
#139 = ORIENTED_EDGE ( 'NONE', *, *, #250, .F. ) ;
#140 = PRODUCT_CONTEXT ( 'NONE', #5, 'mechanical' ) ;
#141 = ORIENTED_EDGE ( 'NONE', *, *, #112, .F. ) ;
#142 = CARTESIAN_POINT ( 'NONE',  ( 843.1498342162653898, -322.1313977179493122, 391.9205951257267770 ) ) ;
#143 = VERTEX_POINT ( 'NONE', #224 ) ;
#144 = UNCERTAINTY_MEASURE_WITH_UNIT (LENGTH_MEASURE( 1.000000000000000082E-05 ), #158, 'distance_accuracy_value', 'NONE');
#145 = ORIENTED_EDGE ( 'NONE', *, *, #133, .T. ) ;
#146 =( GEOMETRIC_REPRESENTATION_CONTEXT ( 3 ) GLOBAL_UNCERTAINTY_ASSIGNED_CONTEXT ( ( #36 ) ) GLOBAL_UNIT_ASSIGNED_CONTEXT ( ( #101, #252, #269 ) ) REPRESENTATION_CONTEXT ( 'NONE', 'WORKASPACE' ) );
#147 = ORIENTED_EDGE ( 'NONE', *, *, #183, .F. ) ;
#148 = AXIS2_PLACEMENT_3D ( 'NONE', #129, #49, #245 ) ;
#149 = EDGE_CURVE ( 'NONE', #16, #10, #28, .T. ) ;
#150 = EDGE_LOOP ( 'NONE', ( #253, #184 ) ) ;
#151 = CYLINDRICAL_SURFACE ( 'NONE', #88, 1.541552392870828125 ) ;
#152 = DIRECTION ( 'NONE',  ( 0.4718544115683061535, 0.005240157101006294102, -0.8816609070595589071 ) ) ;
#153 = DIRECTION ( 'NONE',  ( 0.4718544115683060980, 0.005240157101006308847, -0.8816609070595590181 ) ) ;
#154 = DIRECTION ( 'NONE',  ( 0.4718544115683060425, 0.005240157101006308847, -0.8816609070595590181 ) ) ;
#155 = DIRECTION ( 'NONE',  ( -0.8816730121809180920, 0.000000000000000000, -0.4718608900850191912 ) ) ;
#156 = EDGE_CURVE ( 'NONE', #102, #180, #2, .T. ) ;
#157 = DIRECTION ( 'NONE',  ( 0.4718544115683060425, 0.005240157101006308847, -0.8816609070595590181 ) ) ;
#158 =( LENGTH_UNIT ( ) NAMED_UNIT ( * ) SI_UNIT ( .MILLI., .METRE. ) );
#159 = DIRECTION ( 'NONE',  ( 0.4718544115683060425, 0.005240157101006308847, -0.8816609070595590181 ) ) ;
#160 = ORIENTED_EDGE ( 'NONE', *, *, #276, .F. ) ;
#161 = ORIENTED_EDGE ( 'NONE', *, *, #165, .F. ) ;
#162 = CARTESIAN_POINT ( 'NONE',  ( 843.7540122994134890, -322.1397819693109454, 394.0586508612350940 ) ) ;
#163 = APPLICATION_PROTOCOL_DEFINITION ( 'draft international standard', 'automotive_design', 1998, #5 ) ;
#164 = ORIENTED_EDGE ( 'NONE', *, *, #156, .F. ) ;
#165 = EDGE_CURVE ( 'NONE', #143, #259, #185, .T. ) ;
#166 = DIRECTION ( 'NONE',  ( -0.8816730121809255305, 0.000000000000000000, -0.4718608900850055354 ) ) ;
#167 = PRODUCT_DEFINITION_SHAPE ( 'NONE', 'NONE',  #223 ) ;
#168 = CARTESIAN_POINT ( 'NONE',  ( 839.8468533352869372, -322.1680788176563510, 398.0922214751435035 ) ) ;
#169 = DIRECTION ( 'NONE',  ( -0.8816730121809255305, 0.000000000000000000, -0.4718608900850055354 ) ) ;
#170 = AXIS2_PLACEMENT_3D ( 'NONE', #138, #273, #249 ) ;
#171 = CYLINDRICAL_SURFACE ( 'NONE', #72, 1.249999999999949152 ) ;
#172 = FACE_OUTER_BOUND ( 'NONE', #86, .T. ) ;
#173 = ADVANCED_FACE ( 'NONE', ( #172 ), #267, .F. ) ;
#174 = CARTESIAN_POINT ( 'NONE',  ( 843.1498342162653898, -322.1313977179493122, 391.9205951257267770 ) ) ;
#175 = CARTESIAN_POINT ( 'NONE',  ( 845.3540167467177753, -322.1313977179493122, 393.1002473509393553 ) ) ;
#176 = SURFACE_STYLE_FILL_AREA ( #197 ) ;
#177 = DIRECTION ( 'NONE',  ( 0.000000000000000000, 0.000000000000000000, 1.000000000000000000 ) ) ;
#178 = CIRCLE ( 'NONE', #262, 1.541552392870828125 ) ;
#179 = AXIS2_PLACEMENT_3D ( 'NONE', #282, #108, #191 ) ;
#180 = VERTEX_POINT ( 'NONE', #67 ) ;
#181 = ORIENTED_EDGE ( 'NONE', *, *, #125, .F. ) ;
#182 = DIRECTION ( 'NONE',  ( -0.8816730121809255305, 0.000000000000000000, -0.4718608900850055354 ) ) ;
#183 = EDGE_CURVE ( 'NONE', #31, #227, #21, .T. ) ;
#184 = ORIENTED_EDGE ( 'NONE', *, *, #218, .T. ) ;
#185 = CIRCLE ( 'NONE', #71, 2.499999999999996447 ) ;
#186 = DIRECTION ( 'NONE',  ( 0.4718544115683061535, 0.005240157101006294102, -0.8816609070595589071 ) ) ;
#187 = DIRECTION ( 'NONE',  ( 0.4718544115683060425, 0.005240157101006308847, -0.8816609070595590181 ) ) ;
#188 = CARTESIAN_POINT ( 'NONE',  ( 839.8468533352869372, -322.1680788176563510, 398.0922214751435035 ) ) ;
#189 = EDGE_CURVE ( 'NONE', #100, #259, #92, .T. ) ;
#190 = ORIENTED_EDGE ( 'NONE', *, *, #244, .F. ) ;
#191 = DIRECTION ( 'NONE',  ( 0.8816730121809180920, 0.000000000000000000, 0.4718608900850191912 ) ) ;
#192 = DIRECTION ( 'NONE',  ( -0.8816730121809180920, 0.000000000000000000, -0.4718608900850191912 ) ) ;
#193 = EDGE_CURVE ( 'NONE', #227, #31, #97, .T. ) ;
#194 = DIRECTION ( 'NONE',  ( 0.4718544115683060425, 0.005240157101006308847, -0.8816609070595590181 ) ) ;
#195 = DIRECTION ( 'NONE',  ( -0.8816730121809083220, 0.000000000000000000, -0.4718608900850377319 ) ) ;
#196 = DIRECTION ( 'NONE',  ( -0.8816730121809208676, 0.000000000000000000, -0.4718608900850140841 ) ) ;
#197 = FILL_AREA_STYLE ('',( #96 ) ) ;
#198 = EDGE_CURVE ( 'NONE', #281, #230, #50, .T. ) ;
#199 = ORIENTED_EDGE ( 'NONE', *, *, #133, .F. ) ;
#200 = PRODUCT_DEFINITION_FORMATION_WITH_SPECIFIED_SOURCE ( 'ANY', '', #238, .NOT_KNOWN. ) ;
#201 = DIRECTION ( 'NONE',  ( 0.4718544115683061535, 0.005240157101006293235, -0.8816609070595589071 ) ) ;
#202 = ADVANCED_FACE ( 'NONE', ( #30 ), #271, .T. ) ;
#203 = DIRECTION ( 'NONE',  ( 0.4718544115683062090, 0.005240157101006295837, -0.8816609070595590181 ) ) ;
#204 = ORIENTED_EDGE ( 'NONE', *, *, #9, .T. ) ;
#205 = CARTESIAN_POINT ( 'NONE',  ( 842.3948671577563800, -322.1397819693109454, 393.3312525770223829 ) ) ;
#206 = ORIENTED_EDGE ( 'NONE', *, *, #276, .T. ) ;
#207 = AXIS2_PLACEMENT_3D ( 'NONE', #120, #32, #8 ) ;
#208 = CLOSED_SHELL ( 'NONE', ( #74, #56, #43, #24, #173, #64, #117, #48, #1, #202 ) ) ;
#209 = VECTOR ( 'NONE', #3, 1000.000000000000227 ) ;
#210 = FACE_BOUND ( 'NONE', #256, .T. ) ;
#211 = DIRECTION ( 'NONE',  ( 0.4718544115683060980, 0.005240157101006308847, -0.8816609070595590181 ) ) ;
#212 = AXIS2_PLACEMENT_3D ( 'NONE', #111, #52, #91 ) ;
#213 = ORIENTED_EDGE ( 'NONE', *, *, #112, .T. ) ;
#214 = DIRECTION ( 'NONE',  ( -0.8816730121809208676, 0.000000000000000000, -0.4718608900850140841 ) ) ;
#215 = FACE_OUTER_BOUND ( 'NONE', #274, .T. ) ;
#216 = CARTESIAN_POINT ( 'NONE',  ( 845.3540167467177753, -322.1313977179493122, 393.1002473509393553 ) ) ;
#217 = VECTOR ( 'NONE', #69, 1000.000000000000114 ) ;
#218 = EDGE_CURVE ( 'NONE', #251, #100, #257, .T. ) ;
#219 = VECTOR ( 'NONE', #41, 1000.000000000000114 ) ;
#220 = CARTESIAN_POINT ( 'NONE',  ( 841.0357220160992711, -322.1397819693109454, 392.6038542928096717 ) ) ;
#221 = CARTESIAN_POINT ( 'NONE',  ( 841.7342709815604849, -322.1471181892522964, 394.5655778469055122 ) ) ;
#222 = CARTESIAN_POINT ( 'NONE',  ( 839.8468533352869372, -322.1680788176563510, 398.0922214751435035 ) ) ;
#223 = PRODUCT_DEFINITION ( 'UNKNOWN', '', #200, #17 ) ;
#224 = CARTESIAN_POINT ( 'NONE',  ( 839.5300884511082131, -322.1471181892522964, 393.3859256216929339 ) ) ;
#225 = EDGE_LOOP ( 'NONE', ( #80, #160, #7, #145 ) ) ;
#226 = CARTESIAN_POINT ( 'NONE',  ( 843.9384535120127566, -322.1471181892522964, 395.7452300721180336 ) ) ;
#227 = VERTEX_POINT ( 'NONE', #231 ) ;
#228 = EDGE_CURVE ( 'NONE', #230, #180, #178, .T. ) ;
#229 = SHAPE_DEFINITION_REPRESENTATION ( #167, #37 ) ;
#230 = VERTEX_POINT ( 'NONE', #275 ) ;
#231 = CARTESIAN_POINT ( 'NONE',  ( 838.7447620700609150, -322.1680788176563510, 397.5023953625372997 ) ) ;
#232 = EDGE_LOOP ( 'NONE', ( #242, #213, #255, #190 ) ) ;
#233 = AXIS2_PLACEMENT_3D ( 'NONE', #25, #154, #195 ) ;
#234 = AXIS2_PLACEMENT_3D ( 'NONE', #188, #280, #42 ) ;
#235 = CYLINDRICAL_SURFACE ( 'NONE', #234, 1.249999999999949152 ) ;
#236 = AXIS2_PLACEMENT_3D ( 'NONE', #174, #23, #196 ) ;
#237 = EDGE_LOOP ( 'NONE', ( #141, #137, #90, #139 ) ) ;
#238 = PRODUCT ( 'Button', 'Button', '', ( #140 ) ) ;
#239 = FACE_OUTER_BOUND ( 'NONE', #237, .T. ) ;
#240 = EDGE_CURVE ( 'NONE', #100, #251, #11, .T. ) ;
#241 = CARTESIAN_POINT ( 'NONE',  ( 842.3948671577563800, -322.1397819693109454, 393.3312525770223829 ) ) ;
#242 = ORIENTED_EDGE ( 'NONE', *, *, #193, .T. ) ;
#243 = DIRECTION ( 'NONE',  ( -0.8816730121809083220, 0.000000000000000000, -0.4718608900850377319 ) ) ;
#244 = EDGE_CURVE ( 'NONE', #227, #16, #34, .T. ) ;
#245 = DIRECTION ( 'NONE',  ( -0.8816730121809255305, 0.000000000000000000, -0.4718608900850055354 ) ) ;
#246 = VECTOR ( 'NONE', #159, 1000.000000000000227 ) ;
#247 = AXIS2_PLACEMENT_3D ( 'NONE', #61, #153, #192 ) ;
#248 = DIRECTION ( 'NONE',  ( -0.8816730121809180920, 0.000000000000000000, -0.4718608900850191912 ) ) ;
#249 = DIRECTION ( 'NONE',  ( -0.8816730121809083220, 0.000000000000000000, -0.4718608900850377319 ) ) ;
#250 = EDGE_CURVE ( 'NONE', #10, #16, #38, .T. ) ;
#251 = VERTEX_POINT ( 'NONE', #77 ) ;
#252 =( NAMED_UNIT ( * ) PLANE_ANGLE_UNIT ( ) SI_UNIT ( $, .RADIAN. ) );
#253 = ORIENTED_EDGE ( 'NONE', *, *, #240, .T. ) ;
#254 = DIRECTION ( 'NONE',  ( 0.4718544115683062090, 0.005240157101006294969, -0.8816609070595590181 ) ) ;
#255 = ORIENTED_EDGE ( 'NONE', *, *, #149, .F. ) ;
#256 = EDGE_LOOP ( 'NONE', ( #59, #119 ) ) ;
#257 = CIRCLE ( 'NONE', #130, 2.499999999999996447 ) ;
#258 = DIRECTION ( 'NONE',  ( 0.8816730121809180920, 0.000000000000000000, 0.4718608900850191912 ) ) ;
#259 = VERTEX_POINT ( 'NONE', #226 ) ;
#260 = FACE_OUTER_BOUND ( 'NONE', #55, .T. ) ;
#261 = CIRCLE ( 'NONE', #148, 1.541552392870828125 ) ;
#262 = AXIS2_PLACEMENT_3D ( 'NONE', #35, #254, #182 ) ;
#263 = FACE_OUTER_BOUND ( 'NONE', #277, .T. ) ;
#264 = LINE ( 'NONE', #132, #209 ) ;
#265 = DIRECTION ( 'NONE',  ( -0.8816730121809208676, 0.000000000000000000, -0.4718608900850140286 ) ) ;
#266 = CARTESIAN_POINT ( 'NONE',  ( 841.7342709815601438, -322.1471181892523532, 394.5655778469052848 ) ) ;
#267 = PLANE ( 'NONE',  #51 ) ;
#268 = DIRECTION ( 'NONE',  ( 1.000000000000000000, 0.000000000000000000, 0.000000000000000000 ) ) ;
#269 =( NAMED_UNIT ( * ) SI_UNIT ( $, .STERADIAN. ) SOLID_ANGLE_UNIT ( ) );
#270 = ORIENTED_EDGE ( 'NONE', *, *, #240, .F. ) ;
#271 = PLANE ( 'NONE',  #135 ) ;
#272 = ORIENTED_EDGE ( 'NONE', *, *, #95, .F. ) ;
#273 = DIRECTION ( 'NONE',  ( 0.4718544115683060425, 0.005240157101006308847, -0.8816609070595590181 ) ) ;
#274 = EDGE_LOOP ( 'NONE', ( #44, #270, #75, #18 ) ) ;
#275 = CARTESIAN_POINT ( 'NONE',  ( 844.5089793579228399, -322.1313977179493122, 392.6479934099397724 ) ) ;
#276 = EDGE_CURVE ( 'NONE', #102, #281, #109, .T. ) ;
#277 = EDGE_LOOP ( 'NONE', ( #116, #204, #99, #73 ) ) ;
#278 = EDGE_LOOP ( 'NONE', ( #206, #84 ) ) ;
#279 = DIRECTION ( 'NONE',  ( -0.4718544115683061535, -0.005240157101006307980, 0.8816609070595591291 ) ) ;
#280 = DIRECTION ( 'NONE',  ( 0.4718544115683060425, 0.005240157101006308847, -0.8816609070595590181 ) ) ;
#281 = VERTEX_POINT ( 'NONE', #162 ) ;
#282 = CARTESIAN_POINT ( 'NONE',  ( 843.1498342162653898, -322.1313977179493122, 391.9205951257267770 ) ) ;
#283 = STYLED_ITEM ( 'NONE', ( #47 ), #118 ) ;
#284 = FACE_OUTER_BOUND ( 'NONE', #150, .T. ) ;
#285 = DIRECTION ( 'NONE',  ( 0.4718544115683060980, 0.005240157101006308847, -0.8816609070595590181 ) ) ;
ENDSEC;
END-ISO-10303-21;
