ISO-10303-21;
HEADER;
FILE_DESCRIPTION (( 'STEP AP214' ),
    '1' );
FILE_NAME ('Button^Shadowfang_Enclosure_V1.STEP',
    '2026-01-18T23:30:12',
    ( '' ),
    ( '' ),
    'SwSTEP 2.0',
    'SolidWorks 2026',
    '' );
FILE_SCHEMA (( 'AUTOMOTIVE_DESIGN' ));
ENDSEC;

DATA;
#1 = MECHANICAL_DESIGN_GEOMETRIC_PRESENTATION_REPRESENTATION (  '', ( #61 ), #188 ) ;
#2 = FILL_AREA_STYLE_COLOUR ( '', #183 ) ;
#3 = CARTESIAN_POINT ( 'NONE',  ( 1458.728298140134939, -606.9527325357714744, 791.6163597808839540 ) ) ;
#4 = AXIS2_PLACEMENT_3D ( 'NONE', #256, #37, #77 ) ;
#5 = EDGE_LOOP ( 'NONE', ( #138, #116 ) ) ;
#6 = AXIS2_PLACEMENT_3D ( 'NONE', #238, #164, #187 ) ;
#7 = ORIENTED_EDGE ( 'NONE', *, *, #18, .F. ) ;
#8 = ADVANCED_FACE ( 'NONE', ( #195 ), #235, .T. ) ;
#9 = APPLICATION_CONTEXT ( 'automotive_design' ) ;
#10 = ORIENTED_EDGE ( 'NONE', *, *, #18, .T. ) ;
#11 = VECTOR ( 'NONE', #103, 1000.000000000000000 ) ;
#12 = EDGE_LOOP ( 'NONE', ( #34, #250 ) ) ;
#13 = PRODUCT_RELATED_PRODUCT_CATEGORY ( 'part', '', ( #120 ) ) ;
#14 = CARTESIAN_POINT ( 'NONE',  ( 1457.942952667010786, -606.9736812247386979, 795.7328259401367632 ) ) ;
#15 = CARTESIAN_POINT ( 'NONE',  ( 1456.524121072447315, -606.9527325357717018, 790.4366973485429071 ) ) ;
#16 = LINE ( 'NONE', #57, #172 ) ;
#17 = CARTESIAN_POINT ( 'NONE',  ( 1459.554050518185250, -606.9435674843485913, 790.0734569932858449 ) ) ;
#18 = EDGE_CURVE ( 'NONE', #186, #137, #56, .T. ) ;
#19 = DIRECTION ( 'NONE',  ( 0.4718585017421622063, 0.005237172241809647834, -0.8816587357705654160 ) ) ;
#20 = CIRCLE ( 'NONE', #102, 1.541552392870866761 ) ;
#21 = SURFACE_STYLE_FILL_AREA ( #65 ) ;
#22 = UNCERTAINTY_MEASURE_WITH_UNIT (LENGTH_MEASURE( 1.000000000000000082E-05 ), #72, 'distance_accuracy_value', 'NONE');
#23 = EDGE_CURVE ( 'NONE', #137, #186, #126, .T. ) ;
#24 = CARTESIAN_POINT ( 'NONE',  ( 1460.913192291387531, -606.9435674843485913, 790.8008615714279586 ) ) ;
#25 = CIRCLE ( 'NONE', #270, 1.541552392870866761 ) ;
#26 = DIRECTION ( 'NONE',  ( -0.8816708270753464971, 0.000000000000000000, -0.4718649729364050027 ) ) ;
#27 = DIRECTION ( 'NONE',  ( -0.8816708270753464971, 0.000000000000000000, -0.4718649729364050027 ) ) ;
#28 = ORIENTED_EDGE ( 'NONE', *, *, #261, .F. ) ;
#29 = CIRCLE ( 'NONE', #125, 2.500000000000072387 ) ;
#30 = VERTEX_POINT ( 'NONE', #39 ) ;
#31 = EDGE_CURVE ( 'NONE', #52, #71, #44, .T. ) ;
#32 = CARTESIAN_POINT ( 'NONE',  ( 1462.395236563224898, -606.9364973018222145, 790.0628801323364314 ) ) ;
#33 = ORIENTED_EDGE ( 'NONE', *, *, #275, .T. ) ;
#34 = ORIENTED_EDGE ( 'NONE', *, *, #263, .F. ) ;
#35 = ORIENTED_EDGE ( 'NONE', *, *, #170, .T. ) ;
#36 = ADVANCED_FACE ( 'NONE', ( #215 ), #211, .T. ) ;
#37 = DIRECTION ( 'NONE',  ( 0.4718585017421620953, 0.005237172241809702478, -0.8816587357705654160 ) ) ;
#38 = DIRECTION ( 'NONE',  ( -0.4718585017421621508, -0.005237172241809743244, 0.8816587357705655270 ) ) ;
#39 = CARTESIAN_POINT ( 'NONE',  ( 1460.913192291387531, -606.9435674843485913, 790.8008615714279586 ) ) ;
#40 = CARTESIAN_POINT ( 'NONE',  ( 1462.395236563224898, -606.9364973018222145, 790.0628801323364314 ) ) ;
#41 = CARTESIAN_POINT ( 'NONE',  ( 1460.191059495536592, -606.9364973018222145, 788.8832176999952708 ) ) ;
#42 = LINE ( 'NONE', #199, #219 ) ;
#43 = AXIS2_PLACEMENT_3D ( 'NONE', #64, #241, #26 ) ;
#44 = CIRCLE ( 'NONE', #213, 2.500000000000072387 ) ;
#45 = CARTESIAN_POINT ( 'NONE',  ( 1460.191059495536592, -606.9364973018222145, 788.8832176999952708 ) ) ;
#46 = FACE_OUTER_BOUND ( 'NONE', #247, .T. ) ;
#47 = DIRECTION ( 'NONE',  ( 0.4718585017421620953, 0.005237172241809743244, -0.8816587357705653050 ) ) ;
#48 = APPLICATION_PROTOCOL_DEFINITION ( 'draft international standard', 'automotive_design', 1998, #9 ) ;
#49 = EDGE_LOOP ( 'NONE', ( #181, #50, #266, #267 ) ) ;
#50 = ORIENTED_EDGE ( 'NONE', *, *, #214, .F. ) ;
#51 = CIRCLE ( 'NONE', #87, 1.250000000000010214 ) ;
#52 = VERTEX_POINT ( 'NONE', #169 ) ;
#53 = EDGE_LOOP ( 'NONE', ( #162, #10, #180, #28 ) ) ;
#54 = CARTESIAN_POINT ( 'NONE',  ( 1457.986882427848059, -606.9364973018222145, 787.7035552676541101 ) ) ;
#55 = PRESENTATION_LAYER_ASSIGNMENT (  '', '', ( #61 ) ) ;
#56 = CIRCLE ( 'NONE', #166, 1.250000000000010214 ) ;
#57 = CARTESIAN_POINT ( 'NONE',  ( 1455.738775599322253, -606.9736812247386979, 794.5531635077957162 ) ) ;
#58 = CARTESIAN_POINT ( 'NONE',  ( 1458.831917722334765, -606.9364973018222145, 788.1558131218533845 ) ) ;
#59 = EDGE_CURVE ( 'NONE', #75, #148, #112, .T. ) ;
#60 = CARTESIAN_POINT ( 'NONE',  ( 1461.550201268739556, -606.9364973018222145, 789.6106222781376118 ) ) ;
#61 = STYLED_ITEM ( 'NONE', ( #176 ), #194 ) ;
#62 = DIRECTION ( 'NONE',  ( -0.8816708270753281784, 0.000000000000000000, -0.4718649729364395862 ) ) ;
#63 = LINE ( 'NONE', #24, #11 ) ;
#64 = CARTESIAN_POINT ( 'NONE',  ( 1456.840864133166406, -606.9736812247386979, 795.1429947239662397 ) ) ;
#65 = FILL_AREA_STYLE ('',( #2 ) ) ;
#66 = CARTESIAN_POINT ( 'NONE',  ( 1456.840864133166406, -606.9736812247386979, 795.1429947239662397 ) ) ;
#67 = CARTESIAN_POINT ( 'NONE',  ( 0.000000000000000000, 0.000000000000000000, 0.000000000000000000 ) ) ;
#68 = EDGE_CURVE ( 'NONE', #73, #133, #20, .T. ) ;
#69 = ORIENTED_EDGE ( 'NONE', *, *, #174, .T. ) ;
#70 = DIRECTION ( 'NONE',  ( 0.4718585017421620953, 0.005237172241809701610, -0.8816587357705654160 ) ) ;
#71 = VERTEX_POINT ( 'NONE', #15 ) ;
#72 =( LENGTH_UNIT ( ) NAMED_UNIT ( * ) SI_UNIT ( .MILLI., .METRE. ) );
#73 = VERTEX_POINT ( 'NONE', #60 ) ;
#74 = VERTEX_POINT ( 'NONE', #123 ) ;
#75 = VERTEX_POINT ( 'NONE', #40 ) ;
#76 = AXIS2_PLACEMENT_3D ( 'NONE', #184, #70, #268 ) ;
#77 = DIRECTION ( 'NONE',  ( -0.8816708270753357279, 0.000000000000000000, -0.4718649729364253198 ) ) ;
#78 = CARTESIAN_POINT ( 'NONE',  ( 1460.191059495536592, -606.9364973018222145, 788.8832176999952708 ) ) ;
#79 = DIRECTION ( 'NONE',  ( -0.8816708270753221832, 0.000000000000000000, -0.4718649729364506884 ) ) ;
#80 = PLANE ( 'NONE',  #196 ) ;
#81 = FACE_BOUND ( 'NONE', #12, .T. ) ;
#82 = DIRECTION ( 'NONE',  ( -0.4718585017421620953, -0.005237172241809742376, 0.8816587357705654160 ) ) ;
#83 =( GEOMETRIC_REPRESENTATION_CONTEXT ( 3 ) GLOBAL_UNCERTAINTY_ASSIGNED_CONTEXT ( ( #22 ) ) GLOBAL_UNIT_ASSIGNED_CONTEXT ( ( #72, #265, #159 ) ) REPRESENTATION_CONTEXT ( 'NONE', 'WORKASPACE' ) );
#84 = DIRECTION ( 'NONE',  ( -0.8816708270753221832, 0.000000000000000000, -0.4718649729364506884 ) ) ;
#85 = PRODUCT_DEFINITION_CONTEXT ( 'detailed design', #9, 'design' ) ;
#86 =( LENGTH_UNIT ( ) NAMED_UNIT ( * ) SI_UNIT ( .MILLI., .METRE. ) );
#87 = AXIS2_PLACEMENT_3D ( 'NONE', #153, #243, #27 ) ;
#88 = EDGE_CURVE ( 'NONE', #186, #233, #217, .T. ) ;
#89 = PLANE ( 'NONE',  #151 ) ;
#90 = FACE_OUTER_BOUND ( 'NONE', #160, .T. ) ;
#91 = ORIENTED_EDGE ( 'NONE', *, *, #59, .F. ) ;
#92 = CARTESIAN_POINT ( 'NONE',  ( 1456.840864133166406, -606.9736812247386979, 795.1429947239662397 ) ) ;
#93 = ORIENTED_EDGE ( 'NONE', *, *, #23, .F. ) ;
#94 = CIRCLE ( 'NONE', #139, 1.541552392870866761 ) ;
#95 = ORIENTED_EDGE ( 'NONE', *, *, #68, .T. ) ;
#96 = VERTEX_POINT ( 'NONE', #283 ) ;
#97 = PLANE ( 'NONE',  #4 ) ;
#98 = CARTESIAN_POINT ( 'NONE',  ( 1458.728298140135621, -606.9527325357717018, 791.6163597808839540 ) ) ;
#99 = EDGE_LOOP ( 'NONE', ( #35, #208 ) ) ;
#100 = CARTESIAN_POINT ( 'NONE',  ( 1456.840864133166406, -606.9736812247386979, 795.1429947239662397 ) ) ;
#101 = DIRECTION ( 'NONE',  ( 0.4718585017421622063, 0.005237172241809647834, -0.8816587357705654160 ) ) ;
#102 = AXIS2_PLACEMENT_3D ( 'NONE', #144, #143, #212 ) ;
#103 = DIRECTION ( 'NONE',  ( 0.4718585017421620953, 0.005237172241809700743, -0.8816587357705654160 ) ) ;
#104 = DIRECTION ( 'NONE',  ( -0.8816708270753221832, 0.000000000000000000, -0.4718649729364506884 ) ) ;
#105 = DIRECTION ( 'NONE',  ( 0.4718585017421620953, 0.005237172241809700743, -0.8816587357705654160 ) ) ;
#106 = EDGE_CURVE ( 'NONE', #137, #74, #16, .T. ) ;
#107 = AXIS2_PLACEMENT_3D ( 'NONE', #255, #193, #79 ) ;
#108 = CARTESIAN_POINT ( 'NONE',  ( 1459.830386673979319, -606.9527325357714744, 792.2061909970545912 ) ) ;
#109 = FACE_OUTER_BOUND ( 'NONE', #274, .T. ) ;
#110 = EDGE_CURVE ( 'NONE', #71, #52, #29, .T. ) ;
#111 = EDGE_LOOP ( 'NONE', ( #246, #69, #95, #269 ) ) ;
#112 = CIRCLE ( 'NONE', #147, 2.500000000000072387 ) ;
#113 = ORIENTED_EDGE ( 'NONE', *, *, #31, .T. ) ;
#114 = ADVANCED_FACE ( 'NONE', ( #278 ), #97, .T. ) ;
#115 = ORIENTED_EDGE ( 'NONE', *, *, #106, .F. ) ;
#116 = ORIENTED_EDGE ( 'NONE', *, *, #142, .T. ) ;
#117 = DIRECTION ( 'NONE',  ( 0.4718585017421620953, 0.005237172241809701610, -0.8816587357705654160 ) ) ;
#118 = ADVANCED_FACE ( 'NONE', ( #279 ), #168, .F. ) ;
#119 = CARTESIAN_POINT ( 'NONE',  ( 1458.728298140135621, -606.9527325357717018, 791.6163597808839540 ) ) ;
#120 = PRODUCT ( 'Button^Shadowfang_Enclosure_V1', 'Button^Shadowfang_Enclosure_V1', '', ( #272 ) ) ;
#121 = DIRECTION ( 'NONE',  ( 0.4718585017421620953, 0.005237172241809743244, -0.8816587357705653050 ) ) ;
#122 = DIRECTION ( 'NONE',  ( 0.4718585017421620953, 0.005237172241809700743, -0.8816587357705654160 ) ) ;
#123 = CARTESIAN_POINT ( 'NONE',  ( 1457.626209606290786, -606.9527325357714744, 791.0265285647134306 ) ) ;
#124 = DIRECTION ( 'NONE',  ( -0.8816708270753281784, 0.000000000000000000, -0.4718649729364395862 ) ) ;
#125 = AXIS2_PLACEMENT_3D ( 'NONE', #98, #280, #189 ) ;
#126 = CIRCLE ( 'NONE', #6, 1.250000000000010214 ) ;
#127 = CYLINDRICAL_SURFACE ( 'NONE', #130, 1.250000000000010214 ) ;
#128 = PLANE ( 'NONE',  #154 ) ;
#129 = DIRECTION ( 'NONE',  ( 0.4718585017421621508, 0.005237172241809742376, -0.8816587357705654160 ) ) ;
#130 = AXIS2_PLACEMENT_3D ( 'NONE', #66, #284, #198 ) ;
#131 = DIRECTION ( 'NONE',  ( -0.8816708270753464971, 0.000000000000000000, -0.4718649729364050027 ) ) ;
#132 = DIRECTION ( 'NONE',  ( -0.8816708270753356169, 0.000000000000000000, -0.4718649729364253753 ) ) ;
#133 = VERTEX_POINT ( 'NONE', #58 ) ;
#134 = ORIENTED_EDGE ( 'NONE', *, *, #163, .T. ) ;
#135 = ORIENTED_EDGE ( 'NONE', *, *, #201, .F. ) ;
#136 = EDGE_CURVE ( 'NONE', #96, #133, #146, .T. ) ;
#137 = VERTEX_POINT ( 'NONE', #216 ) ;
#138 = ORIENTED_EDGE ( 'NONE', *, *, #214, .T. ) ;
#139 = AXIS2_PLACEMENT_3D ( 'NONE', #221, #242, #104 ) ;
#140 = AXIS2_PLACEMENT_3D ( 'NONE', #3, #149, #131 ) ;
#141 = FACE_OUTER_BOUND ( 'NONE', #49, .T. ) ;
#142 = EDGE_CURVE ( 'NONE', #30, #96, #25, .T. ) ;
#143 = DIRECTION ( 'NONE',  ( 0.4718585017421620953, 0.005237172241809701610, -0.8816587357705654160 ) ) ;
#144 = CARTESIAN_POINT ( 'NONE',  ( 1460.191059495537274, -606.9364973018222145, 788.8832176999954982 ) ) ;
#145 = APPLICATION_CONTEXT ( 'automotive_design' ) ;
#146 = LINE ( 'NONE', #237, #165 ) ;
#147 = AXIS2_PLACEMENT_3D ( 'NONE', #41, #251, #276 ) ;
#148 = VERTEX_POINT ( 'NONE', #54 ) ;
#149 = DIRECTION ( 'NONE',  ( 0.4718585017421621508, 0.005237172241809646099, -0.8816587357705653050 ) ) ;
#150 = SURFACE_STYLE_USAGE ( .BOTH. , #175 ) ;
#151 = AXIS2_PLACEMENT_3D ( 'NONE', #92, #203, #132 ) ;
#152 =( NAMED_UNIT ( * ) PLANE_ANGLE_UNIT ( ) SI_UNIT ( $, .RADIAN. ) );
#153 = CARTESIAN_POINT ( 'NONE',  ( 1458.728298140134939, -606.9527325357714744, 791.6163597808839540 ) ) ;
#154 = AXIS2_PLACEMENT_3D ( 'NONE', #177, #129, #262 ) ;
#155 = ORIENTED_EDGE ( 'NONE', *, *, #201, .T. ) ;
#156 = ORIENTED_EDGE ( 'NONE', *, *, #275, .F. ) ;
#157 = ADVANCED_FACE ( 'NONE', ( #141 ), #222, .F. ) ;
#158 = PRODUCT_DEFINITION_FORMATION_WITH_SPECIFIED_SOURCE ( 'ANY', '', #120, .NOT_KNOWN. ) ;
#159 =( NAMED_UNIT ( * ) SI_UNIT ( $, .STERADIAN. ) SOLID_ANGLE_UNIT ( ) );
#160 = EDGE_LOOP ( 'NONE', ( #93, #7 ) ) ;
#161 = DIRECTION ( 'NONE',  ( -0.4718585017421620953, -0.005237172241809742376, 0.8816587357705654160 ) ) ;
#162 = ORIENTED_EDGE ( 'NONE', *, *, #88, .F. ) ;
#163 = EDGE_CURVE ( 'NONE', #148, #71, #42, .T. ) ;
#164 = DIRECTION ( 'NONE',  ( 0.4718585017421621508, 0.005237172241809646099, -0.8816587357705653050 ) ) ;
#165 = VECTOR ( 'NONE', #122, 1000.000000000000000 ) ;
#166 = AXIS2_PLACEMENT_3D ( 'NONE', #100, #171, #167 ) ;
#167 = DIRECTION ( 'NONE',  ( -0.8816708270753464971, 0.000000000000000000, -0.4718649729364050027 ) ) ;
#168 = CYLINDRICAL_SURFACE ( 'NONE', #107, 1.541552392870866761 ) ;
#169 = CARTESIAN_POINT ( 'NONE',  ( 1460.932475207824382, -606.9527325357717018, 792.7960222132251147 ) ) ;
#170 = EDGE_CURVE ( 'NONE', #74, #233, #209, .T. ) ;
#171 = DIRECTION ( 'NONE',  ( 0.4718585017421621508, 0.005237172241809646099, -0.8816587357705653050 ) ) ;
#172 = VECTOR ( 'NONE', #101, 999.9999999999998863 ) ;
#173 = CARTESIAN_POINT ( 'NONE',  ( 1459.554050518185250, -606.9435674843485913, 790.0734569932858449 ) ) ;
#174 = EDGE_CURVE ( 'NONE', #30, #73, #63, .T. ) ;
#175 = SURFACE_SIDE_STYLE ('',( #21 ) ) ;
#176 = PRESENTATION_STYLE_ASSIGNMENT (( #150 ) ) ;
#177 = CARTESIAN_POINT ( 'NONE',  ( 1458.728298140135621, -606.9527325357717018, 791.6163597808839540 ) ) ;
#178 = PRODUCT_DEFINITION ( 'UNKNOWN', '', #158, #85 ) ;
#179 = LINE ( 'NONE', #32, #240 ) ;
#180 = ORIENTED_EDGE ( 'NONE', *, *, #106, .T. ) ;
#181 = ORIENTED_EDGE ( 'NONE', *, *, #174, .F. ) ;
#182 = ORIENTED_EDGE ( 'NONE', *, *, #170, .F. ) ;
#183 = COLOUR_RGB ( '',0.7921568627450980005, 0.8196078431372548767, 0.9333333333333333481 ) ;
#184 = CARTESIAN_POINT ( 'NONE',  ( 1460.191059495537274, -606.9364973018222145, 788.8832176999954982 ) ) ;
#185 = ORIENTED_EDGE ( 'NONE', *, *, #88, .T. ) ;
#186 = VERTEX_POINT ( 'NONE', #239 ) ;
#187 = DIRECTION ( 'NONE',  ( -0.8816708270753464971, 0.000000000000000000, -0.4718649729364050027 ) ) ;
#188 =( GEOMETRIC_REPRESENTATION_CONTEXT ( 3 ) GLOBAL_UNCERTAINTY_ASSIGNED_CONTEXT ( ( #202 ) ) GLOBAL_UNIT_ASSIGNED_CONTEXT ( ( #86, #152, #258 ) ) REPRESENTATION_CONTEXT ( 'NONE', 'WORKASPACE' ) );
#189 = DIRECTION ( 'NONE',  ( -0.8816708270753281784, 0.000000000000000000, -0.4718649729364395862 ) ) ;
#190 = CARTESIAN_POINT ( 'NONE',  ( 1460.191059495536592, -606.9364973018222145, 788.8832176999952708 ) ) ;
#191 = ADVANCED_FACE ( 'NONE', ( #81, #109 ), #80, .T. ) ;
#192 = ADVANCED_BREP_SHAPE_REPRESENTATION ( 'Button^Shadowfang_Enclosure_V1', ( #194, #248 ), #83 ) ;
#193 = DIRECTION ( 'NONE',  ( 0.4718585017421620953, 0.005237172241809700743, -0.8816587357705654160 ) ) ;
#194 = MANIFOLD_SOLID_BREP ( 'Cut-Extrude1', #271 ) ;
#195 = FACE_OUTER_BOUND ( 'NONE', #204, .T. ) ;
#196 = AXIS2_PLACEMENT_3D ( 'NONE', #197, #259, #225 ) ;
#197 = CARTESIAN_POINT ( 'NONE',  ( 1460.191059495536592, -606.9364973018222145, 788.8832176999952708 ) ) ;
#198 = DIRECTION ( 'NONE',  ( -0.8816708270753464971, 0.000000000000000000, -0.4718649729364050027 ) ) ;
#199 = CARTESIAN_POINT ( 'NONE',  ( 1457.986882427848059, -606.9364973018222145, 787.7035552676541101 ) ) ;
#200 = VECTOR ( 'NONE', #19, 999.9999999999998863 ) ;
#201 = EDGE_CURVE ( 'NONE', #148, #75, #224, .T. ) ;
#202 = UNCERTAINTY_MEASURE_WITH_UNIT (LENGTH_MEASURE( 1.000000000000000082E-05 ), #86, 'distance_accuracy_value', 'NONE');
#203 = DIRECTION ( 'NONE',  ( 0.4718585017421621508, 0.005237172241809646966, -0.8816587357705653050 ) ) ;
#204 = EDGE_LOOP ( 'NONE', ( #273, #91, #33, #113 ) ) ;
#205 = CIRCLE ( 'NONE', #76, 1.541552392870866761 ) ;
#206 = ORIENTED_EDGE ( 'NONE', *, *, #110, .F. ) ;
#207 = EDGE_LOOP ( 'NONE', ( #135, #134, #230, #156 ) ) ;
#208 = ORIENTED_EDGE ( 'NONE', *, *, #261, .T. ) ;
#209 = CIRCLE ( 'NONE', #140, 1.250000000000010214 ) ;
#210 = PRODUCT_DEFINITION_SHAPE ( 'NONE', 'NONE',  #178 ) ;
#211 = CYLINDRICAL_SURFACE ( 'NONE', #252, 2.500000000000072387 ) ;
#212 = DIRECTION ( 'NONE',  ( -0.8816708270753221832, 0.000000000000000000, -0.4718649729364506884 ) ) ;
#213 = AXIS2_PLACEMENT_3D ( 'NONE', #119, #121, #62 ) ;
#214 = EDGE_CURVE ( 'NONE', #96, #30, #94, .T. ) ;
#215 = FACE_OUTER_BOUND ( 'NONE', #207, .T. ) ;
#216 = CARTESIAN_POINT ( 'NONE',  ( 1455.738775599322253, -606.9736812247386979, 794.5531635077957162 ) ) ;
#217 = LINE ( 'NONE', #14, #200 ) ;
#218 = ADVANCED_FACE ( 'NONE', ( #220 ), #127, .T. ) ;
#219 = VECTOR ( 'NONE', #82, 1000.000000000000114 ) ;
#220 = FACE_OUTER_BOUND ( 'NONE', #53, .T. ) ;
#221 = CARTESIAN_POINT ( 'NONE',  ( 1459.554050518185250, -606.9435674843485913, 790.0734569932858449 ) ) ;
#222 = CYLINDRICAL_SURFACE ( 'NONE', #277, 1.541552392870866761 ) ;
#223 = CYLINDRICAL_SURFACE ( 'NONE', #43, 1.250000000000010214 ) ;
#224 = CIRCLE ( 'NONE', #282, 2.500000000000072387 ) ;
#225 = DIRECTION ( 'NONE',  ( -0.8816708270753356169, 0.000000000000000000, -0.4718649729364253198 ) ) ;
#226 = SHAPE_DEFINITION_REPRESENTATION ( #210, #192 ) ;
#227 = ORIENTED_EDGE ( 'NONE', *, *, #31, .F. ) ;
#228 = ADVANCED_FACE ( 'NONE', ( #285, #46 ), #128, .F. ) ;
#229 = ORIENTED_EDGE ( 'NONE', *, *, #23, .T. ) ;
#230 = ORIENTED_EDGE ( 'NONE', *, *, #110, .T. ) ;
#231 = DIRECTION ( 'NONE',  ( 0.000000000000000000, 0.000000000000000000, 1.000000000000000000 ) ) ;
#232 = ADVANCED_FACE ( 'NONE', ( #260 ), #223, .T. ) ;
#233 = VERTEX_POINT ( 'NONE', #108 ) ;
#234 = DIRECTION ( 'NONE',  ( -0.4718585017421621508, -0.005237172241809743244, 0.8816587357705655270 ) ) ;
#235 = CYLINDRICAL_SURFACE ( 'NONE', #253, 2.500000000000072387 ) ;
#236 = DIRECTION ( 'NONE',  ( 0.8816708270753281784, 0.000000000000000000, 0.4718649729364395862 ) ) ;
#237 = CARTESIAN_POINT ( 'NONE',  ( 1458.194908744982740, -606.9435674843485913, 789.3460524151436175 ) ) ;
#238 = CARTESIAN_POINT ( 'NONE',  ( 1456.840864133166406, -606.9736812247386979, 795.1429947239662397 ) ) ;
#239 = CARTESIAN_POINT ( 'NONE',  ( 1457.942952667010786, -606.9736812247386979, 795.7328259401367632 ) ) ;
#240 = VECTOR ( 'NONE', #161, 1000.000000000000114 ) ;
#241 = DIRECTION ( 'NONE',  ( 0.4718585017421621508, 0.005237172241809646966, -0.8816587357705653050 ) ) ;
#242 = DIRECTION ( 'NONE',  ( 0.4718585017421620953, 0.005237172241809701610, -0.8816587357705654160 ) ) ;
#243 = DIRECTION ( 'NONE',  ( 0.4718585017421621508, 0.005237172241809646099, -0.8816587357705653050 ) ) ;
#244 = APPLICATION_PROTOCOL_DEFINITION ( 'draft international standard', 'automotive_design', 1998, #145 ) ;
#245 = ORIENTED_EDGE ( 'NONE', *, *, #59, .T. ) ;
#246 = ORIENTED_EDGE ( 'NONE', *, *, #142, .F. ) ;
#247 = EDGE_LOOP ( 'NONE', ( #227, #206 ) ) ;
#248 = AXIS2_PLACEMENT_3D ( 'NONE', #67, #231, #264 ) ;
#249 = EDGE_LOOP ( 'NONE', ( #229, #185, #182, #115 ) ) ;
#250 = ORIENTED_EDGE ( 'NONE', *, *, #68, .F. ) ;
#251 = DIRECTION ( 'NONE',  ( 0.4718585017421620953, 0.005237172241809743244, -0.8816587357705653050 ) ) ;
#252 = AXIS2_PLACEMENT_3D ( 'NONE', #78, #234, #254 ) ;
#253 = AXIS2_PLACEMENT_3D ( 'NONE', #190, #38, #236 ) ;
#254 = DIRECTION ( 'NONE',  ( 0.8816708270753281784, 0.000000000000000000, 0.4718649729364395862 ) ) ;
#255 = CARTESIAN_POINT ( 'NONE',  ( 1459.554050518185250, -606.9435674843485913, 790.0734569932858449 ) ) ;
#256 = CARTESIAN_POINT ( 'NONE',  ( 1459.554050518185250, -606.9435674843485913, 790.0734569932858449 ) ) ;
#257 = DIRECTION ( 'NONE',  ( -0.8816708270753221832, 0.000000000000000000, -0.4718649729364506884 ) ) ;
#258 =( NAMED_UNIT ( * ) SI_UNIT ( $, .STERADIAN. ) SOLID_ANGLE_UNIT ( ) );
#259 = DIRECTION ( 'NONE',  ( 0.4718585017421621508, 0.005237172241809742376, -0.8816587357705654160 ) ) ;
#260 = FACE_OUTER_BOUND ( 'NONE', #249, .T. ) ;
#261 = EDGE_CURVE ( 'NONE', #233, #74, #51, .T. ) ;
#262 = DIRECTION ( 'NONE',  ( -0.8816708270753356169, 0.000000000000000000, -0.4718649729364253198 ) ) ;
#263 = EDGE_CURVE ( 'NONE', #133, #73, #205, .T. ) ;
#264 = DIRECTION ( 'NONE',  ( 1.000000000000000000, 0.000000000000000000, 0.000000000000000000 ) ) ;
#265 =( NAMED_UNIT ( * ) PLANE_ANGLE_UNIT ( ) SI_UNIT ( $, .RADIAN. ) );
#266 = ORIENTED_EDGE ( 'NONE', *, *, #136, .T. ) ;
#267 = ORIENTED_EDGE ( 'NONE', *, *, #263, .T. ) ;
#268 = DIRECTION ( 'NONE',  ( -0.8816708270753221832, 0.000000000000000000, -0.4718649729364506884 ) ) ;
#269 = ORIENTED_EDGE ( 'NONE', *, *, #136, .F. ) ;
#270 = AXIS2_PLACEMENT_3D ( 'NONE', #17, #117, #257 ) ;
#271 = CLOSED_SHELL ( 'NONE', ( #118, #36, #232, #218, #281, #8, #191, #228, #157, #114 ) ) ;
#272 = PRODUCT_CONTEXT ( 'NONE', #145, 'mechanical' ) ;
#273 = ORIENTED_EDGE ( 'NONE', *, *, #163, .F. ) ;
#274 = EDGE_LOOP ( 'NONE', ( #245, #155 ) ) ;
#275 = EDGE_CURVE ( 'NONE', #75, #52, #179, .T. ) ;
#276 = DIRECTION ( 'NONE',  ( -0.8816708270753281784, 0.000000000000000000, -0.4718649729364395862 ) ) ;
#277 = AXIS2_PLACEMENT_3D ( 'NONE', #173, #105, #84 ) ;
#278 = FACE_OUTER_BOUND ( 'NONE', #5, .T. ) ;
#279 = FACE_OUTER_BOUND ( 'NONE', #111, .T. ) ;
#280 = DIRECTION ( 'NONE',  ( 0.4718585017421620953, 0.005237172241809743244, -0.8816587357705653050 ) ) ;
#281 = ADVANCED_FACE ( 'NONE', ( #90 ), #89, .F. ) ;
#282 = AXIS2_PLACEMENT_3D ( 'NONE', #45, #47, #124 ) ;
#283 = CARTESIAN_POINT ( 'NONE',  ( 1458.194908744982740, -606.9435674843485913, 789.3460524151436175 ) ) ;
#284 = DIRECTION ( 'NONE',  ( 0.4718585017421621508, 0.005237172241809646966, -0.8816587357705653050 ) ) ;
#285 = FACE_BOUND ( 'NONE', #99, .T. ) ;
ENDSEC;
END-ISO-10303-21;
