ISO-10303-21;
HEADER;
FILE_DESCRIPTION (( 'STEP AP214' ),
    '1' );
FILE_NAME ('Enclosure^Shadowfang_Enclosure_V1.STEP',
    '2026-01-18T20:38:44',
    ( '' ),
    ( '' ),
    'SwSTEP 2.0',
    'SolidWorks 2026',
    '' );
FILE_SCHEMA (( 'AUTOMOTIVE_DESIGN' ));
ENDSEC;

DATA;
#1 = PRODUCT_CONTEXT ( 'NONE', #10, 'mechanical' ) ;
#2 = DIRECTION ( 'NONE',  ( 1.000000000000000000, 0.000000000000000000, 0.000000000000000000 ) ) ;
#3 = DIRECTION ( 'NONE',  ( 0.000000000000000000, 0.000000000000000000, 1.000000000000000000 ) ) ;
#4 = PRODUCT_DEFINITION ( 'General', '', #15, #9 ) ;
#5 = AXIS2_PLACEMENT_3D ( 'NONE', #7, #3, #2 ) ;
#6 = APPLICATION_PROTOCOL_DEFINITION ( 'draft international standard', 'automotive_design', 1998, #10 ) ;
#7 = CARTESIAN_POINT ( 'NONE',  ( 0.000000000000000000, 0.000000000000000000, 0.000000000000000000 ) ) ;
#8 = PRODUCT ( 'Enclosure^Shadowfang_Enclosure_V1', 'Enclosure^Shadowfang_Enclosure_V1', '', ( #1 ) ) ;
#9 = PRODUCT_DEFINITION_CONTEXT ( 'detailed design', #11, 'design' ) ;
#10 = APPLICATION_CONTEXT ( 'automotive_design' ) ;
#11 = APPLICATION_CONTEXT ( 'automotive_design' ) ;
#12 = APPLICATION_PROTOCOL_DEFINITION ( 'draft international standard', 'automotive_design', 1998, #11 ) ;
#13 = PRODUCT_RELATED_PRODUCT_CATEGORY ( 'part', '', ( #8 ) ) ;
#14 = PRODUCT_DEFINITION_SHAPE ( 'NONE', 'NONE',  #4 ) ;
#15 = PRODUCT_DEFINITION_FORMATION_WITH_SPECIFIED_SOURCE ( 'Symmetric', '', #8, .NOT_KNOWN. ) ;
ENDSEC;
END-ISO-10303-21;
