ISO-10303-21;
HEADER;
FILE_DESCRIPTION (( 'STEP AP214' ),
    '1' );
FILE_NAME ('Shadowfang_Enclosure_V1.STEP',
    '2026-01-18T23:30:13',
    ( '' ),
    ( '' ),
    'SwSTEP 2.0',
    'SolidWorks 2026',
    '' );
FILE_SCHEMA (( 'AUTOMOTIVE_DESIGN' ));
ENDSEC;

DATA;
#1 = UNCERTAINTY_MEASURE_WITH_UNIT (LENGTH_MEASURE( 1.000000000000000082E-05 ), #13, 'distance_accuracy_value', 'NONE');
#2 = DOCUMENT_TYPE ( 'geometry' ) ;
#3 = APPLICATION_PROTOCOL_DEFINITION ( 'draft international standard', 'automotive_design', 1998, #14 ) ;
#4 = CARTESIAN_POINT ( 'NONE',  ( 0.000000000000000000, 0.000000000000000000, 0.000000000000000000 ) ) ;
#5 = PRODUCT_RELATED_PRODUCT_CATEGORY ( 'part', '', ( #24 ) ) ;
#6 = AXIS2_PLACEMENT_3D ( 'NONE', #180, #95, #23 ) ;
#7 = OBJECT_ROLE ('mandatory',$ ) ;
#8 = PRODUCT_DEFINITION_SHAPE ( 'NONE', 'NONE',  #161 ) ;
#9 = APPLIED_DOCUMENT_REFERENCE ( #83,'',( #77) ) ;
#10 = CARTESIAN_POINT ( 'NONE',  ( 0.000000000000000000, 0.000000000000000000, 0.000000000000000000 ) ) ;
#11 = PRODUCT ( 'Bottom_Enclosure', 'Bottom_Enclosure', '', ( #136 ) ) ;
#12 = AXIS2_PLACEMENT_3D ( 'NONE', #81, #47, #154 ) ;
#13 =( LENGTH_UNIT ( ) NAMED_UNIT ( * ) SI_UNIT ( .MILLI., .METRE. ) );
#14 = APPLICATION_CONTEXT ( 'automotive_design' ) ;
#15 = DOCUMENT_FILE ( 'Button^Shadowfang_Enclosure_V1.STEP' , '', '', #22, '' ,$ ) ;
#16 = DOCUMENT_FILE ( 'Button^Shadowfang_Enclosure_V1.STEP' , '', '', #124, '' ,$ ) ;
#17 = UNCERTAINTY_MEASURE_WITH_UNIT (LENGTH_MEASURE( 1.000000000000000082E-05 ), #183, 'distance_accuracy_value', 'NONE');
#18 = PROPERTY_DEFINITION_REPRESENTATION ( #155, #43 ) ;
#19 = ITEM_DEFINED_TRANSFORMATION ( 'NONE', 'NONE', #90,  #6 ) ;
#20 = PRODUCT_DEFINITION_FORMATION_WITH_SPECIFIED_SOURCE ( 'Symmetric', '', #96, .NOT_KNOWN. ) ;
#21 =( NAMED_UNIT ( * ) SI_UNIT ( $, .STERADIAN. ) SOLID_ANGLE_UNIT ( ) );
#22 = DOCUMENT_TYPE ( 'geometry' ) ;
#23 = DIRECTION ( 'NONE',  ( 1.000000000000000000, 0.000000000000000000, 0.000000000000000000 ) ) ;
#24 = PRODUCT ( 'Shadowfang_Enclosure_V1', 'Shadowfang_Enclosure_V1', '', ( #129 ) ) ;
#25 =( LENGTH_UNIT ( ) NAMED_UNIT ( * ) SI_UNIT ( .MILLI., .METRE. ) );
#26 = EXTERNAL_SOURCE (IDENTIFIER('') ) ;
#27 = ITEM_DEFINED_TRANSFORMATION ( 'NONE', 'NONE', #148,  #139 ) ;
#28 = PRODUCT_DEFINITION_SHAPE ( 'NONE', 'NONE',  #122 ) ;
#29 = APPLIED_EXTERNAL_IDENTIFICATION_ASSIGNMENT ( 'Button^Shadowfang_Enclosure_V1.STEP' , #126, #108,( #16) ) ;
#30 = SHAPE_DEFINITION_REPRESENTATION ( #69, #80 ) ;
#31 = APPLIED_EXTERNAL_IDENTIFICATION_ASSIGNMENT ( 'Button^Shadowfang_Enclosure_V1.STEP' , #177, #98,( #15) ) ;
#32 =( REPRESENTATION_RELATIONSHIP ('NONE','NONE', #80, #115 ) REPRESENTATION_RELATIONSHIP_WITH_TRANSFORMATION ( #89 )SHAPE_REPRESENTATION_RELATIONSHIP( ) );
#33 = ROLE_ASSOCIATION ( #149, #107 ) ;
#34 =( NAMED_UNIT ( * ) SI_UNIT ( $, .STERADIAN. ) SOLID_ANGLE_UNIT ( ) );
#35 =( NAMED_UNIT ( * ) PLANE_ANGLE_UNIT ( ) SI_UNIT ( $, .RADIAN. ) );
#36 = PROPERTY_DEFINITION_REPRESENTATION ( #48, #115 ) ;
#38 = APPLICATION_PROTOCOL_DEFINITION ( 'draft international standard', 'automotive_design', 1998, #57 ) ;
#37 = IDENTIFICATION_ROLE ( 'external document id and location', $) ;
#39 = PRODUCT_DEFINITION_SHAPE ( 'NONE', 'NONE',  #189 ) ;
#40 = SHAPE_DEFINITION_REPRESENTATION ( #8, #43 ) ;
#41 = PROPERTY_DEFINITION_REPRESENTATION ( #147, #117 ) ;
#42 = ROLE_ASSOCIATION ( #134, #60 ) ;
#43 = SHAPE_REPRESENTATION ( 'Button^Shadowfang_Enclosure_V1', ( #139 ), #175 ) ;
#44 = DIRECTION ( 'NONE',  ( -0.8714303850253344308, -0.1340098443706229936, -0.4718585017421629835 ) ) ;
#45 =( LENGTH_UNIT ( ) NAMED_UNIT ( * ) SI_UNIT ( .MILLI., .METRE. ) );
#46 = CARTESIAN_POINT ( 'NONE',  ( -1763.257297155162632, -51.17341324611248865, -4.300845773338954459 ) ) ;
#47 = DIRECTION ( 'NONE',  ( 0.000000000000000000, 0.000000000000000000, 1.000000000000000000 ) ) ;
#48 = PROPERTY_DEFINITION ('document property','', #83 ) ;
#49 = ROLE_ASSOCIATION ( #7, #9 ) ;
#51 = CARTESIAN_POINT ( 'NONE',  ( -1192.146137181813401, 1327.369378067919797, -4.300845773339510458 ) ) ;
#50 = APPLICATION_CONTEXT ( 'automotive_design' ) ;
#52 = SHAPE_DEFINITION_REPRESENTATION ( #72, #115 ) ;
#53 = PRODUCT_CONTEXT ( 'NONE', #50, 'mechanical' ) ;
#54 = APPLICATION_CONTEXT ( 'automotive_design' ) ;
#55 = APPLICATION_PROTOCOL_DEFINITION ( 'draft international standard', 'automotive_design', 1998, #50 ) ;
#56 = UNCERTAINTY_MEASURE_WITH_UNIT (LENGTH_MEASURE( 1.000000000000000082E-05 ), #45, 'distance_accuracy_value', 'NONE');
#57 = APPLICATION_CONTEXT ( 'automotive_design' ) ;
#58 = OBJECT_ROLE ('mandatory',$ ) ;
#59 =( REPRESENTATION_RELATIONSHIP ('NONE','NONE', #80, #117 ) REPRESENTATION_RELATIONSHIP_WITH_TRANSFORMATION ( #19 )SHAPE_REPRESENTATION_RELATIONSHIP( ) );
#60 = APPLIED_DOCUMENT_REFERENCE ( #76,'',( #161) ) ;
#61 = PRODUCT_DEFINITION_CONTEXT ( 'detailed design', #118, 'design' ) ;
#62 = PRODUCT_DEFINITION ( 'General', '', #103, #137 ) ;
#63 = CARTESIAN_POINT ( 'NONE',  ( 0.000000000000000000, 0.000000000000000000, 0.000000000000000000 ) ) ;
#64 = DIRECTION ( 'NONE',  ( 1.000000000000000000, 0.000000000000000000, 0.000000000000000000 ) ) ;
#65 = APPLICATION_PROTOCOL_DEFINITION ( 'draft international standard', 'automotive_design', 1998, #66 ) ;
#66 = APPLICATION_CONTEXT ( 'automotive_design' ) ;
#68 = APPLICATION_CONTEXT ( 'automotive_design' ) ;
#67 = PROPERTY_DEFINITION_REPRESENTATION ( #114, #43 ) ;
#69 = PRODUCT_DEFINITION_SHAPE ( 'NONE', 'NONE',  #62 ) ;
#70 = DIRECTION ( 'NONE',  ( 0.000000000000000000, 0.000000000000000000, 1.000000000000000000 ) ) ;
#71 =( NAMED_UNIT ( * ) PLANE_ANGLE_UNIT ( ) SI_UNIT ( $, .RADIAN. ) );
#72 = PRODUCT_DEFINITION_SHAPE ( 'NONE', 'NONE',  #77 ) ;
#73 = CONTEXT_DEPENDENT_SHAPE_REPRESENTATION ( #32, #84 ) ;
#74 = CARTESIAN_POINT ( 'NONE',  ( 0.000000000000000000, 0.000000000000000000, 0.000000000000000000 ) ) ;
#75 = AXIS2_PLACEMENT_3D ( 'NONE', #51, #119, #135 ) ;
#76 = DOCUMENT_FILE ( 'Button^Shadowfang_Enclosure_V1.STEP' , '', '', #187, '' ,$ ) ;
#77 = PRODUCT_DEFINITION ( 'General', '', #111, #174 ) ;
#78 =( REPRESENTATION_RELATIONSHIP ('NONE','NONE', #80, #43 ) REPRESENTATION_RELATIONSHIP_WITH_TRANSFORMATION ( #27 )SHAPE_REPRESENTATION_RELATIONSHIP( ) );
#79 = OBJECT_ROLE ('mandatory',$ ) ;
#80 = SHAPE_REPRESENTATION ( 'Shadowfang_Enclosure_V1', ( #144, #148, #88, #93, #75, #90 ), #152 ) ;
#81 = CARTESIAN_POINT ( 'NONE',  ( 0.000000000000000000, 0.000000000000000000, 0.000000000000000000 ) ) ;
#82 = PRODUCT_RELATED_PRODUCT_CATEGORY ( 'part', '', ( #11 ) ) ;
#83 = DOCUMENT_FILE ( 'Bottom_Enclosure.STEP' , '', '', #109, '' ,$ ) ;
#84 = PRODUCT_DEFINITION_SHAPE ( 'NONE', 'NONE',  #191 ) ;
#85 = PROPERTY_DEFINITION_REPRESENTATION ( #145, #43 ) ;
#86 = PRODUCT ( 'Button^Shadowfang_Enclosure_V1', 'Button^Shadowfang_Enclosure_V1', '', ( #53 ) ) ;
#87 = CONTEXT_DEPENDENT_SHAPE_REPRESENTATION ( #78, #39 ) ;
#88 = AXIS2_PLACEMENT_3D ( 'NONE', #142, #179, #44 ) ;
#89 = ITEM_DEFINED_TRANSFORMATION ( 'NONE', 'NONE', #93,  #12 ) ;
#90 = AXIS2_PLACEMENT_3D ( 'NONE', #10, #157, #171 ) ;
#91 =( REPRESENTATION_RELATIONSHIP ('NONE','NONE', #80, #43 ) REPRESENTATION_RELATIONSHIP_WITH_TRANSFORMATION ( #140 )SHAPE_REPRESENTATION_RELATIONSHIP( ) );
#92 = PRODUCT_RELATED_PRODUCT_CATEGORY ( 'part', '', ( #86 ) ) ;
#93 = AXIS2_PLACEMENT_3D ( 'NONE', #4, #110, #64 ) ;
#94 =( NAMED_UNIT ( * ) SI_UNIT ( $, .STERADIAN. ) SOLID_ANGLE_UNIT ( ) );
#95 = DIRECTION ( 'NONE',  ( 0.000000000000000000, 0.000000000000000000, 1.000000000000000000 ) ) ;
#96 = PRODUCT ( 'Top_Enclosure', 'Top_Enclosure', '', ( #156 ) ) ;
#97 = APPLIED_DOCUMENT_REFERENCE ( #15,'',( #161) ) ;
#98 = EXTERNAL_SOURCE (IDENTIFIER('') ) ;
#99 = ITEM_DEFINED_TRANSFORMATION ( 'NONE', 'NONE', #75,  #139 ) ;
#100 = PRODUCT_DEFINITION_SHAPE ( 'NONE', 'NONE',  #193 ) ;
#101 = APPLICATION_PROTOCOL_DEFINITION ( 'draft international standard', 'automotive_design', 1998, #141 ) ;
#102 = APPLIED_DOCUMENT_REFERENCE ( #16,'',( #161) ) ;
#103 = PRODUCT_DEFINITION_FORMATION_WITH_SPECIFIED_SOURCE ( 'Symmetric', '', #24, .NOT_KNOWN. ) ;
#104 = PROPERTY_DEFINITION_REPRESENTATION ( #167, #43 ) ;
#105 =( GEOMETRIC_REPRESENTATION_CONTEXT ( 3 ) GLOBAL_UNCERTAINTY_ASSIGNED_CONTEXT ( ( #17 ) ) GLOBAL_UNIT_ASSIGNED_CONTEXT ( ( #183, #153, #21 ) ) REPRESENTATION_CONTEXT ( 'NONE', 'WORKASPACE' ) );
#106 = UNCERTAINTY_MEASURE_WITH_UNIT (LENGTH_MEASURE( 1.000000000000000082E-05 ), #25, 'distance_accuracy_value', 'NONE');
#107 = APPLIED_DOCUMENT_REFERENCE ( #160,'',( #122) ) ;
#108 = EXTERNAL_SOURCE (IDENTIFIER('') ) ;
#109 = DOCUMENT_TYPE ( 'geometry' ) ;
#110 = DIRECTION ( 'NONE',  ( 0.000000000000000000, 0.000000000000000000, 1.000000000000000000 ) ) ;
#111 = PRODUCT_DEFINITION_FORMATION_WITH_SPECIFIED_SOURCE ( 'Symmetric', '', #11, .NOT_KNOWN. ) ;
#112 = PRODUCT_RELATED_PRODUCT_CATEGORY ( 'part', '', ( #96 ) ) ;
#113 = DIRECTION ( 'NONE',  ( 0.000000000000000000, 0.000000000000000000, 1.000000000000000000 ) ) ;
#114 = PROPERTY_DEFINITION ('document property','', #15 ) ;
#115 = SHAPE_REPRESENTATION ( 'Bottom_Enclosure', ( #12 ), #164 ) ;
#116 = PROPERTY_DEFINITION_REPRESENTATION ( #130, #115 ) ;
#117 = SHAPE_REPRESENTATION ( 'Top_Enclosure', ( #6 ), #105 ) ;
#118 = APPLICATION_CONTEXT ( 'automotive_design' ) ;
#119 = DIRECTION ( 'NONE',  ( 0.4201658344798461786, -0.2147988481703354546, 0.8816587357705655270 ) ) ;
#120 = ROLE_ASSOCIATION ( #79, #102 ) ;
#121 = APPLICATION_PROTOCOL_DEFINITION ( 'draft international standard', 'automotive_design', 1998, #68 ) ;
#122 = PRODUCT_DEFINITION ( 'General', '', #20, #178 ) ;
#123 = CONTEXT_DEPENDENT_SHAPE_REPRESENTATION ( #59, #100 ) ;
#124 = DOCUMENT_TYPE ( 'geometry' ) ;
#125 = DIRECTION ( 'NONE',  ( 0.8161492352700258079, 0.3335415717744854569, -0.4718585017421622618 ) ) ;
#126 = IDENTIFICATION_ROLE ( 'external document id and location', $) ;
#127 = DIRECTION ( 'NONE',  ( 1.000000000000000000, 0.000000000000000000, 0.000000000000000000 ) ) ;
#128 = APPLIED_EXTERNAL_IDENTIFICATION_ASSIGNMENT ( 'Top_Enclosure.STEP' , #143, #188,( #160) ) ;
#129 = PRODUCT_CONTEXT ( 'NONE', #66, 'mechanical' ) ;
#130 = PROPERTY_DEFINITION ('external definition','', #83 ) ;
#131 = PROPERTY_DEFINITION ('document property','', #76 ) ;
#132 = PRODUCT_DEFINITION_FORMATION_WITH_SPECIFIED_SOURCE ( 'Symmetric', '', #86, .NOT_KNOWN. ) ;
#133 =( NAMED_UNIT ( * ) SI_UNIT ( $, .STERADIAN. ) SOLID_ANGLE_UNIT ( ) );
#135 = DIRECTION ( 'NONE',  ( 0.7799233942679271170, -0.4111800741855538566, -0.4718585017421620398 ) ) ;
#134 = OBJECT_ROLE ('mandatory',$ ) ;
#136 = PRODUCT_CONTEXT ( 'NONE', #54, 'mechanical' ) ;
#137 = PRODUCT_DEFINITION_CONTEXT ( 'detailed design', #14, 'design' ) ;
#138 = PROPERTY_DEFINITION_REPRESENTATION ( #176, #117 ) ;
#139 = AXIS2_PLACEMENT_3D ( 'NONE', #63, #113, #127 ) ;
#140 = ITEM_DEFINED_TRANSFORMATION ( 'NONE', 'NONE', #88,  #139 ) ;
#141 = APPLICATION_CONTEXT ( 'automotive_design' ) ;
#142 = CARTESIAN_POINT ( 'NONE',  ( 1741.877711212918257, -322.8855981671346740, -4.300845773337066191 ) ) ;
#143 = IDENTIFICATION_ROLE ( 'external document id and location', $) ;
#144 = AXIS2_PLACEMENT_3D ( 'NONE', #74, #70, #146 ) ;
#145 = PROPERTY_DEFINITION ('external definition','', #15 ) ;
#146 = DIRECTION ( 'NONE',  ( 1.000000000000000000, 0.000000000000000000, 0.000000000000000000 ) ) ;
#147 = PROPERTY_DEFINITION ('external definition','', #160 ) ;
#148 = AXIS2_PLACEMENT_3D ( 'NONE', #46, #163, #125 ) ;
#149 = OBJECT_ROLE ('mandatory',$ ) ;
#150 = CONTEXT_DEPENDENT_SHAPE_REPRESENTATION ( #91, #169 ) ;
#151 = CONTEXT_DEPENDENT_SHAPE_REPRESENTATION ( #162, #186 ) ;
#152 =( GEOMETRIC_REPRESENTATION_CONTEXT ( 3 ) GLOBAL_UNCERTAINTY_ASSIGNED_CONTEXT ( ( #1 ) ) GLOBAL_UNIT_ASSIGNED_CONTEXT ( ( #13, #71, #133 ) ) REPRESENTATION_CONTEXT ( 'NONE', 'WORKASPACE' ) );
#153 =( NAMED_UNIT ( * ) PLANE_ANGLE_UNIT ( ) SI_UNIT ( $, .RADIAN. ) );
#154 = DIRECTION ( 'NONE',  ( 1.000000000000000000, 0.000000000000000000, 0.000000000000000000 ) ) ;
#155 = PROPERTY_DEFINITION ('external definition','', #76 ) ;
#156 = PRODUCT_CONTEXT ( 'NONE', #141, 'mechanical' ) ;
#157 = DIRECTION ( 'NONE',  ( 0.000000000000000000, 0.000000000000000000, 1.000000000000000000 ) ) ;
#158 = ROLE_ASSOCIATION ( #58, #97 ) ;
#159 = APPLIED_EXTERNAL_IDENTIFICATION_ASSIGNMENT ( 'Button^Shadowfang_Enclosure_V1.STEP' , #173, #181,( #76) ) ;
#160 = DOCUMENT_FILE ( 'Top_Enclosure.STEP' , '', '', #2, '' ,$ ) ;
#161 = PRODUCT_DEFINITION ( 'General', '', #132, #61 ) ;
#162 =( REPRESENTATION_RELATIONSHIP ('NONE','NONE', #80, #43 ) REPRESENTATION_RELATIONSHIP_WITH_TRANSFORMATION ( #99 )SHAPE_REPRESENTATION_RELATIONSHIP( ) );
#163 = DIRECTION ( 'NONE',  ( 0.4345356536814756199, 0.1840017372718565913, 0.8816587357705651939 ) ) ;
#164 =( GEOMETRIC_REPRESENTATION_CONTEXT ( 3 ) GLOBAL_UNCERTAINTY_ASSIGNED_CONTEXT ( ( #106 ) ) GLOBAL_UNIT_ASSIGNED_CONTEXT ( ( #25, #35, #94 ) ) REPRESENTATION_CONTEXT ( 'NONE', 'WORKASPACE' ) );
#165 =( NAMED_UNIT ( * ) PLANE_ANGLE_UNIT ( ) SI_UNIT ( $, .RADIAN. ) );
#166 = PROPERTY_DEFINITION_REPRESENTATION ( #184, #43 ) ;
#167 = PROPERTY_DEFINITION ('external definition','', #16 ) ;
#168 = APPLICATION_PROTOCOL_DEFINITION ( 'draft international standard', 'automotive_design', 1998, #54 ) ;
#169 = PRODUCT_DEFINITION_SHAPE ( 'NONE', 'NONE',  #190 ) ;
#170 = APPLICATION_PROTOCOL_DEFINITION ( 'draft international standard', 'automotive_design', 1998, #118 ) ;
#171 = DIRECTION ( 'NONE',  ( 1.000000000000000000, 0.000000000000000000, 0.000000000000000000 ) ) ;
#172 = PROPERTY_DEFINITION_REPRESENTATION ( #131, #43 ) ;
#173 = IDENTIFICATION_ROLE ( 'external document id and location', $) ;
#174 = PRODUCT_DEFINITION_CONTEXT ( 'detailed design', #68, 'design' ) ;
#175 =( GEOMETRIC_REPRESENTATION_CONTEXT ( 3 ) GLOBAL_UNCERTAINTY_ASSIGNED_CONTEXT ( ( #56 ) ) GLOBAL_UNIT_ASSIGNED_CONTEXT ( ( #45, #165, #34 ) ) REPRESENTATION_CONTEXT ( 'NONE', 'WORKASPACE' ) );
#176 = PROPERTY_DEFINITION ('document property','', #160 ) ;
#177 = IDENTIFICATION_ROLE ( 'external document id and location', $) ;
#178 = PRODUCT_DEFINITION_CONTEXT ( 'detailed design', #57, 'design' ) ;
#179 = DIRECTION ( 'NONE',  ( -0.4654650401496172041, -0.07758975472293003217, 0.8816587357705648609 ) ) ;
#180 = CARTESIAN_POINT ( 'NONE',  ( 0.000000000000000000, 0.000000000000000000, 0.000000000000000000 ) ) ;
#181 = EXTERNAL_SOURCE (IDENTIFIER('') ) ;
#182 = APPLIED_EXTERNAL_IDENTIFICATION_ASSIGNMENT ( 'Bottom_Enclosure.STEP' , #37, #26,( #83) ) ;
#183 =( LENGTH_UNIT ( ) NAMED_UNIT ( * ) SI_UNIT ( .MILLI., .METRE. ) );
#184 = PROPERTY_DEFINITION ('document property','', #16 ) ;
#185 = SHAPE_DEFINITION_REPRESENTATION ( #28, #117 ) ;
#186 = PRODUCT_DEFINITION_SHAPE ( 'NONE', 'NONE',  #192 ) ;
#187 = DOCUMENT_TYPE ( 'geometry' ) ;
#188 = EXTERNAL_SOURCE (IDENTIFIER('') ) ;
#189 = NEXT_ASSEMBLY_USAGE_OCCURRENCE ( 'NAUO1', ' ', ' ', #62, #161, $ ) ;
#190 = NEXT_ASSEMBLY_USAGE_OCCURRENCE ( 'NAUO2', ' ', ' ', #62, #161, $ ) ;
#191 = NEXT_ASSEMBLY_USAGE_OCCURRENCE ( 'NAUO3', ' ', ' ', #62, #77, $ ) ;
#192 = NEXT_ASSEMBLY_USAGE_OCCURRENCE ( 'NAUO4', ' ', ' ', #62, #161, $ ) ;
#193 = NEXT_ASSEMBLY_USAGE_OCCURRENCE ( 'NAUO5', ' ', ' ', #62, #122, $ ) ;
ENDSEC;
END-ISO-10303-21;
