%TF.GenerationSoftware,Altium Limited,Altium Designer,25.8.1 (18)*%
G04 Layer_Color=8421504*
%FSLAX45Y45*%
%MOMM*%
%TF.SameCoordinates,8EA201BF-015D-4237-A21D-AC5F4ADB3718*%
%TF.FilePolarity,Positive*%
%TF.FileFunction,Paste,Top*%
%TF.Part,Single*%
G01*
G75*
%TA.AperFunction,SMDPad,CuDef*%
%ADD10R,0.90000X0.85000*%
%ADD11R,0.80000X0.80000*%
G04:AMPARAMS|DCode=12|XSize=1.55748mm|YSize=0.74248mm|CornerRadius=0.37124mm|HoleSize=0mm|Usage=FLASHONLY|Rotation=0.000|XOffset=0mm|YOffset=0mm|HoleType=Round|Shape=RoundedRectangle|*
%AMROUNDEDRECTD12*
21,1,1.55748,0.00000,0,0,0.0*
21,1,0.81501,0.74248,0,0,0.0*
1,1,0.74247,0.40750,0.00000*
1,1,0.74247,-0.40750,0.00000*
1,1,0.74247,-0.40750,0.00000*
1,1,0.74247,0.40750,0.00000*
%
%ADD12ROUNDEDRECTD12*%
%ADD13R,1.55748X0.74248*%
%ADD14R,0.80000X0.80000*%
%ADD15R,1.50000X1.00000*%
G04:AMPARAMS|DCode=16|XSize=0.8mm|YSize=1mm|CornerRadius=0.1mm|HoleSize=0mm|Usage=FLASHONLY|Rotation=90.000|XOffset=0mm|YOffset=0mm|HoleType=Round|Shape=RoundedRectangle|*
%AMROUNDEDRECTD16*
21,1,0.80000,0.80000,0,0,90.0*
21,1,0.60000,1.00000,0,0,90.0*
1,1,0.20000,0.40000,0.30000*
1,1,0.20000,0.40000,-0.30000*
1,1,0.20000,-0.40000,-0.30000*
1,1,0.20000,-0.40000,0.30000*
%
%ADD16ROUNDEDRECTD16*%
%ADD17R,0.80000X0.75000*%
G04:AMPARAMS|DCode=18|XSize=0.8mm|YSize=1mm|CornerRadius=0.1mm|HoleSize=0mm|Usage=FLASHONLY|Rotation=180.000|XOffset=0mm|YOffset=0mm|HoleType=Round|Shape=RoundedRectangle|*
%AMROUNDEDRECTD18*
21,1,0.80000,0.80000,0,0,180.0*
21,1,0.60000,1.00000,0,0,180.0*
1,1,0.20000,-0.30000,0.40000*
1,1,0.20000,0.30000,0.40000*
1,1,0.20000,0.30000,-0.40000*
1,1,0.20000,-0.30000,-0.40000*
%
%ADD18ROUNDEDRECTD18*%
%ADD19R,1.00000X0.66000*%
%TA.AperFunction,ConnectorPad*%
%ADD20R,0.30000X1.15000*%
%ADD21R,0.60000X1.15000*%
%TA.AperFunction,SMDPad,CuDef*%
%ADD22R,1.30000X1.05000*%
%ADD23O,0.60000X2.05000*%
%ADD24O,2.05000X0.60000*%
%ADD25R,0.85000X0.90000*%
D10*
X-1244600Y1624100D02*
D03*
Y1754100D02*
D03*
X-1092200Y1624100D02*
D03*
Y1754100D02*
D03*
X-939800Y1624100D02*
D03*
Y1754100D02*
D03*
X-2006600Y2376400D02*
D03*
Y2246400D02*
D03*
X-1092200Y2008100D02*
D03*
Y1878100D02*
D03*
X-1301354Y4185715D02*
D03*
Y4055715D02*
D03*
X-1974454Y4055715D02*
D03*
Y4185715D02*
D03*
X-939800Y2008100D02*
D03*
Y1878100D02*
D03*
D11*
X-1563300Y1968500D02*
D03*
X-1713300D02*
D03*
D12*
X-1480963Y1181100D02*
D03*
D13*
X-1821037D02*
D03*
D14*
X-1016000Y3887400D02*
D03*
Y4037400D02*
D03*
X-825500Y3887400D02*
D03*
Y4037400D02*
D03*
D15*
X-1016000Y893300D02*
D03*
Y1113300D02*
D03*
D16*
X-1206500Y1322000D02*
D03*
Y1472000D02*
D03*
D17*
X-1447800Y1954800D02*
D03*
Y1829800D02*
D03*
X-546100Y3912600D02*
D03*
Y4037600D02*
D03*
Y2248900D02*
D03*
Y2373900D02*
D03*
X-1193800Y851900D02*
D03*
Y976900D02*
D03*
X-673100Y4037600D02*
D03*
Y3912600D02*
D03*
X-1346200Y851900D02*
D03*
Y976900D02*
D03*
D18*
X-1967300Y3517900D02*
D03*
X-1817300D02*
D03*
D19*
X-1444800Y1416300D02*
D03*
Y1606300D02*
D03*
X-1704800Y1416300D02*
D03*
Y1606300D02*
D03*
Y1511300D02*
D03*
D20*
X-1107700Y685400D02*
D03*
X-1157700D02*
D03*
X-1207700D02*
D03*
X-1257700D02*
D03*
X-1307700D02*
D03*
X-1357700D02*
D03*
X-1407700D02*
D03*
X-1457700D02*
D03*
D21*
X-1522700D02*
D03*
X-1042700D02*
D03*
X-1602700D02*
D03*
X-962700D02*
D03*
D22*
X-1778700Y3925700D02*
D03*
X-1548700Y4100700D02*
D03*
X-1778700D02*
D03*
X-1548700Y3925700D02*
D03*
D23*
X-1522700Y2338300D02*
D03*
X-1442700D02*
D03*
X-1362700Y3478300D02*
D03*
X-1442700D02*
D03*
X-1522700D02*
D03*
X-1602700D02*
D03*
Y2338300D02*
D03*
X-1202700D02*
D03*
X-1682700D02*
D03*
X-1042700Y3478300D02*
D03*
X-1122700D02*
D03*
X-962700Y2338300D02*
D03*
X-1202700Y3478300D02*
D03*
X-882700Y2338300D02*
D03*
X-1042700D02*
D03*
X-962700Y3478300D02*
D03*
X-1122700Y2338300D02*
D03*
X-1282700Y3478300D02*
D03*
Y2338300D02*
D03*
X-1682700Y3478300D02*
D03*
X-1362700Y2338300D02*
D03*
X-882700Y3478300D02*
D03*
D24*
X-1852700Y2988300D02*
D03*
Y2908300D02*
D03*
Y2748300D02*
D03*
Y2668300D02*
D03*
Y3068300D02*
D03*
Y2828300D02*
D03*
Y3148300D02*
D03*
X-712700Y3228300D02*
D03*
Y2988300D02*
D03*
Y3068300D02*
D03*
Y2508300D02*
D03*
Y3148300D02*
D03*
Y2908300D02*
D03*
X-1852700Y2508300D02*
D03*
Y3308300D02*
D03*
X-712700Y2668300D02*
D03*
Y2828300D02*
D03*
Y3308300D02*
D03*
Y2588300D02*
D03*
X-1852700D02*
D03*
Y3228300D02*
D03*
X-712700Y2748300D02*
D03*
D25*
X-1903500Y1612900D02*
D03*
X-2033500D02*
D03*
%TF.MD5,32ad50562ad09c971832542433d17af4*%
M02*
