%TF.GenerationSoftware,Altium Limited,Altium Designer,25.8.1 (18)*%
G04 Layer_Color=16711935*
%FSLAX45Y45*%
%MOMM*%
%TF.SameCoordinates,8EA201BF-015D-4237-A21D-AC5F4ADB3718*%
%TF.FilePolarity,Negative*%
%TF.FileFunction,Soldermask,Bot*%
%TF.Part,Single*%
G01*
G75*
%TA.AperFunction,ComponentPad*%
%ADD28C,1.57000*%
%ADD29R,1.57000X1.57000*%
G04:AMPARAMS|DCode=30|XSize=1mm|YSize=2.2mm|CornerRadius=0.5mm|HoleSize=0mm|Usage=FLASHONLY|Rotation=0.000|XOffset=0mm|YOffset=0mm|HoleType=Round|Shape=RoundedRectangle|*
%AMROUNDEDRECTD30*
21,1,1.00000,1.20000,0,0,0.0*
21,1,0.00000,2.20000,0,0,0.0*
1,1,1.00000,0.00000,-0.60000*
1,1,1.00000,0.00000,-0.60000*
1,1,1.00000,0.00000,0.60000*
1,1,1.00000,0.00000,0.60000*
%
%ADD30ROUNDEDRECTD30*%
G04:AMPARAMS|DCode=31|XSize=1mm|YSize=1.8mm|CornerRadius=0.5mm|HoleSize=0mm|Usage=FLASHONLY|Rotation=0.000|XOffset=0mm|YOffset=0mm|HoleType=Round|Shape=RoundedRectangle|*
%AMROUNDEDRECTD31*
21,1,1.00000,0.80000,0,0,0.0*
21,1,0.00000,1.80000,0,0,0.0*
1,1,1.00000,0.00000,-0.40000*
1,1,1.00000,0.00000,-0.40000*
1,1,1.00000,0.00000,0.40000*
1,1,1.00000,0.00000,0.40000*
%
%ADD31ROUNDEDRECTD31*%
%TA.AperFunction,ViaPad*%
%ADD33C,0.81280*%
%ADD45C,1.01600*%
D28*
X-2400300Y1460500D02*
D03*
Y1714500D02*
D03*
Y1968500D02*
D03*
Y2222500D02*
D03*
Y2476500D02*
D03*
Y2730500D02*
D03*
Y2984500D02*
D03*
Y3238500D02*
D03*
Y3492500D02*
D03*
Y3746500D02*
D03*
Y4000500D02*
D03*
Y952500D02*
D03*
Y1206500D02*
D03*
X-165100Y952500D02*
D03*
Y1206500D02*
D03*
Y1460500D02*
D03*
Y1968500D02*
D03*
Y2222500D02*
D03*
Y2476500D02*
D03*
Y2984500D02*
D03*
Y3238500D02*
D03*
Y3746500D02*
D03*
Y3492500D02*
D03*
Y2730500D02*
D03*
Y1714500D02*
D03*
Y4000500D02*
D03*
D29*
X-2400300Y698500D02*
D03*
X-165100D02*
D03*
D30*
X-1714700Y227900D02*
D03*
X-850700D02*
D03*
D31*
X-1714700Y627900D02*
D03*
X-850700D02*
D03*
D33*
X-673100Y2298700D02*
D03*
X-1244600Y1905000D02*
D03*
X-1828800Y1968500D02*
D03*
X-1651000Y3251200D02*
D03*
X-2159000Y1333500D02*
D03*
Y1041400D02*
D03*
X-1028700Y2552700D02*
D03*
X-1117600Y2743200D02*
D03*
X-1186180Y3187700D02*
D03*
X-1181100Y3848100D02*
D03*
X-520700Y3314700D02*
D03*
X-546100Y3784600D02*
D03*
X-673100D02*
D03*
X-1485900Y2095500D02*
D03*
X-520700Y2590800D02*
D03*
X-1181100Y4051300D02*
D03*
X-1422400Y3898900D02*
D03*
X-1447800Y3759200D02*
D03*
X-1333500Y3657600D02*
D03*
X-1854200Y2387600D02*
D03*
X-1346200Y1092200D02*
D03*
X-1333500Y2832100D02*
D03*
X-1447800Y2908300D02*
D03*
X-1194436Y1091611D02*
D03*
D45*
X-533400Y2806700D02*
D03*
X-965200Y3225800D02*
D03*
Y533400D02*
D03*
X-2120900Y4178300D02*
D03*
X-1358900Y2489200D02*
D03*
X-1572260Y2590800D02*
D03*
X-1549400Y3187700D02*
D03*
X-1600200Y558800D02*
D03*
X-2159000Y3365500D02*
D03*
X-800100Y1828800D02*
D03*
Y1676400D02*
D03*
X-1574800Y1511300D02*
D03*
X-2019300Y2095500D02*
D03*
X-1816100Y1320800D02*
D03*
X-1663700Y1828800D02*
D03*
%TF.MD5,940d26f6aa1d3bd7f0f22544a9a0b0ea*%
M02*
