%TF.GenerationSoftware,Altium Limited,Altium Designer,25.8.1 (18)*%
G04 Layer_Physical_Order=2*
G04 Layer_Color=16711680*
%FSLAX45Y45*%
%MOMM*%
%TF.SameCoordinates,8EA201BF-015D-4237-A21D-AC5F4ADB3718*%
%TF.FilePolarity,Positive*%
%TF.FileFunction,Copper,L2,Bot,Signal*%
%TF.Part,Single*%
G01*
G75*
%TA.AperFunction,Conductor*%
%ADD26C,0.25400*%
%TA.AperFunction,ComponentPad*%
%ADD28C,1.57000*%
%ADD29R,1.57000X1.57000*%
G04:AMPARAMS|DCode=30|XSize=1mm|YSize=2.2mm|CornerRadius=0.5mm|HoleSize=0mm|Usage=FLASHONLY|Rotation=0.000|XOffset=0mm|YOffset=0mm|HoleType=Round|Shape=RoundedRectangle|*
%AMROUNDEDRECTD30*
21,1,1.00000,1.20000,0,0,0.0*
21,1,0.00000,2.20000,0,0,0.0*
1,1,1.00000,0.00000,-0.60000*
1,1,1.00000,0.00000,-0.60000*
1,1,1.00000,0.00000,0.60000*
1,1,1.00000,0.00000,0.60000*
%
%ADD30ROUNDEDRECTD30*%
G04:AMPARAMS|DCode=31|XSize=1mm|YSize=1.8mm|CornerRadius=0.5mm|HoleSize=0mm|Usage=FLASHONLY|Rotation=0.000|XOffset=0mm|YOffset=0mm|HoleType=Round|Shape=RoundedRectangle|*
%AMROUNDEDRECTD31*
21,1,1.00000,0.80000,0,0,0.0*
21,1,0.00000,1.80000,0,0,0.0*
1,1,1.00000,0.00000,-0.40000*
1,1,1.00000,0.00000,-0.40000*
1,1,1.00000,0.00000,0.40000*
1,1,1.00000,0.00000,0.40000*
%
%ADD31ROUNDEDRECTD31*%
%TA.AperFunction,ViaPad*%
%ADD32C,0.60960*%
%ADD33C,0.81280*%
G36*
X-25400Y25400D02*
X-2540000D01*
Y4318000D01*
X-25400D01*
Y25400D01*
D02*
G37*
%LPC*%
G36*
X-2108200Y4243267D02*
Y4191000D01*
X-2055933D01*
X-2059360Y4203790D01*
X-2068055Y4218850D01*
X-2080350Y4231145D01*
X-2095410Y4239840D01*
X-2108200Y4243267D01*
D02*
G37*
G36*
X-2133600D02*
X-2146390Y4239840D01*
X-2161450Y4231145D01*
X-2173745Y4218850D01*
X-2182440Y4203790D01*
X-2185867Y4191000D01*
X-2133600D01*
Y4243267D01*
D02*
G37*
G36*
X-2055933Y4165600D02*
X-2108200D01*
Y4113333D01*
X-2095410Y4116760D01*
X-2080350Y4125455D01*
X-2068055Y4137750D01*
X-2059360Y4152810D01*
X-2055933Y4165600D01*
D02*
G37*
G36*
X-2133600D02*
X-2185867D01*
X-2182440Y4152810D01*
X-2173745Y4137750D01*
X-2161450Y4125455D01*
X-2146390Y4116760D01*
X-2133600Y4113333D01*
Y4165600D01*
D02*
G37*
G36*
X-1168400Y4106524D02*
Y4064000D01*
X-1125876D01*
X-1133727Y4082953D01*
X-1149447Y4098673D01*
X-1168400Y4106524D01*
D02*
G37*
G36*
X-1193800D02*
X-1212753Y4098673D01*
X-1228473Y4082953D01*
X-1236324Y4064000D01*
X-1193800D01*
Y4106524D01*
D02*
G37*
G36*
X-1125876Y4038600D02*
X-1168400D01*
Y3996076D01*
X-1149447Y4003927D01*
X-1133727Y4019647D01*
X-1125876Y4038600D01*
D02*
G37*
G36*
X-1193800D02*
X-1236324D01*
X-1228473Y4019647D01*
X-1212753Y4003927D01*
X-1193800Y3996076D01*
Y4038600D01*
D02*
G37*
G36*
X-1409700Y3954124D02*
Y3911600D01*
X-1367176D01*
X-1375027Y3930553D01*
X-1390747Y3946273D01*
X-1409700Y3954124D01*
D02*
G37*
G36*
X-1435100D02*
X-1454053Y3946273D01*
X-1469773Y3930553D01*
X-1477624Y3911600D01*
X-1435100D01*
Y3954124D01*
D02*
G37*
G36*
X-151421Y4104400D02*
X-178779D01*
X-205204Y4097319D01*
X-228896Y4083641D01*
X-248241Y4064296D01*
X-261919Y4040604D01*
X-269000Y4014179D01*
Y3986821D01*
X-261919Y3960396D01*
X-248241Y3936704D01*
X-228896Y3917359D01*
X-205204Y3903681D01*
X-178779Y3896600D01*
X-151421D01*
X-124996Y3903681D01*
X-101304Y3917359D01*
X-81959Y3936704D01*
X-68281Y3960396D01*
X-61200Y3986821D01*
Y4014179D01*
X-68281Y4040604D01*
X-81959Y4064296D01*
X-101304Y4083641D01*
X-124996Y4097319D01*
X-151421Y4104400D01*
D02*
G37*
G36*
X-2386621D02*
X-2413979D01*
X-2440404Y4097319D01*
X-2464096Y4083641D01*
X-2483441Y4064296D01*
X-2497119Y4040604D01*
X-2504200Y4014179D01*
Y3986821D01*
X-2497119Y3960396D01*
X-2483441Y3936704D01*
X-2464096Y3917359D01*
X-2440404Y3903681D01*
X-2413979Y3896600D01*
X-2386621D01*
X-2360196Y3903681D01*
X-2336504Y3917359D01*
X-2317159Y3936704D01*
X-2303481Y3960396D01*
X-2296400Y3986821D01*
Y4014179D01*
X-2303481Y4040604D01*
X-2317159Y4064296D01*
X-2336504Y4083641D01*
X-2360196Y4097319D01*
X-2386621Y4104400D01*
D02*
G37*
G36*
X-1367176Y3886200D02*
X-1409700D01*
Y3843676D01*
X-1390747Y3851527D01*
X-1375027Y3867247D01*
X-1367176Y3886200D01*
D02*
G37*
G36*
X-1435100D02*
X-1477624D01*
X-1469773Y3867247D01*
X-1454053Y3851527D01*
X-1435100Y3843676D01*
Y3886200D01*
D02*
G37*
G36*
X-151421Y3850400D02*
X-178779D01*
X-205204Y3843319D01*
X-228896Y3829641D01*
X-248241Y3810296D01*
X-261919Y3786604D01*
X-269000Y3760179D01*
Y3732821D01*
X-261919Y3706396D01*
X-248241Y3682704D01*
X-228896Y3663359D01*
X-205204Y3649681D01*
X-178779Y3642600D01*
X-151421D01*
X-124996Y3649681D01*
X-101304Y3663359D01*
X-81959Y3682704D01*
X-68281Y3706396D01*
X-61200Y3732821D01*
Y3760179D01*
X-68281Y3786604D01*
X-81959Y3810296D01*
X-101304Y3829641D01*
X-124996Y3843319D01*
X-151421Y3850400D01*
D02*
G37*
G36*
X-2386621D02*
X-2413979D01*
X-2440404Y3843319D01*
X-2464096Y3829641D01*
X-2483441Y3810296D01*
X-2497119Y3786604D01*
X-2504200Y3760179D01*
Y3732821D01*
X-2497119Y3706396D01*
X-2483441Y3682704D01*
X-2464096Y3663359D01*
X-2440404Y3649681D01*
X-2413979Y3642600D01*
X-2386621D01*
X-2360196Y3649681D01*
X-2336504Y3663359D01*
X-2317159Y3682704D01*
X-2303481Y3706396D01*
X-2296400Y3732821D01*
Y3760179D01*
X-2303481Y3786604D01*
X-2317159Y3810296D01*
X-2336504Y3829641D01*
X-2360196Y3843319D01*
X-2386621Y3850400D01*
D02*
G37*
G36*
X-151421Y3596400D02*
X-178779D01*
X-205204Y3589319D01*
X-228896Y3575641D01*
X-248241Y3556296D01*
X-261919Y3532604D01*
X-269000Y3506179D01*
Y3478821D01*
X-261919Y3452396D01*
X-248241Y3428704D01*
X-228896Y3409359D01*
X-205204Y3395681D01*
X-178779Y3388600D01*
X-151421D01*
X-124996Y3395681D01*
X-101304Y3409359D01*
X-81959Y3428704D01*
X-68281Y3452396D01*
X-61200Y3478821D01*
Y3506179D01*
X-68281Y3532604D01*
X-81959Y3556296D01*
X-101304Y3575641D01*
X-124996Y3589319D01*
X-151421Y3596400D01*
D02*
G37*
G36*
X-2386621D02*
X-2413979D01*
X-2440404Y3589319D01*
X-2464096Y3575641D01*
X-2483441Y3556296D01*
X-2497119Y3532604D01*
X-2504200Y3506179D01*
Y3478821D01*
X-2497119Y3452396D01*
X-2483441Y3428704D01*
X-2464096Y3409359D01*
X-2440404Y3395681D01*
X-2413979Y3388600D01*
X-2386621D01*
X-2360196Y3395681D01*
X-2336504Y3409359D01*
X-2317159Y3428704D01*
X-2303481Y3452396D01*
X-2296400Y3478821D01*
Y3506179D01*
X-2303481Y3532604D01*
X-2317159Y3556296D01*
X-2336504Y3575641D01*
X-2360196Y3589319D01*
X-2386621Y3596400D01*
D02*
G37*
G36*
X-2146300Y3430467D02*
Y3378200D01*
X-2094033D01*
X-2097460Y3390990D01*
X-2106155Y3406050D01*
X-2118450Y3418345D01*
X-2133510Y3427040D01*
X-2146300Y3430467D01*
D02*
G37*
G36*
X-2171700D02*
X-2184490Y3427040D01*
X-2199550Y3418345D01*
X-2211845Y3406050D01*
X-2220540Y3390990D01*
X-2223967Y3378200D01*
X-2171700D01*
Y3430467D01*
D02*
G37*
G36*
X-2094033Y3352800D02*
X-2146300D01*
Y3300533D01*
X-2133510Y3303960D01*
X-2118450Y3312655D01*
X-2106155Y3324950D01*
X-2097460Y3340010D01*
X-2094033Y3352800D01*
D02*
G37*
G36*
X-2171700D02*
X-2223967D01*
X-2220540Y3340010D01*
X-2211845Y3324950D01*
X-2199550Y3312655D01*
X-2184490Y3303960D01*
X-2171700Y3300533D01*
Y3352800D01*
D02*
G37*
G36*
X-534985Y3840480D02*
X-557215D01*
X-577753Y3831973D01*
X-593473Y3816253D01*
X-601980Y3795715D01*
Y3773485D01*
X-593473Y3752947D01*
X-577753Y3737227D01*
X-559547Y3729686D01*
Y3354880D01*
X-568073Y3346353D01*
X-576580Y3325815D01*
Y3303585D01*
X-568073Y3283047D01*
X-552353Y3267327D01*
X-531815Y3258820D01*
X-509585D01*
X-489047Y3267327D01*
X-473327Y3283047D01*
X-464820Y3303585D01*
Y3325815D01*
X-473327Y3346353D01*
X-481853Y3354880D01*
Y3751941D01*
X-484811Y3766807D01*
X-490220Y3774903D01*
Y3795715D01*
X-498727Y3816253D01*
X-514447Y3831973D01*
X-534985Y3840480D01*
D02*
G37*
G36*
X-952500Y3290767D02*
Y3238500D01*
X-900233D01*
X-903660Y3251290D01*
X-912355Y3266350D01*
X-924650Y3278645D01*
X-939710Y3287340D01*
X-952500Y3290767D01*
D02*
G37*
G36*
X-977900D02*
X-990690Y3287340D01*
X-1005750Y3278645D01*
X-1018045Y3266350D01*
X-1026740Y3251290D01*
X-1030167Y3238500D01*
X-977900D01*
Y3290767D01*
D02*
G37*
G36*
X-1436685Y3815080D02*
X-1458915D01*
X-1479453Y3806573D01*
X-1495173Y3790853D01*
X-1503680Y3770315D01*
Y3748085D01*
X-1495173Y3727547D01*
X-1486647Y3719020D01*
Y3235436D01*
X-1487724Y3234654D01*
X-1499347Y3231041D01*
X-1508850Y3240545D01*
X-1523910Y3249240D01*
X-1536700Y3252667D01*
Y3187700D01*
Y3122733D01*
X-1523910Y3126160D01*
X-1508850Y3134855D01*
X-1499347Y3144359D01*
X-1487724Y3140746D01*
X-1486647Y3139964D01*
Y2948480D01*
X-1495173Y2939953D01*
X-1503680Y2919415D01*
Y2897185D01*
X-1495173Y2876647D01*
X-1479453Y2860927D01*
X-1458915Y2852420D01*
X-1436685D01*
X-1416147Y2860927D01*
X-1400427Y2876647D01*
X-1391920Y2897185D01*
Y2919415D01*
X-1400427Y2939953D01*
X-1408953Y2948480D01*
Y3719020D01*
X-1400427Y3727547D01*
X-1391920Y3748085D01*
Y3770315D01*
X-1400427Y3790853D01*
X-1416147Y3806573D01*
X-1436685Y3815080D01*
D02*
G37*
G36*
X-900233Y3213100D02*
X-952500D01*
Y3160833D01*
X-939710Y3164260D01*
X-924650Y3172955D01*
X-912355Y3185250D01*
X-903660Y3200310D01*
X-900233Y3213100D01*
D02*
G37*
G36*
X-977900D02*
X-1030167D01*
X-1026740Y3200310D01*
X-1018045Y3185250D01*
X-1005750Y3172955D01*
X-990690Y3164260D01*
X-977900Y3160833D01*
Y3213100D01*
D02*
G37*
G36*
X-151421Y3342400D02*
X-178779D01*
X-205204Y3335319D01*
X-228896Y3321641D01*
X-248241Y3302296D01*
X-261919Y3278604D01*
X-269000Y3252179D01*
Y3224821D01*
X-261919Y3198396D01*
X-248241Y3174704D01*
X-228896Y3155359D01*
X-205204Y3141681D01*
X-178779Y3134600D01*
X-151421D01*
X-124996Y3141681D01*
X-101304Y3155359D01*
X-81959Y3174704D01*
X-68281Y3198396D01*
X-61200Y3224821D01*
Y3252179D01*
X-68281Y3278604D01*
X-81959Y3302296D01*
X-101304Y3321641D01*
X-124996Y3335319D01*
X-151421Y3342400D01*
D02*
G37*
G36*
X-2386621D02*
X-2413979D01*
X-2440404Y3335319D01*
X-2464096Y3321641D01*
X-2483441Y3302296D01*
X-2497119Y3278604D01*
X-2504200Y3252179D01*
Y3224821D01*
X-2497119Y3198396D01*
X-2483441Y3174704D01*
X-2464096Y3155359D01*
X-2440404Y3141681D01*
X-2413979Y3134600D01*
X-2386621D01*
X-2360196Y3141681D01*
X-2336504Y3155359D01*
X-2317159Y3174704D01*
X-2303481Y3198396D01*
X-2296400Y3224821D01*
Y3252179D01*
X-2303481Y3278604D01*
X-2317159Y3302296D01*
X-2336504Y3321641D01*
X-2360196Y3335319D01*
X-2386621Y3342400D01*
D02*
G37*
G36*
X-1169985Y3903980D02*
X-1192215D01*
X-1212753Y3895473D01*
X-1228473Y3879753D01*
X-1236980Y3859215D01*
Y3836985D01*
X-1228473Y3816447D01*
X-1222487Y3810460D01*
Y3230420D01*
X-1233553Y3219353D01*
X-1242060Y3198815D01*
Y3176585D01*
X-1233553Y3156047D01*
X-1225027Y3147520D01*
Y2710180D01*
X-1222069Y2695314D01*
X-1213649Y2682711D01*
X-1178089Y2647151D01*
X-1165486Y2638731D01*
X-1150620Y2635773D01*
X-1103211D01*
X-1071684Y2604247D01*
X-1076944Y2591547D01*
X-1126909D01*
X-1140931Y2605569D01*
X-1153534Y2613989D01*
X-1168400Y2616947D01*
X-1447800D01*
X-1462666Y2613989D01*
X-1475269Y2605569D01*
X-1493520Y2587317D01*
X-1506220Y2592578D01*
Y2599494D01*
X-1510720Y2616290D01*
X-1519415Y2631350D01*
X-1531710Y2643645D01*
X-1546770Y2652340D01*
X-1559560Y2655767D01*
Y2590800D01*
X-1584960D01*
Y2655767D01*
X-1597750Y2652340D01*
X-1612153Y2644024D01*
X-1618868Y2645716D01*
X-1624853Y2648195D01*
Y3165068D01*
X-1612153Y3166740D01*
X-1610940Y3162210D01*
X-1602245Y3147150D01*
X-1589950Y3134855D01*
X-1574890Y3126160D01*
X-1562100Y3122733D01*
Y3187700D01*
Y3252667D01*
X-1574890Y3249240D01*
X-1582420Y3244892D01*
X-1595120Y3252225D01*
Y3262315D01*
X-1603627Y3282853D01*
X-1619347Y3298573D01*
X-1639885Y3307080D01*
X-1662115D01*
X-1682653Y3298573D01*
X-1698373Y3282853D01*
X-1706880Y3262315D01*
Y3240085D01*
X-1702446Y3229381D01*
X-1702547Y3228877D01*
Y2156445D01*
X-1715247Y2151184D01*
X-1815353Y2251291D01*
Y2347420D01*
X-1806827Y2355947D01*
X-1798320Y2376485D01*
Y2398715D01*
X-1806827Y2419253D01*
X-1822547Y2434973D01*
X-1843085Y2443480D01*
X-1865315D01*
X-1885853Y2434973D01*
X-1901573Y2419253D01*
X-1910080Y2398715D01*
Y2376485D01*
X-1901573Y2355947D01*
X-1893047Y2347420D01*
Y2235200D01*
X-1890089Y2220334D01*
X-1881669Y2207731D01*
X-1775973Y2102036D01*
Y2012660D01*
X-1788673Y2007400D01*
X-1797147Y2015873D01*
X-1816100Y2023724D01*
Y1968500D01*
Y1913276D01*
X-1797147Y1921127D01*
X-1788673Y1929600D01*
X-1775973Y1924340D01*
Y1876827D01*
X-1773016Y1861961D01*
X-1764595Y1849358D01*
X-1727689Y1812452D01*
X-1725240Y1803310D01*
X-1716545Y1788250D01*
X-1704250Y1775955D01*
X-1689190Y1767260D01*
X-1672394Y1762760D01*
X-1655006D01*
X-1638210Y1767260D01*
X-1623150Y1775955D01*
X-1610855Y1788250D01*
X-1602160Y1803310D01*
X-1599711Y1812452D01*
X-1572731Y1839431D01*
X-1564311Y1852034D01*
X-1561353Y1866900D01*
Y2409609D01*
X-1431709Y2539253D01*
X-1418634D01*
X-1413591Y2526553D01*
X-1420440Y2514690D01*
X-1423867Y2501900D01*
X-1293933D01*
X-1297360Y2514690D01*
X-1304209Y2526553D01*
X-1299166Y2539253D01*
X-1184491D01*
X-1170469Y2525231D01*
X-1157866Y2516811D01*
X-1143000Y2513853D01*
X-1068880D01*
X-1060353Y2505327D01*
X-1039815Y2496820D01*
X-1017585D01*
X-997047Y2505327D01*
X-988520Y2513853D01*
X-943191D01*
X-728980Y2299643D01*
Y2287585D01*
X-720473Y2267047D01*
X-704753Y2251327D01*
X-684215Y2242820D01*
X-661985D01*
X-641447Y2251327D01*
X-625727Y2267047D01*
X-617220Y2287585D01*
Y2309815D01*
X-625727Y2330353D01*
X-641447Y2346073D01*
X-661985Y2354580D01*
X-674043D01*
X-899631Y2580169D01*
X-912234Y2588589D01*
X-927100Y2591547D01*
X-988520D01*
X-989853Y2592880D01*
Y2616200D01*
X-992811Y2631066D01*
X-1001231Y2643669D01*
X-1059651Y2702089D01*
X-1069975Y2708986D01*
X-1070227Y2711547D01*
X-1061720Y2732085D01*
Y2754315D01*
X-1070227Y2774853D01*
X-1078753Y2783380D01*
Y3311309D01*
X-660889Y3729174D01*
X-641447Y3737227D01*
X-625727Y3752947D01*
X-617220Y3773485D01*
Y3795715D01*
X-625727Y3816253D01*
X-641447Y3831973D01*
X-661985Y3840480D01*
X-684215D01*
X-704753Y3831973D01*
X-720473Y3816253D01*
X-728980Y3795715D01*
Y3773485D01*
X-728240Y3771698D01*
X-1133060Y3366877D01*
X-1144793Y3371737D01*
Y3805380D01*
X-1133727Y3816447D01*
X-1125220Y3836985D01*
Y3859215D01*
X-1133727Y3879753D01*
X-1149447Y3895473D01*
X-1169985Y3903980D01*
D02*
G37*
G36*
X-151421Y3088400D02*
X-178779D01*
X-205204Y3081319D01*
X-228896Y3067641D01*
X-248241Y3048296D01*
X-261919Y3024604D01*
X-269000Y2998179D01*
Y2970821D01*
X-261919Y2944396D01*
X-248241Y2920704D01*
X-228896Y2901359D01*
X-205204Y2887681D01*
X-178779Y2880600D01*
X-151421D01*
X-124996Y2887681D01*
X-101304Y2901359D01*
X-81959Y2920704D01*
X-68281Y2944396D01*
X-61200Y2970821D01*
Y2998179D01*
X-68281Y3024604D01*
X-81959Y3048296D01*
X-101304Y3067641D01*
X-124996Y3081319D01*
X-151421Y3088400D01*
D02*
G37*
G36*
X-2386621D02*
X-2413979D01*
X-2440404Y3081319D01*
X-2464096Y3067641D01*
X-2483441Y3048296D01*
X-2497119Y3024604D01*
X-2504200Y2998179D01*
Y2970821D01*
X-2497119Y2944396D01*
X-2483441Y2920704D01*
X-2464096Y2901359D01*
X-2440404Y2887681D01*
X-2413979Y2880600D01*
X-2386621D01*
X-2360196Y2887681D01*
X-2336504Y2901359D01*
X-2317159Y2920704D01*
X-2303481Y2944396D01*
X-2296400Y2970821D01*
Y2998179D01*
X-2303481Y3024604D01*
X-2317159Y3048296D01*
X-2336504Y3067641D01*
X-2360196Y3081319D01*
X-2386621Y3088400D01*
D02*
G37*
G36*
X-520700Y2871667D02*
Y2819400D01*
X-468433D01*
X-471860Y2832190D01*
X-480555Y2847250D01*
X-492850Y2859545D01*
X-507910Y2868240D01*
X-520700Y2871667D01*
D02*
G37*
G36*
X-546100D02*
X-558890Y2868240D01*
X-573950Y2859545D01*
X-586245Y2847250D01*
X-594940Y2832190D01*
X-598367Y2819400D01*
X-546100D01*
Y2871667D01*
D02*
G37*
G36*
X-1322385Y3713480D02*
X-1344615D01*
X-1365153Y3704973D01*
X-1380873Y3689253D01*
X-1389380Y3668715D01*
Y3646485D01*
X-1380873Y3625947D01*
X-1372347Y3617420D01*
Y2872280D01*
X-1380873Y2863753D01*
X-1389380Y2843215D01*
Y2820985D01*
X-1380873Y2800447D01*
X-1365153Y2784727D01*
X-1344615Y2776220D01*
X-1322385D01*
X-1301847Y2784727D01*
X-1286127Y2800447D01*
X-1277620Y2820985D01*
Y2843215D01*
X-1286127Y2863753D01*
X-1294653Y2872280D01*
Y3617420D01*
X-1286127Y3625947D01*
X-1277620Y3646485D01*
Y3668715D01*
X-1286127Y3689253D01*
X-1301847Y3704973D01*
X-1322385Y3713480D01*
D02*
G37*
G36*
X-468433Y2794000D02*
X-520700D01*
Y2741733D01*
X-507910Y2745160D01*
X-492850Y2753855D01*
X-480555Y2766150D01*
X-471860Y2781210D01*
X-468433Y2794000D01*
D02*
G37*
G36*
X-546100D02*
X-598367D01*
X-594940Y2781210D01*
X-586245Y2766150D01*
X-573950Y2753855D01*
X-558890Y2745160D01*
X-546100Y2741733D01*
Y2794000D01*
D02*
G37*
G36*
X-151421Y2834400D02*
X-178779D01*
X-205204Y2827319D01*
X-228896Y2813641D01*
X-248241Y2794296D01*
X-261919Y2770604D01*
X-269000Y2744179D01*
Y2716821D01*
X-261919Y2690396D01*
X-248241Y2666704D01*
X-228896Y2647359D01*
X-205204Y2633681D01*
X-178779Y2626600D01*
X-151421D01*
X-124996Y2633681D01*
X-101304Y2647359D01*
X-81959Y2666704D01*
X-68281Y2690396D01*
X-61200Y2716821D01*
Y2744179D01*
X-68281Y2770604D01*
X-81959Y2794296D01*
X-101304Y2813641D01*
X-124996Y2827319D01*
X-151421Y2834400D01*
D02*
G37*
G36*
X-2386621D02*
X-2413979D01*
X-2440404Y2827319D01*
X-2464096Y2813641D01*
X-2483441Y2794296D01*
X-2497119Y2770604D01*
X-2504200Y2744179D01*
Y2716821D01*
X-2497119Y2690396D01*
X-2483441Y2666704D01*
X-2464096Y2647359D01*
X-2440404Y2633681D01*
X-2413979Y2626600D01*
X-2386621D01*
X-2360196Y2633681D01*
X-2336504Y2647359D01*
X-2317159Y2666704D01*
X-2303481Y2690396D01*
X-2296400Y2716821D01*
Y2744179D01*
X-2303481Y2770604D01*
X-2317159Y2794296D01*
X-2336504Y2813641D01*
X-2360196Y2827319D01*
X-2386621Y2834400D01*
D02*
G37*
G36*
X-1293933Y2476500D02*
X-1346200D01*
Y2424233D01*
X-1333410Y2427660D01*
X-1318350Y2436355D01*
X-1306055Y2448650D01*
X-1297360Y2463710D01*
X-1293933Y2476500D01*
D02*
G37*
G36*
X-1371600D02*
X-1423867D01*
X-1420440Y2463710D01*
X-1411745Y2448650D01*
X-1399450Y2436355D01*
X-1384390Y2427660D01*
X-1371600Y2424233D01*
Y2476500D01*
D02*
G37*
G36*
X-151421Y2580400D02*
X-178779D01*
X-205204Y2573319D01*
X-228896Y2559641D01*
X-248241Y2540296D01*
X-261919Y2516604D01*
X-269000Y2490179D01*
Y2462821D01*
X-261919Y2436396D01*
X-248241Y2412704D01*
X-228896Y2393359D01*
X-205204Y2379681D01*
X-178779Y2372600D01*
X-151421D01*
X-124996Y2379681D01*
X-101304Y2393359D01*
X-81959Y2412704D01*
X-68281Y2436396D01*
X-61200Y2462821D01*
Y2490179D01*
X-68281Y2516604D01*
X-81959Y2540296D01*
X-101304Y2559641D01*
X-124996Y2573319D01*
X-151421Y2580400D01*
D02*
G37*
G36*
X-2386621D02*
X-2413979D01*
X-2440404Y2573319D01*
X-2464096Y2559641D01*
X-2483441Y2540296D01*
X-2497119Y2516604D01*
X-2504200Y2490179D01*
Y2462821D01*
X-2497119Y2436396D01*
X-2483441Y2412704D01*
X-2464096Y2393359D01*
X-2440404Y2379681D01*
X-2413979Y2372600D01*
X-2386621D01*
X-2360196Y2379681D01*
X-2336504Y2393359D01*
X-2317159Y2412704D01*
X-2303481Y2436396D01*
X-2296400Y2462821D01*
Y2490179D01*
X-2303481Y2516604D01*
X-2317159Y2540296D01*
X-2336504Y2559641D01*
X-2360196Y2573319D01*
X-2386621Y2580400D01*
D02*
G37*
G36*
X-509585Y2646680D02*
X-531815D01*
X-552353Y2638173D01*
X-568073Y2622453D01*
X-576580Y2601915D01*
Y2579685D01*
X-568073Y2559147D01*
X-552353Y2543427D01*
X-531815Y2534920D01*
X-519757D01*
X-356347Y2371509D01*
Y1866900D01*
X-353389Y1852034D01*
X-344969Y1839431D01*
X-261268Y1755731D01*
X-261919Y1754604D01*
X-269000Y1728179D01*
Y1700821D01*
X-261919Y1674396D01*
X-248241Y1650704D01*
X-228896Y1631359D01*
X-205204Y1617681D01*
X-178779Y1610600D01*
X-151421D01*
X-124996Y1617681D01*
X-101304Y1631359D01*
X-81959Y1650704D01*
X-68281Y1674396D01*
X-61200Y1700821D01*
Y1728179D01*
X-68281Y1754604D01*
X-81959Y1778296D01*
X-101304Y1797641D01*
X-124996Y1811319D01*
X-151421Y1818400D01*
X-178779D01*
X-205204Y1811319D01*
X-206331Y1810668D01*
X-278653Y1882991D01*
Y1941779D01*
X-265953Y1943452D01*
X-261919Y1928396D01*
X-248241Y1904704D01*
X-228896Y1885359D01*
X-205204Y1871681D01*
X-178779Y1864600D01*
X-151421D01*
X-124996Y1871681D01*
X-101304Y1885359D01*
X-81959Y1904704D01*
X-68281Y1928396D01*
X-61200Y1954821D01*
Y1982179D01*
X-68281Y2008604D01*
X-81959Y2032296D01*
X-101304Y2051641D01*
X-124996Y2065319D01*
X-151421Y2072400D01*
X-178779D01*
X-205204Y2065319D01*
X-228896Y2051641D01*
X-248241Y2032296D01*
X-261919Y2008604D01*
X-265953Y1993548D01*
X-278653Y1995221D01*
Y2195779D01*
X-265953Y2197452D01*
X-261919Y2182396D01*
X-248241Y2158704D01*
X-228896Y2139359D01*
X-205204Y2125681D01*
X-178779Y2118600D01*
X-151421D01*
X-124996Y2125681D01*
X-101304Y2139359D01*
X-81959Y2158704D01*
X-68281Y2182396D01*
X-61200Y2208821D01*
Y2236179D01*
X-68281Y2262604D01*
X-81959Y2286296D01*
X-101304Y2305641D01*
X-124996Y2319319D01*
X-151421Y2326400D01*
X-178779D01*
X-205204Y2319319D01*
X-228896Y2305641D01*
X-248241Y2286296D01*
X-261919Y2262604D01*
X-265953Y2247548D01*
X-278653Y2249221D01*
Y2387600D01*
X-281611Y2402466D01*
X-290031Y2415069D01*
X-464820Y2589857D01*
Y2601915D01*
X-473327Y2622453D01*
X-489047Y2638173D01*
X-509585Y2646680D01*
D02*
G37*
G36*
X-2386621Y2326400D02*
X-2413979D01*
X-2440404Y2319319D01*
X-2464096Y2305641D01*
X-2483441Y2286296D01*
X-2497119Y2262604D01*
X-2504200Y2236179D01*
Y2208821D01*
X-2497119Y2182396D01*
X-2483441Y2158704D01*
X-2464096Y2139359D01*
X-2440404Y2125681D01*
X-2413979Y2118600D01*
X-2386621D01*
X-2360196Y2125681D01*
X-2336504Y2139359D01*
X-2317159Y2158704D01*
X-2303481Y2182396D01*
X-2296400Y2208821D01*
Y2236179D01*
X-2303481Y2262604D01*
X-2317159Y2286296D01*
X-2336504Y2305641D01*
X-2360196Y2319319D01*
X-2386621Y2326400D01*
D02*
G37*
G36*
X-2006600Y2160467D02*
Y2108200D01*
X-1954333D01*
X-1957760Y2120990D01*
X-1966455Y2136050D01*
X-1978750Y2148345D01*
X-1993810Y2157040D01*
X-2006600Y2160467D01*
D02*
G37*
G36*
X-2032000D02*
X-2044790Y2157040D01*
X-2059850Y2148345D01*
X-2072145Y2136050D01*
X-2080840Y2120990D01*
X-2084267Y2108200D01*
X-2032000D01*
Y2160467D01*
D02*
G37*
G36*
X-1954333Y2082800D02*
X-2006600D01*
Y2030533D01*
X-1993810Y2033960D01*
X-1978750Y2042655D01*
X-1966455Y2054950D01*
X-1957760Y2070010D01*
X-1954333Y2082800D01*
D02*
G37*
G36*
X-2032000D02*
X-2084267D01*
X-2080840Y2070010D01*
X-2072145Y2054950D01*
X-2059850Y2042655D01*
X-2044790Y2033960D01*
X-2032000Y2030533D01*
Y2082800D01*
D02*
G37*
G36*
X-1841500Y2023724D02*
X-1860453Y2015873D01*
X-1876173Y2000153D01*
X-1884024Y1981200D01*
X-1841500D01*
Y2023724D01*
D02*
G37*
G36*
Y1955800D02*
X-1884024D01*
X-1876173Y1936847D01*
X-1860453Y1921127D01*
X-1841500Y1913276D01*
Y1955800D01*
D02*
G37*
G36*
X-2386621Y2072400D02*
X-2413979D01*
X-2440404Y2065319D01*
X-2464096Y2051641D01*
X-2483441Y2032296D01*
X-2497119Y2008604D01*
X-2504200Y1982179D01*
Y1954821D01*
X-2497119Y1928396D01*
X-2483441Y1904704D01*
X-2464096Y1885359D01*
X-2440404Y1871681D01*
X-2413979Y1864600D01*
X-2386621D01*
X-2360196Y1871681D01*
X-2336504Y1885359D01*
X-2317159Y1904704D01*
X-2303481Y1928396D01*
X-2296400Y1954821D01*
Y1982179D01*
X-2303481Y2008604D01*
X-2317159Y2032296D01*
X-2336504Y2051641D01*
X-2360196Y2065319D01*
X-2386621Y2072400D01*
D02*
G37*
G36*
X-787400Y1893767D02*
Y1841500D01*
X-735133D01*
X-738560Y1854290D01*
X-747255Y1869350D01*
X-759550Y1881645D01*
X-774610Y1890340D01*
X-787400Y1893767D01*
D02*
G37*
G36*
X-812800D02*
X-825590Y1890340D01*
X-840650Y1881645D01*
X-852945Y1869350D01*
X-861640Y1854290D01*
X-865067Y1841500D01*
X-812800D01*
Y1893767D01*
D02*
G37*
G36*
X-735133Y1816100D02*
X-787400D01*
Y1763833D01*
X-774610Y1767260D01*
X-759550Y1775955D01*
X-747255Y1788250D01*
X-738560Y1803310D01*
X-735133Y1816100D01*
D02*
G37*
G36*
X-812800D02*
X-865067D01*
X-861640Y1803310D01*
X-852945Y1788250D01*
X-840650Y1775955D01*
X-825590Y1767260D01*
X-812800Y1763833D01*
Y1816100D01*
D02*
G37*
G36*
X-787400Y1741367D02*
Y1689100D01*
X-735133D01*
X-738560Y1701890D01*
X-747255Y1716950D01*
X-759550Y1729245D01*
X-774610Y1737940D01*
X-787400Y1741367D01*
D02*
G37*
G36*
X-812800D02*
X-825590Y1737940D01*
X-840650Y1729245D01*
X-852945Y1716950D01*
X-861640Y1701890D01*
X-865067Y1689100D01*
X-812800D01*
Y1741367D01*
D02*
G37*
G36*
X-735133Y1663700D02*
X-787400D01*
Y1611433D01*
X-774610Y1614860D01*
X-759550Y1623555D01*
X-747255Y1635850D01*
X-738560Y1650910D01*
X-735133Y1663700D01*
D02*
G37*
G36*
X-812800D02*
X-865067D01*
X-861640Y1650910D01*
X-852945Y1635850D01*
X-840650Y1623555D01*
X-825590Y1614860D01*
X-812800Y1611433D01*
Y1663700D01*
D02*
G37*
G36*
X-2386621Y1818400D02*
X-2413979D01*
X-2440404Y1811319D01*
X-2464096Y1797641D01*
X-2483441Y1778296D01*
X-2497119Y1754604D01*
X-2504200Y1728179D01*
Y1700821D01*
X-2497119Y1674396D01*
X-2483441Y1650704D01*
X-2464096Y1631359D01*
X-2440404Y1617681D01*
X-2413979Y1610600D01*
X-2386621D01*
X-2360196Y1617681D01*
X-2336504Y1631359D01*
X-2317159Y1650704D01*
X-2303481Y1674396D01*
X-2296400Y1700821D01*
Y1728179D01*
X-2303481Y1754604D01*
X-2317159Y1778296D01*
X-2336504Y1797641D01*
X-2360196Y1811319D01*
X-2386621Y1818400D01*
D02*
G37*
G36*
X-1562100Y1576267D02*
Y1524000D01*
X-1509833D01*
X-1513260Y1536790D01*
X-1521955Y1551850D01*
X-1534250Y1564145D01*
X-1549310Y1572840D01*
X-1562100Y1576267D01*
D02*
G37*
G36*
X-1587500D02*
X-1600290Y1572840D01*
X-1615350Y1564145D01*
X-1627645Y1551850D01*
X-1636340Y1536790D01*
X-1639767Y1524000D01*
X-1587500D01*
Y1576267D01*
D02*
G37*
G36*
X-1509833Y1498600D02*
X-1562100D01*
Y1446333D01*
X-1549310Y1449760D01*
X-1534250Y1458455D01*
X-1521955Y1470750D01*
X-1513260Y1485810D01*
X-1509833Y1498600D01*
D02*
G37*
G36*
X-1587500D02*
X-1639767D01*
X-1636340Y1485810D01*
X-1627645Y1470750D01*
X-1615350Y1458455D01*
X-1600290Y1449760D01*
X-1587500Y1446333D01*
Y1498600D01*
D02*
G37*
G36*
X-151421Y1564400D02*
X-178779D01*
X-205204Y1557319D01*
X-228896Y1543641D01*
X-248241Y1524296D01*
X-261919Y1500604D01*
X-269000Y1474179D01*
Y1446821D01*
X-261919Y1420396D01*
X-248241Y1396704D01*
X-228896Y1377359D01*
X-205204Y1363681D01*
X-178779Y1356600D01*
X-151421D01*
X-124996Y1363681D01*
X-101304Y1377359D01*
X-81959Y1396704D01*
X-68281Y1420396D01*
X-61200Y1446821D01*
Y1474179D01*
X-68281Y1500604D01*
X-81959Y1524296D01*
X-101304Y1543641D01*
X-124996Y1557319D01*
X-151421Y1564400D01*
D02*
G37*
G36*
X-2386621D02*
X-2413979D01*
X-2440404Y1557319D01*
X-2464096Y1543641D01*
X-2483441Y1524296D01*
X-2497119Y1500604D01*
X-2504200Y1474179D01*
Y1446821D01*
X-2497119Y1420396D01*
X-2483441Y1396704D01*
X-2464096Y1377359D01*
X-2440404Y1363681D01*
X-2413979Y1356600D01*
X-2386621D01*
X-2360196Y1363681D01*
X-2336504Y1377359D01*
X-2317159Y1396704D01*
X-2303481Y1420396D01*
X-2296400Y1446821D01*
Y1474179D01*
X-2303481Y1500604D01*
X-2317159Y1524296D01*
X-2336504Y1543641D01*
X-2360196Y1557319D01*
X-2386621Y1564400D01*
D02*
G37*
G36*
X-2146300Y1388724D02*
Y1346200D01*
X-2103776D01*
X-2111627Y1365153D01*
X-2127347Y1380873D01*
X-2146300Y1388724D01*
D02*
G37*
G36*
X-2171700D02*
X-2190653Y1380873D01*
X-2206373Y1365153D01*
X-2214224Y1346200D01*
X-2171700D01*
Y1388724D01*
D02*
G37*
G36*
X-2103776Y1320800D02*
X-2146300D01*
Y1278276D01*
X-2127347Y1286127D01*
X-2111627Y1301847D01*
X-2103776Y1320800D01*
D02*
G37*
G36*
X-2171700D02*
X-2214224D01*
X-2206373Y1301847D01*
X-2190653Y1286127D01*
X-2171700Y1278276D01*
Y1320800D01*
D02*
G37*
G36*
X-1807406Y1386840D02*
X-1824794D01*
X-1841590Y1382340D01*
X-1856650Y1373645D01*
X-1868945Y1361350D01*
X-1877640Y1346290D01*
X-1882140Y1329494D01*
Y1312106D01*
X-1877640Y1295310D01*
X-1868945Y1280250D01*
X-1856650Y1267955D01*
X-1841590Y1259260D01*
X-1824794Y1254760D01*
X-1807406D01*
X-1790610Y1259260D01*
X-1775550Y1267955D01*
X-1763255Y1280250D01*
X-1754560Y1295310D01*
X-1750060Y1312106D01*
Y1329494D01*
X-1754560Y1346290D01*
X-1763255Y1361350D01*
X-1775550Y1373645D01*
X-1790610Y1382340D01*
X-1807406Y1386840D01*
D02*
G37*
G36*
X-2386621Y1310400D02*
X-2387600D01*
Y1219200D01*
X-2296400D01*
Y1220179D01*
X-2303481Y1246604D01*
X-2317159Y1270296D01*
X-2336504Y1289641D01*
X-2360196Y1303319D01*
X-2386621Y1310400D01*
D02*
G37*
G36*
X-2413000D02*
X-2413979D01*
X-2440404Y1303319D01*
X-2464096Y1289641D01*
X-2483441Y1270296D01*
X-2497119Y1246604D01*
X-2504200Y1220179D01*
Y1219200D01*
X-2413000D01*
Y1310400D01*
D02*
G37*
G36*
X-151421D02*
X-178779D01*
X-205204Y1303319D01*
X-228896Y1289641D01*
X-248241Y1270296D01*
X-261919Y1246604D01*
X-269000Y1220179D01*
Y1192821D01*
X-261919Y1166396D01*
X-248241Y1142704D01*
X-228896Y1123359D01*
X-205204Y1109681D01*
X-178779Y1102600D01*
X-151421D01*
X-124996Y1109681D01*
X-101304Y1123359D01*
X-81959Y1142704D01*
X-68281Y1166396D01*
X-61200Y1192821D01*
Y1220179D01*
X-68281Y1246604D01*
X-81959Y1270296D01*
X-101304Y1289641D01*
X-124996Y1303319D01*
X-151421Y1310400D01*
D02*
G37*
G36*
X-2296400Y1193800D02*
X-2387600D01*
Y1102600D01*
X-2386621D01*
X-2360196Y1109681D01*
X-2336504Y1123359D01*
X-2317159Y1142704D01*
X-2303481Y1166396D01*
X-2296400Y1192821D01*
Y1193800D01*
D02*
G37*
G36*
X-2413000D02*
X-2504200D01*
Y1192821D01*
X-2497119Y1166396D01*
X-2483441Y1142704D01*
X-2464096Y1123359D01*
X-2440404Y1109681D01*
X-2413979Y1102600D01*
X-2413000D01*
Y1193800D01*
D02*
G37*
G36*
X-2146300Y1096624D02*
Y1054100D01*
X-2103776D01*
X-2111627Y1073053D01*
X-2127347Y1088773D01*
X-2146300Y1096624D01*
D02*
G37*
G36*
X-2171700D02*
X-2190653Y1088773D01*
X-2206373Y1073053D01*
X-2214224Y1054100D01*
X-2171700D01*
Y1096624D01*
D02*
G37*
G36*
X-1474785Y2151380D02*
X-1497015D01*
X-1517553Y2142873D01*
X-1533273Y2127153D01*
X-1541780Y2106615D01*
Y2084385D01*
X-1533273Y2063847D01*
X-1517553Y2048127D01*
X-1497015Y2039620D01*
X-1484957D01*
X-1385047Y1939709D01*
Y1132380D01*
X-1393573Y1123853D01*
X-1402080Y1103315D01*
Y1081085D01*
X-1393573Y1060547D01*
X-1377853Y1044827D01*
X-1357315Y1036320D01*
X-1335085D01*
X-1314547Y1044827D01*
X-1298827Y1060547D01*
X-1290320Y1081085D01*
Y1103315D01*
X-1298827Y1123853D01*
X-1307353Y1132380D01*
Y1868088D01*
X-1294653Y1873214D01*
X-1290250Y1868649D01*
Y1148579D01*
X-1287293Y1133713D01*
X-1278872Y1121110D01*
X-1250316Y1092554D01*
Y1080495D01*
X-1241809Y1059957D01*
X-1226089Y1044238D01*
X-1205551Y1035731D01*
X-1183321D01*
X-1162783Y1044238D01*
X-1147063Y1059957D01*
X-1138556Y1080495D01*
Y1102726D01*
X-1147063Y1123264D01*
X-1162783Y1138983D01*
X-1183321Y1147491D01*
X-1195379D01*
X-1212557Y1164669D01*
Y1858016D01*
X-1197227Y1873347D01*
X-1188720Y1893885D01*
Y1916115D01*
X-1197227Y1936653D01*
X-1212947Y1952373D01*
X-1233485Y1960880D01*
X-1255715D01*
X-1276253Y1952373D01*
X-1291973Y1936653D01*
X-1294653Y1930182D01*
X-1307353Y1932708D01*
Y1955800D01*
X-1310311Y1970666D01*
X-1318731Y1983269D01*
X-1430020Y2094557D01*
Y2106615D01*
X-1438527Y2127153D01*
X-1454247Y2142873D01*
X-1474785Y2151380D01*
D02*
G37*
G36*
X-2103776Y1028700D02*
X-2146300D01*
Y986176D01*
X-2127347Y994027D01*
X-2111627Y1009747D01*
X-2103776Y1028700D01*
D02*
G37*
G36*
X-2171700D02*
X-2214224D01*
X-2206373Y1009747D01*
X-2190653Y994027D01*
X-2171700Y986176D01*
Y1028700D01*
D02*
G37*
G36*
X-2386621Y1056400D02*
X-2387600D01*
Y965200D01*
X-2296400D01*
Y966179D01*
X-2303481Y992604D01*
X-2317159Y1016296D01*
X-2336504Y1035641D01*
X-2360196Y1049319D01*
X-2386621Y1056400D01*
D02*
G37*
G36*
X-2413000D02*
X-2413979D01*
X-2440404Y1049319D01*
X-2464096Y1035641D01*
X-2483441Y1016296D01*
X-2497119Y992604D01*
X-2504200Y966179D01*
Y965200D01*
X-2413000D01*
Y1056400D01*
D02*
G37*
G36*
X-151421D02*
X-178779D01*
X-205204Y1049319D01*
X-228896Y1035641D01*
X-248241Y1016296D01*
X-261919Y992604D01*
X-269000Y966179D01*
Y938821D01*
X-261919Y912396D01*
X-248241Y888704D01*
X-228896Y869359D01*
X-205204Y855681D01*
X-178779Y848600D01*
X-151421D01*
X-124996Y855681D01*
X-101304Y869359D01*
X-81959Y888704D01*
X-68281Y912396D01*
X-61200Y938821D01*
Y966179D01*
X-68281Y992604D01*
X-81959Y1016296D01*
X-101304Y1035641D01*
X-124996Y1049319D01*
X-151421Y1056400D01*
D02*
G37*
G36*
X-2296400Y939800D02*
X-2387600D01*
Y848600D01*
X-2386621D01*
X-2360196Y855681D01*
X-2336504Y869359D01*
X-2317159Y888704D01*
X-2303481Y912396D01*
X-2296400Y938821D01*
Y939800D01*
D02*
G37*
G36*
X-2413000D02*
X-2504200D01*
Y938821D01*
X-2497119Y912396D01*
X-2483441Y888704D01*
X-2464096Y869359D01*
X-2440404Y855681D01*
X-2413979Y848600D01*
X-2413000D01*
Y939800D01*
D02*
G37*
G36*
X-61200Y802400D02*
X-152400D01*
Y711200D01*
X-61200D01*
Y802400D01*
D02*
G37*
G36*
X-177800D02*
X-269000D01*
Y711200D01*
X-177800D01*
Y802400D01*
D02*
G37*
G36*
X-850700Y743951D02*
X-870384Y741359D01*
X-888725Y733762D01*
X-904476Y721676D01*
X-916562Y705925D01*
X-924159Y687583D01*
X-926751Y667900D01*
Y602123D01*
X-939451Y594790D01*
X-939710Y594940D01*
X-952500Y598367D01*
Y533400D01*
Y468433D01*
X-939710Y471860D01*
X-924650Y480555D01*
X-912355Y492850D01*
X-903660Y507910D01*
X-901531Y515856D01*
X-891210Y520839D01*
X-886926Y521293D01*
X-870384Y514441D01*
X-850700Y511849D01*
X-831017Y514441D01*
X-812675Y522038D01*
X-796924Y534124D01*
X-784838Y549875D01*
X-777241Y568217D01*
X-774649Y587900D01*
Y667900D01*
X-777241Y687583D01*
X-784838Y705925D01*
X-796924Y721676D01*
X-812675Y733762D01*
X-831017Y741359D01*
X-850700Y743951D01*
D02*
G37*
G36*
X-61200Y685800D02*
X-152400D01*
Y594600D01*
X-61200D01*
Y685800D01*
D02*
G37*
G36*
X-177800D02*
X-269000D01*
Y594600D01*
X-177800D01*
Y685800D01*
D02*
G37*
G36*
X-2296400Y802400D02*
X-2504200D01*
Y594600D01*
X-2296400D01*
Y802400D01*
D02*
G37*
G36*
X-1587500Y623767D02*
Y571500D01*
X-1535233D01*
X-1538660Y584290D01*
X-1547355Y599350D01*
X-1559650Y611645D01*
X-1574710Y620340D01*
X-1587500Y623767D01*
D02*
G37*
G36*
X-977900Y598367D02*
X-990690Y594940D01*
X-1005750Y586245D01*
X-1018045Y573950D01*
X-1026740Y558890D01*
X-1030167Y546100D01*
X-977900D01*
Y598367D01*
D02*
G37*
G36*
X-1535233Y546100D02*
X-1587500D01*
Y493833D01*
X-1574710Y497260D01*
X-1559650Y505955D01*
X-1547355Y518250D01*
X-1538660Y533310D01*
X-1535233Y546100D01*
D02*
G37*
G36*
X-1714700Y743951D02*
X-1734383Y741359D01*
X-1752725Y733762D01*
X-1768476Y721676D01*
X-1780562Y705925D01*
X-1788159Y687583D01*
X-1790751Y667900D01*
Y587900D01*
X-1788159Y568217D01*
X-1780562Y549875D01*
X-1768476Y534124D01*
X-1752725Y522038D01*
X-1734383Y514441D01*
X-1714700Y511849D01*
X-1695016Y514441D01*
X-1676675Y522038D01*
X-1671978Y525642D01*
X-1655410Y522347D01*
X-1653045Y518250D01*
X-1640750Y505955D01*
X-1625690Y497260D01*
X-1612900Y493833D01*
Y558800D01*
Y623767D01*
X-1625690Y620340D01*
X-1627651Y619208D01*
X-1638649Y625558D01*
Y667900D01*
X-1641241Y687583D01*
X-1648838Y705925D01*
X-1660924Y721676D01*
X-1676675Y733762D01*
X-1695016Y741359D01*
X-1714700Y743951D01*
D02*
G37*
G36*
X-977900Y520700D02*
X-1030167D01*
X-1026740Y507910D01*
X-1018045Y492850D01*
X-1005750Y480555D01*
X-990690Y471860D01*
X-977900Y468433D01*
Y520700D01*
D02*
G37*
G36*
X-850700Y363951D02*
X-870384Y361359D01*
X-888725Y353762D01*
X-904476Y341676D01*
X-916562Y325925D01*
X-924159Y307584D01*
X-926751Y287900D01*
Y167900D01*
X-924159Y148216D01*
X-916562Y129875D01*
X-904476Y114124D01*
X-888725Y102038D01*
X-870384Y94441D01*
X-850700Y91849D01*
X-831017Y94441D01*
X-812675Y102038D01*
X-796924Y114124D01*
X-784838Y129875D01*
X-777241Y148216D01*
X-774649Y167900D01*
Y287900D01*
X-777241Y307584D01*
X-784838Y325925D01*
X-796924Y341676D01*
X-812675Y353762D01*
X-831017Y361359D01*
X-850700Y363951D01*
D02*
G37*
G36*
X-1714700D02*
X-1734383Y361359D01*
X-1752725Y353762D01*
X-1768476Y341676D01*
X-1780562Y325925D01*
X-1788159Y307584D01*
X-1790751Y287900D01*
Y167900D01*
X-1788159Y148216D01*
X-1780562Y129875D01*
X-1768476Y114124D01*
X-1752725Y102038D01*
X-1734383Y94441D01*
X-1714700Y91849D01*
X-1695016Y94441D01*
X-1676675Y102038D01*
X-1660924Y114124D01*
X-1648838Y129875D01*
X-1641241Y148216D01*
X-1638649Y167900D01*
Y287900D01*
X-1641241Y307584D01*
X-1648838Y325925D01*
X-1660924Y341676D01*
X-1676675Y353762D01*
X-1695016Y361359D01*
X-1714700Y363951D01*
D02*
G37*
%LPD*%
D26*
X-1028700Y2552700D02*
X-927100D01*
X-673100Y2298700D01*
X-546100Y3777341D02*
X-520700Y3751941D01*
Y3314700D02*
Y3751941D01*
X-546100Y3777341D02*
Y3784600D01*
X-1251404Y1148579D02*
Y1898196D01*
X-1244600Y1905000D01*
X-1251404Y1148579D02*
X-1194436Y1091611D01*
X-1600200Y2425700D02*
X-1447800Y2578100D01*
X-1674392Y1839492D02*
X-1663700Y1828800D01*
X-1168400Y2578100D02*
X-1143000Y2552700D01*
X-1663700Y1828800D02*
X-1651000Y1841500D01*
X-1447800Y2578100D02*
X-1168400D01*
X-1653008Y1843508D02*
X-1651000Y1841500D01*
X-1663700Y1828800D02*
Y1841500D01*
Y3228877D01*
X-1699792Y1839492D02*
X-1674392D01*
X-1737127Y1876827D02*
X-1699792Y1839492D01*
X-1737127Y1876827D02*
Y2118127D01*
X-1651000Y3241577D02*
Y3251200D01*
X-1663700Y3228877D02*
X-1651000Y3241577D01*
X-1653008Y1839492D02*
X-1627608D01*
X-1600200Y1866900D01*
Y2425700D01*
X-1854200Y2235200D02*
X-1737127Y2118127D01*
X-1143000Y2552700D02*
X-1028700D01*
X-1150620Y2674620D02*
X-1087120D01*
X-1028700Y2616200D01*
Y2552700D02*
Y2616200D01*
X-1186180Y2710180D02*
X-1150620Y2674620D01*
X-1186180Y2710180D02*
Y3187700D01*
X-1117600Y2743200D02*
Y3327400D01*
X-1186180Y3187700D02*
X-1183640Y3190240D01*
X-676177Y3771900D02*
X-673100D01*
X-679904Y3765096D02*
Y3768174D01*
X-1183640Y3190240D02*
Y3845560D01*
X-1117600Y3327400D02*
X-679904Y3765096D01*
Y3768174D02*
X-676177Y3771900D01*
X-1183640Y3845560D02*
X-1181100Y3848100D01*
X-1485900Y2095500D02*
X-1346200Y1955800D01*
X-317500Y1866900D02*
X-165100Y1714500D01*
X-317500Y1866900D02*
Y2387600D01*
X-520700Y2590800D02*
X-317500Y2387600D01*
X-1447800Y2908300D02*
Y3759200D01*
X-1333500Y2832100D02*
Y3657600D01*
X-1854200Y2235200D02*
Y2387600D01*
X-1346200Y1092200D02*
Y1955800D01*
D28*
X-2400300Y1460500D02*
D03*
Y1714500D02*
D03*
Y1968500D02*
D03*
Y2222500D02*
D03*
Y2476500D02*
D03*
Y2730500D02*
D03*
Y2984500D02*
D03*
Y3238500D02*
D03*
Y3492500D02*
D03*
Y3746500D02*
D03*
Y4000500D02*
D03*
Y952500D02*
D03*
Y1206500D02*
D03*
X-165100Y952500D02*
D03*
Y1206500D02*
D03*
Y1460500D02*
D03*
Y1968500D02*
D03*
Y2222500D02*
D03*
Y2476500D02*
D03*
Y2984500D02*
D03*
Y3238500D02*
D03*
Y3746500D02*
D03*
Y3492500D02*
D03*
Y2730500D02*
D03*
Y1714500D02*
D03*
Y4000500D02*
D03*
D29*
X-2400300Y698500D02*
D03*
X-165100D02*
D03*
D30*
X-1714700Y227900D02*
D03*
X-850700D02*
D03*
D31*
X-1714700Y627900D02*
D03*
X-850700D02*
D03*
D32*
X-673100Y2298700D02*
D03*
X-1244600Y1905000D02*
D03*
X-1828800Y1968500D02*
D03*
X-1651000Y3251200D02*
D03*
X-2159000Y1333500D02*
D03*
Y1041400D02*
D03*
X-1028700Y2552700D02*
D03*
X-1117600Y2743200D02*
D03*
X-1186180Y3187700D02*
D03*
X-1181100Y3848100D02*
D03*
X-520700Y3314700D02*
D03*
X-546100Y3784600D02*
D03*
X-673100D02*
D03*
X-1485900Y2095500D02*
D03*
X-520700Y2590800D02*
D03*
X-1181100Y4051300D02*
D03*
X-1422400Y3898900D02*
D03*
X-1447800Y3759200D02*
D03*
X-1333500Y3657600D02*
D03*
X-1854200Y2387600D02*
D03*
X-1346200Y1092200D02*
D03*
X-1333500Y2832100D02*
D03*
X-1447800Y2908300D02*
D03*
X-1194436Y1091611D02*
D03*
D33*
X-533400Y2806700D02*
D03*
X-965200Y3225800D02*
D03*
Y533400D02*
D03*
X-2120900Y4178300D02*
D03*
X-1358900Y2489200D02*
D03*
X-1572260Y2590800D02*
D03*
X-1549400Y3187700D02*
D03*
X-1600200Y558800D02*
D03*
X-2159000Y3365500D02*
D03*
X-800100Y1828800D02*
D03*
Y1676400D02*
D03*
X-1574800Y1511300D02*
D03*
X-2019300Y2095500D02*
D03*
X-1816100Y1320800D02*
D03*
X-1663700Y1828800D02*
D03*
%TF.MD5,4acabd9e63547773f98a0e6d8ebb3fdd*%
M02*
