%TF.GenerationSoftware,Altium Limited,Altium Designer,25.8.1 (18)*%
G04 Layer_Physical_Order=1*
G04 Layer_Color=255*
%FSLAX45Y45*%
%MOMM*%
%TF.SameCoordinates,8EA201BF-015D-4237-A21D-AC5F4ADB3718*%
%TF.FilePolarity,Positive*%
%TF.FileFunction,Copper,L1,Top,Signal*%
%TF.Part,Single*%
G01*
G75*
%TA.AperFunction,SMDPad,CuDef*%
%ADD10R,0.90000X0.85000*%
%ADD11R,0.80000X0.80000*%
G04:AMPARAMS|DCode=12|XSize=1.55748mm|YSize=0.74248mm|CornerRadius=0.37124mm|HoleSize=0mm|Usage=FLASHONLY|Rotation=0.000|XOffset=0mm|YOffset=0mm|HoleType=Round|Shape=RoundedRectangle|*
%AMROUNDEDRECTD12*
21,1,1.55748,0.00000,0,0,0.0*
21,1,0.81501,0.74248,0,0,0.0*
1,1,0.74247,0.40750,0.00000*
1,1,0.74247,-0.40750,0.00000*
1,1,0.74247,-0.40750,0.00000*
1,1,0.74247,0.40750,0.00000*
%
%ADD12ROUNDEDRECTD12*%
%ADD13R,1.55748X0.74248*%
%ADD14R,0.80000X0.80000*%
%ADD15R,1.50000X1.00000*%
G04:AMPARAMS|DCode=16|XSize=0.8mm|YSize=1mm|CornerRadius=0.1mm|HoleSize=0mm|Usage=FLASHONLY|Rotation=90.000|XOffset=0mm|YOffset=0mm|HoleType=Round|Shape=RoundedRectangle|*
%AMROUNDEDRECTD16*
21,1,0.80000,0.80000,0,0,90.0*
21,1,0.60000,1.00000,0,0,90.0*
1,1,0.20000,0.40000,0.30000*
1,1,0.20000,0.40000,-0.30000*
1,1,0.20000,-0.40000,-0.30000*
1,1,0.20000,-0.40000,0.30000*
%
%ADD16ROUNDEDRECTD16*%
%ADD17R,0.80000X0.75000*%
G04:AMPARAMS|DCode=18|XSize=0.8mm|YSize=1mm|CornerRadius=0.1mm|HoleSize=0mm|Usage=FLASHONLY|Rotation=180.000|XOffset=0mm|YOffset=0mm|HoleType=Round|Shape=RoundedRectangle|*
%AMROUNDEDRECTD18*
21,1,0.80000,0.80000,0,0,180.0*
21,1,0.60000,1.00000,0,0,180.0*
1,1,0.20000,-0.30000,0.40000*
1,1,0.20000,0.30000,0.40000*
1,1,0.20000,0.30000,-0.40000*
1,1,0.20000,-0.30000,-0.40000*
%
%ADD18ROUNDEDRECTD18*%
%ADD19R,1.00000X0.66000*%
%TA.AperFunction,ConnectorPad*%
%ADD20R,0.30000X1.15000*%
%ADD21R,0.60000X1.15000*%
%TA.AperFunction,SMDPad,CuDef*%
%ADD22R,1.30000X1.05000*%
%ADD23O,0.60000X2.05000*%
%ADD24O,2.05000X0.60000*%
%ADD25R,0.85000X0.90000*%
%TA.AperFunction,Conductor*%
%ADD26C,0.25400*%
%ADD27C,0.38100*%
%TA.AperFunction,ComponentPad*%
%ADD28C,1.57000*%
%ADD29R,1.57000X1.57000*%
G04:AMPARAMS|DCode=30|XSize=1mm|YSize=2.2mm|CornerRadius=0.5mm|HoleSize=0mm|Usage=FLASHONLY|Rotation=0.000|XOffset=0mm|YOffset=0mm|HoleType=Round|Shape=RoundedRectangle|*
%AMROUNDEDRECTD30*
21,1,1.00000,1.20000,0,0,0.0*
21,1,0.00000,2.20000,0,0,0.0*
1,1,1.00000,0.00000,-0.60000*
1,1,1.00000,0.00000,-0.60000*
1,1,1.00000,0.00000,0.60000*
1,1,1.00000,0.00000,0.60000*
%
%ADD30ROUNDEDRECTD30*%
G04:AMPARAMS|DCode=31|XSize=1mm|YSize=1.8mm|CornerRadius=0.5mm|HoleSize=0mm|Usage=FLASHONLY|Rotation=0.000|XOffset=0mm|YOffset=0mm|HoleType=Round|Shape=RoundedRectangle|*
%AMROUNDEDRECTD31*
21,1,1.00000,0.80000,0,0,0.0*
21,1,0.00000,1.80000,0,0,0.0*
1,1,1.00000,0.00000,-0.40000*
1,1,1.00000,0.00000,-0.40000*
1,1,1.00000,0.00000,0.40000*
1,1,1.00000,0.00000,0.40000*
%
%ADD31ROUNDEDRECTD31*%
%TA.AperFunction,ViaPad*%
%ADD32C,0.60960*%
%ADD33C,0.81280*%
G36*
X-838000Y513521D02*
X-831017Y514441D01*
X-825500Y516726D01*
X-800100Y501426D01*
Y374374D01*
X-825500Y359074D01*
X-831017Y361359D01*
X-838000Y362279D01*
Y227900D01*
Y93521D01*
X-831017Y94441D01*
X-825500Y96725D01*
X-800100Y81426D01*
Y25400D01*
X-1765300D01*
Y81426D01*
X-1739900Y96725D01*
X-1734383Y94441D01*
X-1727400Y93521D01*
Y227900D01*
Y362279D01*
X-1734383Y361359D01*
X-1739900Y359074D01*
X-1765300Y374374D01*
Y501426D01*
X-1739900Y516726D01*
X-1734383Y514441D01*
X-1727400Y513521D01*
Y627900D01*
X-1702000D01*
Y513521D01*
X-1695016Y514441D01*
X-1689100Y516891D01*
X-1663700Y501826D01*
Y482600D01*
X-1007795D01*
X-1005750Y480555D01*
X-990690Y471860D01*
X-973894Y467360D01*
X-956506D01*
X-939710Y471860D01*
X-924650Y480555D01*
X-922605Y482600D01*
X-901700D01*
Y501220D01*
X-901080Y502215D01*
X-878735Y516231D01*
X-875092Y516391D01*
X-870384Y514441D01*
X-863400Y513521D01*
Y627900D01*
X-838000D01*
Y513521D01*
D02*
G37*
%LPC*%
G36*
X-863400Y362279D02*
X-870384Y361359D01*
X-888725Y353762D01*
X-904476Y341676D01*
X-916562Y325925D01*
X-924159Y307584D01*
X-926751Y287900D01*
Y240600D01*
X-863400D01*
Y362279D01*
D02*
G37*
G36*
X-1702000D02*
Y240600D01*
X-1638649D01*
Y287900D01*
X-1641241Y307584D01*
X-1648838Y325925D01*
X-1660924Y341676D01*
X-1676675Y353762D01*
X-1695016Y361359D01*
X-1702000Y362279D01*
D02*
G37*
G36*
X-863400Y215200D02*
X-926751D01*
Y167900D01*
X-924159Y148216D01*
X-916562Y129875D01*
X-904476Y114124D01*
X-888725Y102038D01*
X-870384Y94441D01*
X-863400Y93521D01*
Y215200D01*
D02*
G37*
G36*
X-1638649D02*
X-1702000D01*
Y93521D01*
X-1695016Y94441D01*
X-1676675Y102038D01*
X-1660924Y114124D01*
X-1648838Y129875D01*
X-1641241Y148216D01*
X-1638649Y167900D01*
Y215200D01*
D02*
G37*
%LPD*%
D10*
X-1244600Y1624100D02*
D03*
Y1754100D02*
D03*
X-1092200Y1624100D02*
D03*
Y1754100D02*
D03*
X-939800Y1624100D02*
D03*
Y1754100D02*
D03*
X-2006600Y2376400D02*
D03*
Y2246400D02*
D03*
X-1092200Y2008100D02*
D03*
Y1878100D02*
D03*
X-1301354Y4185715D02*
D03*
Y4055715D02*
D03*
X-1974454Y4055715D02*
D03*
Y4185715D02*
D03*
X-939800Y2008100D02*
D03*
Y1878100D02*
D03*
D11*
X-1563300Y1968500D02*
D03*
X-1713300D02*
D03*
D12*
X-1480963Y1181100D02*
D03*
D13*
X-1821037D02*
D03*
D14*
X-1016000Y3887400D02*
D03*
Y4037400D02*
D03*
X-825500Y3887400D02*
D03*
Y4037400D02*
D03*
D15*
X-1016000Y893300D02*
D03*
Y1113300D02*
D03*
D16*
X-1206500Y1322000D02*
D03*
Y1472000D02*
D03*
D17*
X-1447800Y1954800D02*
D03*
Y1829800D02*
D03*
X-546100Y3912600D02*
D03*
Y4037600D02*
D03*
Y2248900D02*
D03*
Y2373900D02*
D03*
X-1193800Y851900D02*
D03*
Y976900D02*
D03*
X-673100Y4037600D02*
D03*
Y3912600D02*
D03*
X-1346200Y851900D02*
D03*
Y976900D02*
D03*
D18*
X-1967300Y3517900D02*
D03*
X-1817300D02*
D03*
D19*
X-1444800Y1416300D02*
D03*
Y1606300D02*
D03*
X-1704800Y1416300D02*
D03*
Y1606300D02*
D03*
Y1511300D02*
D03*
D20*
X-1107700Y685400D02*
D03*
X-1157700D02*
D03*
X-1207700D02*
D03*
X-1257700D02*
D03*
X-1307700D02*
D03*
X-1357700D02*
D03*
X-1407700D02*
D03*
X-1457700D02*
D03*
D21*
X-1522700D02*
D03*
X-1042700D02*
D03*
X-1602700D02*
D03*
X-962700D02*
D03*
D22*
X-1778700Y3925700D02*
D03*
X-1548700Y4100700D02*
D03*
X-1778700D02*
D03*
X-1548700Y3925700D02*
D03*
D23*
X-1522700Y2338300D02*
D03*
X-1442700D02*
D03*
X-1362700Y3478300D02*
D03*
X-1442700D02*
D03*
X-1522700D02*
D03*
X-1602700D02*
D03*
Y2338300D02*
D03*
X-1202700D02*
D03*
X-1682700D02*
D03*
X-1042700Y3478300D02*
D03*
X-1122700D02*
D03*
X-962700Y2338300D02*
D03*
X-1202700Y3478300D02*
D03*
X-882700Y2338300D02*
D03*
X-1042700D02*
D03*
X-962700Y3478300D02*
D03*
X-1122700Y2338300D02*
D03*
X-1282700Y3478300D02*
D03*
Y2338300D02*
D03*
X-1682700Y3478300D02*
D03*
X-1362700Y2338300D02*
D03*
X-882700Y3478300D02*
D03*
D24*
X-1852700Y2988300D02*
D03*
Y2908300D02*
D03*
Y2748300D02*
D03*
Y2668300D02*
D03*
Y3068300D02*
D03*
Y2828300D02*
D03*
Y3148300D02*
D03*
X-712700Y3228300D02*
D03*
Y2988300D02*
D03*
Y3068300D02*
D03*
Y2508300D02*
D03*
Y3148300D02*
D03*
Y2908300D02*
D03*
X-1852700Y2508300D02*
D03*
Y3308300D02*
D03*
X-712700Y2668300D02*
D03*
Y2828300D02*
D03*
Y3308300D02*
D03*
Y2588300D02*
D03*
X-1852700D02*
D03*
Y3228300D02*
D03*
X-712700Y2748300D02*
D03*
D25*
X-1903500Y1612900D02*
D03*
X-2033500D02*
D03*
D26*
X-638430Y2264030D02*
X-561230D01*
X-673100Y2298700D02*
X-638430Y2264030D01*
X-561230D02*
X-546100Y2248900D01*
X-723900Y2374900D02*
X-722900Y2373900D01*
X-571500D01*
X-749300Y2374900D02*
X-723900D01*
X-889000Y2514600D02*
X-749300Y2374900D01*
X-1682700Y3478300D02*
Y3501917D01*
X-1817300Y3517900D02*
X-1698683D01*
X-1682700Y3501917D01*
X-1244600Y1905000D02*
Y1983170D01*
X-1442700Y2181270D02*
Y2338300D01*
Y2181270D02*
X-1244600Y1983170D01*
X-1117600Y3187700D02*
X-962700Y3342600D01*
Y3478300D01*
X-1186180Y3187700D02*
X-1117600D01*
X-1554654Y3957015D02*
X-1530662Y3933023D01*
X-1682700Y2211586D02*
Y2338300D01*
X-2400300Y1493987D02*
X-1682700Y2211586D01*
X-2400300Y1460500D02*
Y1493987D01*
X-1207700Y838000D02*
X-1193800Y851900D01*
X-1305720Y687380D02*
Y768183D01*
X-1246803Y827100D02*
X-1207700D01*
X-1305720Y768183D02*
X-1246803Y827100D01*
X-1207700Y685400D02*
Y827100D01*
X-1104900Y546100D02*
X-1046321Y604679D01*
Y681779D01*
X-1041400Y686700D01*
X-1473200Y546100D02*
X-1104900D01*
X-1522700Y595600D02*
X-1473200Y546100D01*
X-1259680Y614223D02*
Y683420D01*
X-1279023Y594880D02*
X-1259680Y614223D01*
X-1336377Y594880D02*
X-1279023D01*
X-1323300Y851900D02*
X-1320800D01*
X-1355720Y614223D02*
Y683420D01*
Y614223D02*
X-1336377Y594880D01*
X-1259680Y683420D02*
X-1257700Y685400D01*
X-1357700D02*
X-1355720Y683420D01*
X-1307700Y685400D02*
X-1305720Y687380D01*
X-1522700Y595600D02*
Y685400D01*
X-1831000Y3965500D02*
Y3978000D01*
X-1791200Y3925700D02*
X-1778700D01*
X-1971971Y4053232D02*
X-1906233D01*
X-1972930Y4054191D02*
X-1971971Y4053232D01*
X-1906233D02*
X-1831000Y3978000D01*
Y3965500D02*
X-1791200Y3925700D01*
X-1805500Y4127500D02*
X-1778700Y4100700D01*
X-1913738Y4127500D02*
X-1805500D01*
X-1971954Y4185715D02*
X-1913738Y4127500D01*
X-1974454Y4185715D02*
X-1971954D01*
X-1981869Y4178300D02*
X-1974454Y4185715D01*
X-2120900Y4178300D02*
X-1981869D01*
X-1473200Y2578100D02*
X-1308100D01*
X-1202700Y2472700D01*
X-1598510Y2452790D02*
X-1473200Y2578100D01*
X-1657804Y3258004D02*
Y3282445D01*
X-1683659Y3308300D02*
X-1657804Y3282445D01*
Y3258004D02*
X-1651000Y3251200D01*
X-1852700Y3308300D02*
X-1683659D01*
X-1598510Y2342490D02*
Y2452790D01*
X-1602700Y2338300D02*
X-1598510Y2342490D01*
X-1016000Y3887400D02*
X-825500D01*
X-1141800D02*
X-1016000D01*
X-1181100Y3848100D02*
X-1141800Y3887400D01*
X-2131060Y1983740D02*
Y2630282D01*
X-2400300Y1714500D02*
X-2131060Y1983740D01*
X-1028700Y2552700D02*
X-1021896Y2559504D01*
Y2584904D01*
X-938500Y2668300D01*
X-712700D01*
X-1329700Y2828300D02*
X-712700D01*
X-1333500Y2832100D02*
X-1329700Y2828300D01*
X-1117600Y2343400D02*
Y2743200D01*
X-1122700Y2338300D02*
X-1117600Y2343400D01*
X-977900Y4140200D02*
X-558800D01*
X-1016000Y4102100D02*
X-977900Y4140200D01*
X-558800D02*
X-520700Y4102100D01*
X-1016000Y4037400D02*
Y4102100D01*
X-520700Y4037600D02*
Y4102100D01*
X-825500Y4037400D02*
X-825300Y4037600D01*
X-673100D01*
X-706300Y3314700D02*
X-520700D01*
X-546100Y3784600D02*
Y3912600D01*
X-673100Y3784600D02*
Y3912600D01*
X-712700Y3308300D02*
X-706300Y3314700D01*
X-1447800Y2908300D02*
X-712700D01*
X-1524000Y2133600D02*
Y2337000D01*
Y2133600D02*
X-1485900Y2095500D01*
X-1023084Y3659540D02*
X-837660D01*
X-1122700Y3559924D02*
X-1023084Y3659540D01*
X-1143744Y3698880D02*
X-1091643Y3750980D01*
X-1074544Y3688080D02*
X-1073795D01*
X-1056615Y3705260D01*
X-1091643Y3750980D02*
X-799785D01*
X-1056615Y3705260D02*
X-818722D01*
X-1202700Y3559924D02*
X-1074544Y3688080D01*
X-165100Y3975100D02*
Y4000500D01*
X-668304Y3619500D02*
X-520700D01*
X-165100Y3975100D01*
X-799785Y3750980D02*
X-668304Y3619500D01*
X-856598Y3613820D02*
X-839417Y3596640D01*
X-646377Y3403600D01*
X-837660Y3659540D02*
X-670620Y3492500D01*
X-1042700Y3559924D02*
X-988804Y3613820D01*
X-856598D01*
X-818722Y3705260D02*
X-656762Y3543300D01*
X-1143744Y3698880D02*
X-1143744D01*
X-1282700Y3559924D02*
X-1143744Y3698880D01*
X-670620Y3492500D02*
X-165100D01*
X-656762Y3543300D02*
X-403911D01*
X-646377Y3403600D02*
X-444500D01*
X-403911Y3543300D02*
X-200711Y3746500D01*
X-444500Y3403600D02*
X-279400Y3238500D01*
X-1202700Y3478300D02*
Y3559924D01*
X-200711Y3746500D02*
X-165100D01*
X-1122700Y3478300D02*
Y3559924D01*
X-279400Y3238500D02*
X-165100D01*
X-1042700Y3478300D02*
Y3559924D01*
X-712700Y2588300D02*
X-710200Y2590800D01*
X-520700D01*
X-874121Y2588300D02*
X-712700D01*
X-889000Y2573421D02*
X-874121Y2588300D01*
X-889000Y2514600D02*
Y2573421D01*
X-829479Y2328079D02*
X-342900Y1841500D01*
Y1638300D02*
Y1841500D01*
X-882700Y2338300D02*
X-872479Y2328079D01*
X-829479D01*
X-736600Y2159000D02*
X-393700Y1816100D01*
Y1435100D02*
Y1816100D01*
X-939800Y2159000D02*
X-736600D01*
X-767080Y2113280D02*
X-444500Y1790700D01*
Y1231900D02*
Y1790700D01*
X-958738Y2113280D02*
X-767080D01*
X-1202700Y2338300D02*
Y2472700D01*
Y2206000D02*
Y2338300D01*
X-2024980Y3613820D02*
X-1656597D01*
X-2400300Y3238500D02*
X-2024980Y3613820D01*
X-1656597D02*
X-1602700Y3559924D01*
X-1588036Y3705260D02*
X-1442700Y3559924D01*
X-1553757Y3750980D02*
X-1362700Y3559924D01*
X-1726400Y3873400D02*
X-1650300Y3797300D01*
X-1485900D01*
X-2150780Y3750980D02*
X-1553757D01*
X-2400300Y4000500D02*
X-2150780Y3750980D01*
X-2210958Y3746500D02*
X-2169718Y3705260D01*
X-2233260Y3659540D02*
X-1614840D01*
X-2400300Y3492500D02*
X-2233260Y3659540D01*
X-2169718Y3705260D02*
X-1588036D01*
X-1485900Y3797300D02*
X-1447800Y3759200D01*
X-1614840Y3659540D02*
X-1537154Y3581854D01*
X-1530662Y3933023D02*
X-1456523D01*
X-1422400Y3898900D01*
X-1514854Y4079354D02*
Y4113561D01*
X-1496400Y4060900D02*
X-1483539D01*
X-1333500Y3657600D02*
Y3910861D01*
X-1514854Y4079354D02*
X-1496400Y4060900D01*
X-1483539D02*
X-1333500Y3910861D01*
X-1443285Y4132015D02*
X-1389585Y4185715D01*
X-1496400Y4132015D02*
X-1443285D01*
X-1389585Y4185715D02*
X-1301354D01*
X-1514854Y4113561D02*
X-1496400Y4132015D01*
X-1766200Y3925700D02*
X-1726400Y3885900D01*
Y3873400D02*
Y3885900D01*
X-906168Y897232D02*
X-698500Y1104900D01*
X-847268Y2002968D02*
X-698500Y1854200D01*
Y1104900D02*
Y1854200D01*
X-1012068Y897232D02*
X-906168D01*
X-1016000Y893300D02*
X-1012068Y897232D01*
X-934668Y2002968D02*
X-847268D01*
X-939800Y2008100D02*
X-934668Y2002968D01*
X-1016000Y800100D02*
Y893300D01*
X-1041400Y774700D02*
X-1016000Y800100D01*
X-1041400Y686700D02*
Y774700D01*
X-1202700Y2206000D02*
X-1080320Y2083620D01*
X-1033523D01*
X-1032703Y2082800D01*
X-1016000D01*
X-972100Y2038900D01*
Y2037900D02*
Y2038900D01*
Y2037900D02*
X-942300Y2008100D01*
X-939800D01*
X-1852700Y2389100D02*
Y2508300D01*
X-1854200Y2387600D02*
X-1852700Y2389100D01*
X-1461500Y1968500D02*
X-1447800Y1954800D01*
X-1563300Y1968500D02*
X-1461500D01*
X-1117691Y2033591D02*
X-1092200Y2008100D01*
X-1157291Y2033591D02*
X-1117691D01*
X-1282700Y2159000D02*
X-1157291Y2033591D01*
X-1282700Y2159000D02*
Y2338300D01*
X-1524000Y2337000D02*
X-1522700Y2338300D01*
X-1346200Y976900D02*
Y1092200D01*
X-2400300Y1993900D02*
X-2176780Y2217420D01*
Y2649220D01*
X-1282700Y3478300D02*
Y3559924D01*
X-2400300Y3746500D02*
X-2210958D01*
X-1362700Y3478300D02*
Y3559924D01*
X-1442700Y3478300D02*
Y3559924D01*
X-1602700Y3478300D02*
Y3559924D01*
X-1537154Y3574617D02*
Y3581854D01*
Y3574617D02*
X-1522700Y3560163D01*
Y3478300D02*
Y3560163D01*
X-444500Y1231900D02*
X-165100Y952500D01*
X-393700Y1435100D02*
X-165100Y1206500D01*
X-712700Y3148300D02*
X-582900D01*
X-165100Y2730500D01*
X-342900Y1638300D02*
X-165100Y1460500D01*
X-1042700Y2197242D02*
X-958738Y2113280D01*
X-1042700Y2197242D02*
Y2338300D01*
X-962700Y2181900D02*
Y2338300D01*
Y2181900D02*
X-939800Y2159000D01*
X-552500Y2508300D02*
X-304800Y2260600D01*
Y2108200D02*
Y2260600D01*
Y2108200D02*
X-165100Y1968500D01*
X-712700Y2508300D02*
X-552500D01*
X-355600Y2413000D02*
X-165100Y2222500D01*
X-355600Y2413000D02*
Y2751841D01*
X-592059Y2988300D02*
X-355600Y2751841D01*
X-712700Y2988300D02*
X-592059D01*
X-712700Y3068300D02*
X-589300D01*
X-309880Y2621280D02*
Y2788880D01*
X-589300Y3068300D02*
X-309880Y2788880D01*
Y2621280D02*
X-165100Y2476500D01*
X-712700Y3228300D02*
X-408900D01*
X-165100Y2984500D01*
X-2400300Y1968500D02*
Y1993900D01*
X-2131060Y2630282D02*
X-2013042Y2748300D01*
X-1852700D01*
X-2176780Y2649220D02*
X-1997700Y2828300D01*
X-2222500Y2400300D02*
Y2705100D01*
X-2400300Y2222500D02*
X-2222500Y2400300D01*
X-1997700Y2828300D02*
X-1852700D01*
X-2040900Y2988300D02*
X-1852700D01*
X-2273300Y2755900D02*
X-2040900Y2988300D01*
X-2273300Y2603500D02*
Y2755900D01*
X-2222500Y2705100D02*
X-2019300Y2908300D01*
X-1852700D01*
X-2400300Y2984500D02*
X-2247900D01*
X-2084100Y3148300D02*
X-1852700D01*
X-2247900Y2984500D02*
X-2084100Y3148300D01*
X-2400300Y2476500D02*
X-2273300Y2603500D01*
X-2400300Y2730500D02*
X-2069120Y3061680D01*
X-1859320D01*
X-1852700Y3068300D01*
X-1357700Y685400D02*
Y817500D01*
X-1323300Y851900D01*
X-1194436Y1091611D02*
X-1193800Y1090975D01*
Y976900D02*
Y1090975D01*
D27*
X-545085Y2806700D02*
X-533400D01*
X-599294Y2752490D02*
X-545085Y2806700D01*
X-712700Y2748300D02*
X-708510Y2752490D01*
X-599294D01*
X-1977432Y3507768D02*
X-1967300Y3517900D01*
X-2042132Y3507768D02*
X-1977432D01*
X-2150738Y3399162D02*
X-2042132Y3507768D01*
X-2150738Y3373762D02*
Y3399162D01*
X-2159000Y3365500D02*
X-2150738Y3373762D01*
X-965200Y3226037D02*
X-882700Y3308537D01*
Y3478300D01*
X-965200Y3225800D02*
Y3226037D01*
X-2006600Y2641600D02*
X-1979900Y2668300D01*
X-2006600Y2376400D02*
Y2641600D01*
X-2019300Y2233700D02*
X-2006600Y2246400D01*
X-1828800Y1825718D02*
Y1968500D01*
X-1943100Y1803400D02*
X-1851118D01*
X-1828800Y1968500D02*
X-1713300D01*
X-1851118Y1803400D02*
X-1828800Y1825718D01*
X-963950Y534650D02*
Y684150D01*
X-965200Y533400D02*
X-963950Y534650D01*
Y684150D02*
X-962700Y685400D01*
X-2033500Y1612900D02*
Y1713000D01*
X-1943100Y1803400D01*
X-1903500Y1612900D02*
X-1711400D01*
X-1905000Y1409700D02*
Y1611400D01*
Y1409700D02*
X-1816100Y1320800D01*
X-1360800Y2340200D02*
Y2487300D01*
X-1358900Y2489200D01*
X-1362700Y2338300D02*
X-1360800Y2340200D01*
X-1561085Y3187700D02*
X-1549400D01*
X-1572515Y3176270D02*
X-1561085Y3187700D01*
X-1682037Y3176270D02*
X-1572515D01*
X-1848510Y3224110D02*
X-1729877D01*
X-1682037Y3176270D01*
X-1573510Y2589550D02*
X-1572260Y2590800D01*
X-1851450Y2589550D02*
X-1573510D01*
X-1852700Y3228300D02*
X-1848510Y3224110D01*
X-1602700Y561300D02*
Y685400D01*
Y561300D02*
X-1600200Y558800D01*
X-2247900Y952500D02*
X-2159000Y1041400D01*
X-2400300Y952500D02*
X-2247900D01*
X-2270286Y1206500D02*
X-2163374Y1313412D01*
Y1329126D02*
X-2159000Y1333500D01*
X-2400300Y1206500D02*
X-2270286D01*
X-2163374Y1313412D02*
Y1329126D01*
X-1828800Y1173337D02*
X-1821037Y1181100D01*
X-1828800Y952500D02*
Y1173337D01*
X-2082800Y698500D02*
X-1828800Y952500D01*
X-2400300Y698500D02*
X-2082800D01*
X-1852700Y2588300D02*
X-1851450Y2589550D01*
X-1187286Y4051300D02*
X-1181100D01*
X-939800Y1878100D02*
X-849400D01*
X-1092200D02*
X-939800D01*
X-1191701Y4055715D02*
X-1187286Y4051300D01*
X-1301354Y4055715D02*
X-1191701D01*
X-849400Y1878100D02*
X-800100Y1828800D01*
X-939800Y1754100D02*
X-924739Y1739039D01*
X-1092200Y1754100D02*
X-939800D01*
X-862739Y1739039D02*
X-800100Y1676400D01*
X-924739Y1739039D02*
X-862739D01*
X-1244600Y1754100D02*
X-1092200D01*
X-2019300Y2095500D02*
Y2233700D01*
X-1704800Y1511300D02*
X-1574800D01*
X-1979900Y2668300D02*
X-1852700D01*
X-1438700Y1600200D02*
X-1358900D01*
X-1244600Y1624100D02*
X-1092200D01*
X-1358900Y1600200D02*
X-1335000Y1624100D01*
X-1244600D01*
X-1444800Y1606300D02*
X-1438700Y1600200D01*
X-1447800Y1609300D02*
X-1444800Y1606300D01*
X-1206500Y1322000D02*
X-1118800D01*
X-1016000Y1219200D01*
Y1113300D02*
Y1219200D01*
X-939800Y1536700D02*
Y1624100D01*
X-1004500Y1472000D02*
X-939800Y1536700D01*
X-1206500Y1472000D02*
X-1004500D01*
X-1711400Y1612900D02*
X-1704800Y1606300D01*
X-1721800Y1416300D02*
X-1704800D01*
X-1735750Y1402350D02*
X-1721800Y1416300D01*
X-1735750Y1401150D02*
Y1402350D01*
X-1816100Y1320800D02*
X-1735750Y1401150D01*
X-1816100Y1314614D02*
Y1320800D01*
X-1821037Y1309677D02*
X-1816100Y1314614D01*
X-1821037Y1181100D02*
Y1309677D01*
X-1471173Y1241445D02*
X-1390618Y1322000D01*
X-1480963Y1181100D02*
X-1471173Y1190890D01*
X-1390618Y1322000D02*
X-1206500D01*
X-1471173Y1190890D02*
Y1241445D01*
X-1663700Y1828800D02*
X-1662700Y1829800D01*
X-1447800D01*
Y1609300D02*
Y1829800D01*
X-1092200Y1624100D02*
X-939800D01*
D28*
X-2400300Y1460500D02*
D03*
Y1714500D02*
D03*
Y1968500D02*
D03*
Y2222500D02*
D03*
Y2476500D02*
D03*
Y2730500D02*
D03*
Y2984500D02*
D03*
Y3238500D02*
D03*
Y3492500D02*
D03*
Y3746500D02*
D03*
Y4000500D02*
D03*
Y952500D02*
D03*
Y1206500D02*
D03*
X-165100Y952500D02*
D03*
Y1206500D02*
D03*
Y1460500D02*
D03*
Y1968500D02*
D03*
Y2222500D02*
D03*
Y2476500D02*
D03*
Y2984500D02*
D03*
Y3238500D02*
D03*
Y3746500D02*
D03*
Y3492500D02*
D03*
Y2730500D02*
D03*
Y1714500D02*
D03*
Y4000500D02*
D03*
D29*
X-2400300Y698500D02*
D03*
X-165100D02*
D03*
D30*
X-1714700Y227900D02*
D03*
X-850700D02*
D03*
D31*
X-1714700Y627900D02*
D03*
X-850700D02*
D03*
D32*
X-673100Y2298700D02*
D03*
X-1244600Y1905000D02*
D03*
X-1828800Y1968500D02*
D03*
X-1651000Y3251200D02*
D03*
X-2159000Y1333500D02*
D03*
Y1041400D02*
D03*
X-1028700Y2552700D02*
D03*
X-1117600Y2743200D02*
D03*
X-1186180Y3187700D02*
D03*
X-1181100Y3848100D02*
D03*
X-520700Y3314700D02*
D03*
X-546100Y3784600D02*
D03*
X-673100D02*
D03*
X-1485900Y2095500D02*
D03*
X-520700Y2590800D02*
D03*
X-1181100Y4051300D02*
D03*
X-1422400Y3898900D02*
D03*
X-1447800Y3759200D02*
D03*
X-1333500Y3657600D02*
D03*
X-1854200Y2387600D02*
D03*
X-1346200Y1092200D02*
D03*
X-1333500Y2832100D02*
D03*
X-1447800Y2908300D02*
D03*
X-1194436Y1091611D02*
D03*
D33*
X-533400Y2806700D02*
D03*
X-965200Y3225800D02*
D03*
Y533400D02*
D03*
X-2120900Y4178300D02*
D03*
X-1358900Y2489200D02*
D03*
X-1572260Y2590800D02*
D03*
X-1549400Y3187700D02*
D03*
X-1600200Y558800D02*
D03*
X-2159000Y3365500D02*
D03*
X-800100Y1828800D02*
D03*
Y1676400D02*
D03*
X-1574800Y1511300D02*
D03*
X-2019300Y2095500D02*
D03*
X-1816100Y1320800D02*
D03*
X-1663700Y1828800D02*
D03*
%TF.MD5,646b12d8e00a6cf5d45b4cd25eadfb6f*%
M02*
